<svg xmlns="http://www.w3.org/2000/svg" width="355.7" height="40" style="enable-background:new 0 0 355.7 40" xml:space="preserve"><path d="M38.9 39.3h-8.5L27 30.5H11.5l-3.2 8.8H.1L15.1.7h8.3l15.5 38.6zM24.5 24 19.2 9.7 13.9 24h10.6zm18.8 15.3V1h7.8v31.8h19.4v6.5H43.3zm32.2 0V.7H102v6.5H83.3v9.2h16.1v6.5H83.3v16.4h-7.8zm64.4 0h-8.5l-3.4-8.8h-15.5l-3.2 8.8H101L116.1.6h8.3l15.5 38.7zM125.6 24l-5.3-14.3L115 24h10.6zm33.5 15.3V.7h16.4c4.1 0 7.1.3 9 1s3.5 2 4.5 3.7c1.1 1.8 1.7 3.9 1.7 6.1 0 2.9-.9 5.3-2.6 7.2-1.7 1.9-4.3 3.1-7.6 3.6 1.5.9 2.9 2 4.2 3.2 1.1 1.2 2.6 3.3 4.4 6.3l4.7 7.5h-9.3l-5.6-8.4c-2-3-3.4-4.9-4.1-5.7-.6-.7-1.4-1.3-2.3-1.6-.8-.3-2.1-.4-3.9-.4H167v16.1h-7.9zm7.8-22.3h5.8c3.7 0 6.1-.2 7-.5s1.7-.9 2.2-1.6c.6-.9.8-1.9.8-2.9.1-1.1-.3-2.3-1-3.1-.8-.8-1.8-1.4-2.9-1.5-.6-.1-2.5-.1-5.7-.1H167l-.1 9.7zm28.6 3.2c0-3.9.6-7.2 1.8-9.9.9-2 2.1-3.8 3.6-5.3 1.4-1.5 3.1-2.7 5-3.5 2.6-1.1 5.5-1.6 8.3-1.5 5.7 0 10.3 1.8 13.7 5.3S233 13.7 233 20c0 6.2-1.7 11.1-5.1 14.6-3.4 3.5-7.9 5.3-13.6 5.3-5.8 0-10.3-1.8-13.7-5.3s-5.1-8.2-5.1-14.4zm8-.2c0 4.4 1 7.7 3 10 3.9 4.2 10.5 4.6 14.7.7l.7-.7c2-2.2 3-5.6 3-10.1 0-4.4-1-7.7-2.9-9.9s-4.5-3.3-7.7-3.3-5.8 1.1-7.8 3.3-3 5.5-3 10zm35.6 19.3V.7h11.7l7 26.4 7-26.4h11.7v38.7h-7.3V8.9l-7.7 30.4H254l-7.6-30.4v30.4h-7.3zm45.3 0V.7h28.7v6.5h-20.9v8.6h19.4v6.5h-19.4v10.5h21.6v6.5h-29.4zm33.7-19.1c0-3.9.6-7.2 1.8-9.9.9-2 2.1-3.8 3.6-5.3 1.4-1.5 3.1-2.7 5-3.5C331.1.4 334-.1 336.8 0c5.7 0 10.3 1.8 13.7 5.3 3.4 3.5 5.1 8.4 5.1 14.7 0 6.2-1.7 11.1-5.1 14.6s-7.9 5.3-13.6 5.3c-5.8 0-10.3-1.8-13.7-5.3s-5.1-8.2-5.1-14.4zm8.1-.2c0 4.4 1 7.7 3 10 3.9 4.2 10.5 4.6 14.7.7l.7-.7c2-2.2 3-5.6 3-10.1 0-4.4-1-7.7-2.9-9.9s-4.5-3.3-7.7-3.3-5.8 1.1-7.8 3.3c-2.1 2.2-3.1 5.5-3 10z" style="fill:#132530"/></svg>