<svg xmlns="http://www.w3.org/2000/svg" width="127.5" height="40" style="enable-background:new 0 0 127.5 40" xml:space="preserve"><path d="M39.5 39.3h-8.6l-3.4-8.9H11.7l-3.2 8.9H0L15.3 0h8.4l15.8 39.3zM24.8 23.8 19.4 9.2l-5.3 14.6h10.7zM41.5 0h7.9v21.3c0 3.4.1 5.6.3 6.6.3 1.5 1.2 2.9 2.4 3.9 1.3 1 3 1.5 5.2 1.5s3.9-.5 5.1-1.4c1.1-.8 1.8-2 2.1-3.4.3-2.2.4-4.4.4-6.7V0h7.9v20.7c0 4.7-.2 8.1-.6 10-.4 1.8-1.2 3.5-2.4 4.9-1.3 1.4-2.9 2.5-4.6 3.2-1.9.8-4.5 1.2-7.6 1.2-3.8 0-6.6-.4-8.5-1.3-1.8-.7-3.3-1.9-4.6-3.4-1.1-1.3-1.8-2.8-2.2-4.4-.5-2.3-.8-5.6-.8-10V0zm39 0H95c3.3 0 5.8.3 7.5.8 2.3.7 4.3 1.9 5.9 3.6 1.7 1.8 3 4 3.8 6.4.9 2.5 1.3 5.6 1.3 9.3.1 2.8-.3 5.7-1.2 8.4-.8 2.6-2.3 5-4.2 6.9-1.6 1.5-3.5 2.5-5.6 3.1-1.8.6-4.1.8-7 .8h-15V0zm7.9 6.7v26h5.9c1.6.1 3.2-.1 4.8-.4 1.2-.3 2.3-.8 3.2-1.6.9-.8 1.5-2 2.1-3.8.5-1.8.8-4.2.8-7.2s-.3-5.4-.8-7c-.4-1.4-1.2-2.7-2.3-3.8-1-.9-2.3-1.6-3.7-1.9-1.1-.3-3.3-.4-6.5-.4l-3.5.1zm31.1 32.6V0h7.9v39.3h-7.9z" style="fill:#132530"/></svg>