<svg width="202" height="24" viewBox="0 0 202 24" fill="none" xmlns="http://www.w3.org/2000/svg">
<path fill-rule="evenodd" clip-rule="evenodd" d="M4.15819 14.7431C4.87242 14.7431 5.45142 15.3393 5.45142 16.0749L5.45142 20L10.0554 20L10.0554 14.7431L10.0554 11.3722C10.0554 10.6366 9.47643 10.0404 8.76219 10.0403L-0.000216589 10.0403L-0.00021699 14.7431L4.15819 14.7431Z" fill="#F85A00"/>
<path fill-rule="evenodd" clip-rule="evenodd" d="M11.8418 9.25694C11.1276 9.25694 10.5486 8.66067 10.5486 7.92513V4L5.94461 4L5.94461 9.25694L5.94458 12.6278C5.94457 13.3634 6.52357 13.9596 7.23781 13.9597L16.0002 13.9597V9.25694L11.8418 9.25694Z" fill="#131C20"/>
<path d="M37.2691 19.7395L36.0628 16.7089H28.858L27.6192 19.7069H24.0005L30.7489 4.22827H34.3676L41.0182 19.7069H37.2691V19.7395ZM29.9991 13.9065H34.9218L32.4767 7.87797L29.9991 13.9065Z" fill="#131C20"/>
<path d="M45.452 13.3197C45.452 14.4276 45.778 15.3075 46.3975 15.9592C47.0495 16.5783 47.8645 16.9042 48.9403 16.9042C49.951 16.9042 50.766 16.5783 51.3854 15.9592C52.0048 15.34 52.2982 14.4602 52.2982 13.3197V4.22803H55.8191V13.3197C55.8191 14.6883 55.5257 15.8614 54.9715 16.8716C54.4173 17.8492 53.6349 18.6313 52.5916 19.1853C51.5484 19.7066 50.3422 19.9673 48.9077 19.9673C47.5059 19.9673 46.2671 19.7066 45.2238 19.1853C44.1806 18.6313 43.3656 17.8818 42.8114 16.8716C42.2572 15.8614 41.9637 14.6883 41.9637 13.3197V4.22803H45.4846V13.3197H45.452Z" fill="#131C20"/>
<path d="M57.4156 4.22803H70.4234V7.1934H65.6637V19.7066H62.1428V7.1934H57.4156V4.22803Z" fill="#131C20"/>
<path d="M78.7378 4C80.3026 4 81.7045 4.35845 82.9759 5.04277C84.2473 5.72709 85.258 6.70468 85.9752 7.91039C86.725 9.11609 87.0836 10.4521 87.0836 11.9511C87.0836 13.4501 86.725 14.7862 85.9752 16.0244C85.258 17.2627 84.2473 18.2077 82.9759 18.9246C81.7045 19.609 80.27 19.9674 78.7378 19.9674C77.173 19.9674 75.7711 19.609 74.4997 18.9246C73.2282 18.2077 72.2176 17.2627 71.4678 16.057C70.7506 14.8187 70.392 13.4827 70.392 11.9511C70.392 10.4521 70.7506 9.11609 71.4678 7.91039C72.2176 6.6721 73.1956 5.72709 74.4671 5.04277C75.7385 4.35845 77.1404 4 78.7378 4ZM78.7704 7.06314C77.9228 7.06314 77.1078 7.29124 76.3579 7.71487C75.6081 8.13849 75.0213 8.72505 74.5975 9.47454C74.1737 10.224 73.9455 11.0387 73.9455 11.9511C73.9455 12.8635 74.1737 13.7108 74.5975 14.4603C75.0539 15.2098 75.6407 15.7963 76.3579 16.2525C77.1078 16.7088 77.8902 16.9043 78.7704 16.9043C79.618 16.9043 80.4004 16.6762 81.1177 16.2525C81.8349 15.7963 82.4217 15.2098 82.8455 14.4603C83.2693 13.6782 83.4975 12.8635 83.4975 11.9511C83.4975 11.0387 83.2693 10.224 82.8455 9.47454C82.4217 8.72505 81.8675 8.13849 81.1177 7.71487C80.4004 7.25866 79.618 7.06314 78.7704 7.06314Z" fill="#131C20"/>
<path d="M95.9836 4.22827C97.581 4.22827 98.9829 4.55414 100.222 5.23845C101.461 5.89019 102.439 6.80261 103.123 7.97573C103.808 9.14884 104.166 10.4849 104.166 11.9839C104.166 13.4829 103.808 14.8189 103.091 16.0246C102.406 17.1977 101.428 18.1101 100.156 18.7619C98.8851 19.4136 97.4506 19.7395 95.8532 19.7395H89.3982V4.22827H95.9836ZM96.0814 16.7741C96.929 16.7741 97.7114 16.5786 98.396 16.1875C99.0807 15.7639 99.6349 15.2099 100.026 14.493C100.417 13.7761 100.613 12.9289 100.613 12.0165C100.613 11.104 100.417 10.2568 99.9935 9.50729C99.6023 8.7578 99.0481 8.20383 98.3308 7.81279C97.6462 7.38917 96.8312 7.19365 95.951 7.19365H92.9191V16.8067H96.0814V16.7741Z" fill="#131C20"/>
<path d="M113.327 4C114.892 4 116.294 4.35845 117.565 5.04277C118.837 5.72709 119.847 6.70468 120.565 7.91039C121.315 9.11609 121.673 10.4521 121.673 11.9511C121.673 13.4501 121.315 14.7862 120.565 16.0244C119.847 17.2627 118.837 18.2077 117.565 18.9246C116.294 19.609 114.86 19.9674 113.327 19.9674C111.762 19.9674 110.361 19.609 109.089 18.9246C107.818 18.2077 106.807 17.2627 106.057 16.057C105.34 14.8187 104.981 13.4827 104.981 11.9511C104.981 10.4521 105.34 9.11609 106.057 7.91039C106.807 6.6721 107.785 5.72709 109.057 5.04277C110.361 4.35845 111.762 4 113.327 4ZM113.392 7.06314C112.545 7.06314 111.73 7.29124 110.98 7.71487C110.23 8.13849 109.643 8.72505 109.22 9.47454C108.796 10.224 108.568 11.0387 108.568 11.9511C108.568 12.8635 108.796 13.7108 109.22 14.4603C109.676 15.2098 110.263 15.7963 110.98 16.2525C111.73 16.7088 112.512 16.9043 113.392 16.9043C114.273 16.9043 115.023 16.6762 115.74 16.2525C116.457 15.7963 117.044 15.2098 117.468 14.4603C117.891 13.6782 118.12 12.8635 118.12 11.9511C118.12 11.0387 117.891 10.224 117.468 9.47454C117.044 8.72505 116.49 8.13849 115.74 7.71487C115.023 7.25866 114.24 7.06314 113.392 7.06314Z" fill="#131C20"/>
<path d="M134.876 9.0835C134.354 8.46436 133.702 7.94297 132.985 7.61711C132.268 7.25866 131.551 7.06314 130.833 7.06314C129.953 7.06314 129.171 7.29124 128.421 7.71487C127.704 8.13849 127.117 8.72505 126.693 9.47454C126.269 10.224 126.074 11.0387 126.074 11.9185C126.074 12.831 126.269 13.6456 126.693 14.3951C127.117 15.1446 127.671 15.7312 128.421 16.1548C129.138 16.5784 129.953 16.8065 130.833 16.8065C131.518 16.8065 132.235 16.6436 132.952 16.3177C133.67 15.9919 134.322 15.5356 134.876 14.9817L136.93 17.2301C136.115 18.0774 135.137 18.7617 133.996 19.2505C132.887 19.7393 131.779 20 130.638 20C129.106 20 127.736 19.6415 126.465 18.9572C125.226 18.2403 124.248 17.2953 123.531 16.057C122.814 14.8187 122.455 13.4827 122.455 11.9511C122.455 10.4521 122.814 9.11609 123.531 7.91039C124.248 6.70468 125.259 5.75967 126.497 5.04277C127.769 4.35845 129.171 4 130.736 4C131.877 4 132.985 4.22811 134.061 4.7169C135.169 5.17312 136.082 5.79226 136.865 6.60692L134.876 9.0835Z" fill="#131C20"/>
<path d="M155.545 9.0835C155.024 8.46436 154.372 7.94297 153.655 7.61711C152.937 7.25866 152.22 7.06314 151.503 7.06314C150.623 7.06314 149.84 7.29124 149.09 7.71487C148.373 8.13849 147.786 8.72505 147.363 9.47454C146.939 10.224 146.743 11.0387 146.743 11.9185C146.743 12.831 146.939 13.6456 147.363 14.3951C147.786 15.1446 148.341 15.7312 149.09 16.1548C149.808 16.5784 150.623 16.8065 151.503 16.8065C152.188 16.8065 152.905 16.6436 153.622 16.3177C154.339 15.9919 154.991 15.5356 155.545 14.9817L157.599 17.2301C156.784 18.0774 155.806 18.7617 154.665 19.2505C153.557 19.7393 152.448 20 151.307 20C149.775 20 148.406 19.6415 147.134 18.9572C145.896 18.2403 144.918 17.2953 144.2 16.057C143.483 14.8187 143.125 13.4827 143.125 11.9511C143.125 10.4521 143.483 9.11609 144.2 7.91039C144.918 6.70468 145.928 5.75967 147.167 5.04277C148.438 4.35845 149.84 4 151.405 4C152.546 4 153.655 4.22811 154.73 4.7169C155.839 5.17312 156.752 5.79226 157.534 6.60692L155.545 9.0835Z" fill="#F85A00"/>
<path d="M159.719 4.22827H163.24V16.6438H169.923V19.7069H159.751V4.22827H159.719Z" fill="#F85A00"/>
<path d="M175.236 13.3199C175.236 14.4279 175.562 15.3077 176.181 15.9594C176.833 16.5786 177.648 16.9044 178.724 16.9044C179.735 16.9044 180.55 16.5786 181.169 15.9594C181.789 15.3403 182.082 14.4605 182.082 13.3199V4.22827H185.603V13.3199C185.603 14.6886 185.309 15.8617 184.755 16.8719C184.201 17.8495 183.419 18.6315 182.375 19.1855C181.332 19.7069 180.126 19.9676 178.691 19.9676C177.29 19.9676 176.051 19.7069 175.008 19.1855C173.964 18.6315 173.149 17.882 172.595 16.8719C172.041 15.8617 171.747 14.6886 171.747 13.3199V4.22827H175.268V13.3199H175.236Z" fill="#F85A00"/>
<path d="M195.872 4.22803C197.6 4.22803 198.936 4.58648 199.947 5.2708C200.925 5.95512 201.446 6.90013 201.446 8.10583C201.446 8.92049 201.186 9.66998 200.697 10.2891C200.208 10.9083 199.556 11.2993 198.741 11.5274C199.751 11.7229 200.534 12.1791 201.12 12.8635C201.707 13.5478 202.001 14.4276 202.001 15.4378C202.001 16.7739 201.479 17.8166 200.436 18.5661C199.393 19.3156 197.958 19.7066 196.132 19.7066H188.732V4.22803H195.872ZM195.709 10.4846C196.361 10.4846 196.882 10.3217 197.273 10.0284C197.665 9.70257 197.86 9.27894 197.86 8.75756C197.86 8.23617 197.665 7.81255 197.273 7.51927C196.915 7.22599 196.393 7.09564 195.709 7.09564H192.253V10.4846H195.709ZM195.709 16.8716C196.524 16.8716 197.176 16.7087 197.665 16.3828C198.154 16.0569 198.382 15.5682 198.382 14.9816C198.382 14.4276 198.154 13.9714 197.665 13.6455C197.176 13.3197 196.524 13.1567 195.709 13.1893H192.253V16.8716H195.709Z" fill="#F85A00"/>
</svg>
