<svg xmlns="http://www.w3.org/2000/svg" width="439" height="56" fill="none"><path d="M117.001 41.26H95.255l-4.148 9.944H80l20.876-46.408h10.706l20.942 46.408H121.15l-4.149-9.944zm-3.412-8.155l-7.427-17.768-7.427 17.768h14.854zM157.213 52c-6.691 0-11.91-1.834-15.657-5.503-3.703-3.668-5.554-8.906-5.554-15.712V4.795h10.84v25.592c0 8.31 3.479 12.464 10.438 12.464 3.39 0 5.977-.995 7.761-2.984 1.784-2.033 2.676-5.193 2.676-9.48V4.796h10.706v25.989c0 6.806-1.873 12.044-5.62 15.712C169.1 50.166 163.904 52 157.213 52zm40.839-38.453h-14.988V4.796h40.816v8.751h-14.988v37.657h-10.84V13.547zM251.741 52c-4.862 0-9.256-1.039-13.181-3.116-3.881-2.077-6.937-4.928-9.167-8.553-2.186-3.668-3.279-7.779-3.279-12.331s1.093-8.64 3.279-12.265c2.23-3.669 5.286-6.542 9.167-8.619C242.485 5.039 246.879 4 251.741 4c4.862 0 9.233 1.039 13.114 3.116 3.881 2.077 6.936 4.95 9.167 8.619 2.23 3.624 3.345 7.713 3.345 12.265 0 4.553-1.115 8.663-3.345 12.331-2.231 3.625-5.286 6.476-9.167 8.553-3.881 2.077-8.252 3.116-13.114 3.116zm0-9.15c2.765 0 5.263-.618 7.494-1.855a13.621 13.621 0 0 0 5.219-5.304c1.293-2.255 1.94-4.818 1.94-7.691s-.647-5.436-1.94-7.69c-1.249-2.255-2.989-4-5.219-5.238-2.231-1.282-4.729-1.923-7.494-1.923-2.766 0-5.264.641-7.494 1.923-2.23 1.237-3.992 2.983-5.286 5.237-1.249 2.255-1.874 4.818-1.874 7.691s.625 5.437 1.874 7.69c1.294 2.255 3.056 4.023 5.286 5.305 2.23 1.237 4.728 1.856 7.494 1.856zm33.773-38.054h21.277c5.085 0 9.568.972 13.449 2.917 3.925 1.9 6.959 4.596 9.1 8.088 2.185 3.492 3.278 7.558 3.278 12.199 0 4.64-1.093 8.707-3.278 12.199-2.141 3.492-5.175 6.21-9.1 8.155-3.881 1.9-8.364 2.85-13.449 2.85h-21.277V4.796zm20.742 37.59c4.683 0 8.408-1.281 11.174-3.845 2.81-2.607 4.215-6.121 4.215-10.541s-1.405-7.912-4.215-10.475c-2.766-2.608-6.491-3.912-11.174-3.912h-9.903v28.774h9.903zM363.475 52c-4.862 0-9.256-1.039-13.181-3.116-3.881-2.077-6.936-4.928-9.167-8.553-2.185-3.668-3.278-7.779-3.278-12.331s1.093-8.64 3.278-12.265c2.231-3.669 5.286-6.542 9.167-8.619C354.219 5.039 358.613 4 363.475 4c4.862 0 9.234 1.039 13.115 3.116 3.88 2.077 6.936 4.95 9.166 8.619 2.231 3.624 3.346 7.713 3.346 12.265 0 4.553-1.115 8.663-3.346 12.331-2.23 3.625-5.286 6.476-9.166 8.553-3.881 2.077-8.253 3.116-13.115 3.116zm0-9.15c2.766 0 5.264-.618 7.494-1.855a13.614 13.614 0 0 0 5.219-5.304c1.294-2.255 1.941-4.818 1.941-7.691s-.647-5.436-1.941-7.69c-1.249-2.255-2.988-4-5.219-5.238-2.23-1.282-4.728-1.923-7.494-1.923-2.765 0-5.263.641-7.494 1.923-2.23 1.237-3.992 2.983-5.286 5.237-1.249 2.255-1.873 4.818-1.873 7.691s.624 5.437 1.873 7.69c1.294 2.255 3.056 4.023 5.286 5.305 2.231 1.237 4.729 1.856 7.494 1.856zM419.663 52c-4.773 0-9.1-1.017-12.981-3.05-3.836-2.077-6.869-4.928-9.099-8.552-2.186-3.669-3.279-7.801-3.279-12.398 0-4.597 1.093-8.707 3.279-12.332 2.23-3.668 5.263-6.519 9.099-8.552C410.563 5.039 414.912 4 419.73 4c4.059 0 7.717.707 10.973 2.122 3.301 1.414 6.067 3.447 8.297 6.099l-6.959 6.365c-3.167-3.625-7.092-5.437-11.776-5.437-2.899 0-5.486.641-7.761 1.923a13.492 13.492 0 0 0-5.353 5.237c-1.249 2.255-1.874 4.818-1.874 7.691s.625 5.437 1.874 7.69a13.956 13.956 0 0 0 5.353 5.305c2.275 1.237 4.862 1.856 7.761 1.856 4.684 0 8.609-1.834 11.776-5.503L439 43.713c-2.23 2.696-4.996 4.751-8.297 6.166-3.301 1.414-6.981 2.121-11.04 2.121z" fill="#fff"/><path fill-rule="evenodd" clip-rule="evenodd" d="M14.487 37.6a4.594 4.594 0 0 1 4.593 4.594V56h16.114V25.735A4.593 4.593 0 0 0 30.6 21.14H0V37.6h14.487z" fill="#F85A00"/><path fill-rule="evenodd" clip-rule="evenodd" d="M41.513 18.4a4.594 4.594 0 0 1-4.593-4.594V0H20.806v30.265A4.594 4.594 0 0 0 25.4 34.86H56V18.4H41.513z" fill="#fff"/></svg>