<svg xmlns="http://www.w3.org/2000/svg" width="134.6" height="40" style="enable-background:new 0 0 134.6 40" xml:space="preserve"><path d="M0 0h16c2.4 0 4.7.1 7.1.4 1.5.2 2.9.8 4.2 1.7s2.3 2 3.1 3.3c.8 1.4 1.3 3 1.2 4.7 0 1.8-.5 3.6-1.5 5.2-1 1.5-2.4 2.8-4.1 3.5 2.4.7 4.3 1.9 5.6 3.6s2 3.9 2 6c0 1.8-.4 3.7-1.2 5.3-.8 1.6-2 3.1-3.5 4.1-1.6 1.1-3.5 1.7-5.4 1.9-1.5.2-4.7.3-9.9.3H0V0zm8.1 6.7v9.2h5.3c3.1 0 5.1 0 5.9-.1 1.2-.1 2.4-.6 3.3-1.4.8-.8 1.2-2 1.2-3.1s-.3-2.2-1-3-1.7-1.2-3-1.4c-.8-.1-3.1-.1-6.9-.1l-4.8-.1zm0 15.9v10.7h7.5c2.9 0 4.8-.1 5.5-.2 1.1-.2 2.2-.7 2.9-1.6.8-1 1.2-2.2 1.1-3.4 0-1.1-.3-2.2-.9-3.1s-1.5-1.5-2.5-1.8c-1.1-.4-3.5-.6-7.2-.6H8.1zM39.6 40V0h12.1L59 27.3 66.1 0h12.1v40h-7.5V8.5L62.8 40H55L47.1 8.5V40h-7.5zm52.1 0L82.1 0h8.3l6 27.5L103.7 0h9.6l7 27.9L126.5 0h8.1l-9.7 40h-8.6l-8-29.9-7.9 29.9h-8.7z" style="fill:#132530"/></svg>