<svg width="73" height="32" fill="none" xmlns="http://www.w3.org/2000/svg"><path fill-rule="evenodd" clip-rule="evenodd" d="M33.856 12.44c1.375 0 2.12.333 2.32.438.057.029.086.096.076.162l-.315.993a.135.135 0 01-.076.086.122.122 0 01-.114 0c-.287-.143-.907-.382-1.852-.382-2.206 0-3.58 1.451-3.58 3.771 0 2.291 1.317 3.666 3.513 3.666.725 0 1.48-.143 1.966-.382a.122.122 0 01.115 0c.038.01.067.048.076.086l.239.983a.129.129 0 01-.067.153c-.42.22-1.346.468-2.577.468-2.94 0-4.831-1.938-4.831-4.936 0-3.054 2.053-5.107 5.107-5.107zm8.668 8.123v-2.54c0-1.326-.477-2.901-2.74-2.901-.849 0-1.718.229-2.329.61-.057.03-.076.096-.057.163l.286.83c.01.039.048.067.086.086.038.01.086.01.115-.019.449-.305 1.088-.487 1.718-.487h.029c.926 0 1.394.478 1.394 1.423v.01c-2.654.018-4.115.963-4.115 2.663 0 1.04.764 2.09 2.224 2.09.802 0 1.537-.315 2.034-.859l.067.582c.01.067.067.125.133.125h1.117a.13.13 0 00.134-.134c0-.02 0-.029-.01-.038-.047-.43-.086-.984-.086-1.604zm-3.074.735c-.64 0-1.021-.391-1.021-1.04 0-.927.86-1.394 2.558-1.394h.067v1.05c0 .086-.01.22-.047.353-.172.468-.678 1.031-1.556 1.031zm7.943-6.148h-.029l-.1-.011a1.662 1.662 0 00-.224-.017c-.754 0-1.442.43-1.833 1.126l-.038-.86a.137.137 0 00-.134-.133h-1.088a.146.146 0 00-.096.038.144.144 0 00-.038.105c.038.583.057 1.232.057 2.11v4.678a.13.13 0 00.134.134h1.241a.13.13 0 00.134-.134v-3.618c0-.2.019-.401.038-.554.162-.897.754-1.46 1.537-1.46.162 0 .286 0 .391.028.038.01.086 0 .115-.029a.153.153 0 00.048-.105v-1.164c.01-.067-.039-.124-.115-.134zm3.055.115h1.642c.067 0 .133.057.124.133v.936a.13.13 0 01-.134.134h-1.642V20c0 .84.239 1.183.802 1.183.353 0 .525-.028.678-.076.038-.01.076 0 .115.02.028.028.057.066.057.104l.057.936c.01.057-.029.114-.086.133a3.75 3.75 0 01-1.145.172c-.592 0-1.108-.2-1.442-.563-.343-.382-.515-1.002-.515-1.871v-3.57h-.926a.13.13 0 01-.134-.134v-.936a.13.13 0 01.134-.133h.926v-1.127c0-.066.038-.114.095-.133l1.212-.354c.048-.01.087-.01.125.02.038.019.057.066.057.105v1.489zm8.105 2.759v2.539c0 .62.038 1.174.086 1.604.01.01.01.019.01.038a.13.13 0 01-.134.134h-1.117c-.067 0-.124-.058-.134-.124l-.067-.583c-.496.544-1.231.86-2.033.86-1.46 0-2.224-1.05-2.224-2.091 0-1.7 1.46-2.645 4.114-2.664v-.01c0-.944-.468-1.422-1.394-1.422h-.028c-.63 0-1.27.182-1.719.487-.028.029-.076.029-.114.02-.038-.02-.077-.048-.086-.087l-.287-.83c-.019-.067 0-.134.058-.162.61-.382 1.48-.611 2.329-.611 2.262 0 2.74 1.575 2.74 2.902zm-4.096 2.233c0 .65.382 1.041 1.022 1.041.888 0 1.394-.563 1.556-1.03.038-.135.048-.268.048-.354v-1.05h-.067c-1.7 0-2.559.467-2.559 1.393zm6.673-5.25c0 .764.44 1.174 1.805 1.7 1.756.668 2.5 1.536 2.52 2.91 0 1.328-.907 2.874-3.456 2.874-.888 0-1.938-.267-2.501-.64-.057-.028-.076-.095-.057-.152l.324-1.021a.187.187 0 01.086-.086c.038-.02.077-.01.115.01a4.113 4.113 0 002.119.591c1.145 0 1.861-.563 1.861-1.48 0-.802-.467-1.279-1.708-1.737-1.757-.64-2.606-1.556-2.606-2.826 0-1.594 1.327-2.701 3.217-2.701 1.203 0 1.909.334 2.157.477a.14.14 0 01.057.162l-.343.993c-.02.038-.048.076-.086.086-.038.019-.077.01-.115-.01-.172-.105-.773-.43-1.728-.43-1.145 0-1.66.64-1.66 1.28zm6.435.258h-1.242a.13.13 0 00-.133.133v6.788a.13.13 0 00.133.134h1.242a.13.13 0 00.133-.134v-6.788a.13.13 0 00-.133-.133zm-1.242-2.816h1.242a.13.13 0 01.133.133v1.203a.13.13 0 01-.133.134h-1.242a.13.13 0 01-.133-.134v-1.203a.13.13 0 01.133-.133zm-48.61-2.941c0 .83-1.088 1.509-2.434 1.509s-2.434-.678-2.434-1.509c0-.83 1.088-1.508 2.434-1.508s2.434.678 2.434 1.508zm-4.696 7.714v2.482c0 1.289-.43 1.623-1.385 1.575-1.174-.057-5.202-.916-5.202-4.153 0-3.35 5.947-4.487 8.973-4.487 2.148 0 7.313.573 8.878 4.01.239.525-.315.668-.668.239-1.861-2.292-10.596-3.533-10.596.334zm4.4.477v2.482c0 3.866-8.734 2.625-10.596.334-.353-.43-.907-.286-.668.239 1.565 3.437 6.73 4.01 8.878 4.01 3.026 0 8.973-1.137 8.973-4.487 0-3.237-4.028-4.096-5.202-4.153-.955-.048-1.384.286-1.384 1.575z" fill="#C4D0D8"/></svg>