<svg xmlns="http://www.w3.org/2000/svg" width="195" height="40" style="enable-background:new 0 0 195 40" xml:space="preserve"><path d="m21.8 27.6 6.3 2c-1 3.5-2.6 6.1-4.8 7.8-2.3 1.7-5.1 2.6-8.6 2.6-4.3 0-7.8-1.5-10.6-4.4S0 28.7 0 23.6c0-5.4 1.4-9.5 4.2-12.5s6.4-4.5 10.9-4.5c3.9 0 7.2 1.2 9.6 3.5 1.5 1.4 2.6 3.4 3.3 5.9l-6.5 1.5c-.6-3.2-3.5-5.5-6.8-5.4-2.2-.1-4.4.9-5.8 2.6-1.5 1.7-2.2 4.5-2.2 8.3 0 4.1.7 7 2.2 8.7 1.4 1.7 3.5 2.7 5.7 2.6 1.6 0 3.2-.6 4.5-1.7 1.3-.9 2.2-2.7 2.7-5zM33 39.4V7.2h6.5v32.3l-6.5-.1zm19.8 0V12.6h-9.6V7.2h25.7v5.5h-9.6v26.8l-6.5-.1zm19.9 0V7.2h13.7c3.4 0 5.9.3 7.5.9 1.6.6 2.9 1.7 3.7 3.1 1 1.5 1.4 3.3 1.4 5.1 0 2.4-.7 4.4-2.1 6s-3.6 2.6-6.4 3c1.3.7 2.5 1.6 3.5 2.7.9 1 2.2 2.7 3.7 5.2l3.9 6.3h-7.8l-4.7-7c-1.7-2.5-2.8-4.1-3.4-4.7-.5-.6-1.2-1.1-2-1.3-1.1-.3-2.2-.4-3.3-.4h-1.3v13.5h-6.4v-.2zm6.5-18.6H84c3.1 0 5.1-.1 5.9-.4.7-.2 1.4-.7 1.8-1.4.5-.7.7-1.6.7-2.4 0-1-.3-1.9-.9-2.6-.6-.7-1.5-1.1-2.5-1.2-.5-.1-2.1-.1-4.8-.1h-5.1l.1 8.1zm23.8 2.7c0-3.3.5-6 1.5-8.3.7-1.6 1.8-3.1 3-4.4 1.2-1.2 2.6-2.2 4.2-2.9 2.2-.9 4.6-1.3 7-1.3 4.8 0 8.6 1.5 11.4 4.4 2.9 2.9 4.3 7.1 4.3 12.3s-1.4 9.3-4.2 12.2-6.6 4.4-11.4 4.4-8.6-1.5-11.5-4.4-4.3-6.9-4.3-12zm6.7-.2c0 3.7.8 6.4 2.5 8.3 3.2 3.5 8.7 3.8 12.3.6.2-.2.4-.3.5-.5 1.7-1.9 2.5-4.7 2.5-8.4s-.8-6.5-2.4-8.3-3.8-2.7-6.5-2.7-4.9.9-6.5 2.8c-1.6 1.7-2.4 4.5-2.4 8.2zm29.7 16.1V7.2h23.9v5.5h-17.4v7.2h16.2v5.4h-16.2V34h18v5.4h-24.5zm4.5-34.1V0h5.3v5.3h-5.3zm9.5 0V0h5.3v5.3h-5.3zm15.9 34.1V7.2h6.3l13.2 21.6V7.2h6.1v32.3h-6.5l-13-21.1v21.1l-6.1-.1z" style="fill:#132530"/></svg>