<svg width="72" height="32" viewBox="0 0 72 32" fill="none" xmlns="http://www.w3.org/2000/svg">
<path fill-rule="evenodd" clip-rule="evenodd" d="M22.1926 15.0555C22.0352 15.2759 21.8266 15.575 21.6156 15.8776C21.3897 16.2015 21.161 16.5294 20.9893 16.769C20.8874 16.9112 20.7357 17.1244 20.8554 17.2705H18.3765C17.3675 17.2705 17.672 16.845 17.8404 16.6119C18.0262 16.3548 18.2817 15.9977 18.5277 15.6539L18.528 15.6535L18.529 15.652L18.53 15.6506L18.5301 15.6506C18.7228 15.3812 18.9096 15.1201 19.0525 14.9217C19.24 14.6612 19.3209 14.4657 19.2246 14.3482H21.8657C22.5221 14.3482 22.5134 14.606 22.1926 15.0555ZM19.6709 20.8871C23.3205 20.8871 25.4388 18.4777 26.2153 17.4328H26.8374C26.8374 17.4328 27.6936 16.228 28.4112 15.221C29.3876 13.8509 28.4958 11 25.0054 11H11.2599L8.87658 14.3482H12.6945L8 20.8871H19.6709ZM32.9416 21.026H26.4067C26.4067 21.026 28.8827 17.5774 28.8848 17.5774L35.419 17.5767L32.9416 21.026ZM43.5689 11.0001L40.9157 14.6886H37.8287L40.4809 11.0001H33.5653L28.9383 17.4327H45.8584L50.4838 11.0001H43.5689ZM42.9728 20.8871H36.4403C36.4403 20.8871 38.9163 17.5765 38.9185 17.5765H45.4514L42.9728 20.8871ZM55.1957 17.4327L59.6577 11.0001H52.5933C52.5911 11.0001 48.128 17.4327 48.128 17.4327H55.1957ZM46.6688 18.5103C46.9124 18.1998 47.4138 17.5538 47.4138 17.5538H63L60.3977 20.8871H49.3808C46.5689 20.8871 45.807 19.6081 46.6688 18.5103Z" fill="#F9FAFB"/>
</svg>
