<svg xmlns="http://www.w3.org/2000/svg" width="143.9" height="40" style="enable-background:new 0 0 143.9 40" xml:space="preserve"><path d="M0 39.3V.7h26.5v6.5H7.8v9.2H24v6.5H7.8v16.4H0zm29.5-19.1c0-3.9.6-7.2 1.8-9.9.9-2 2.1-3.8 3.6-5.3 1.4-1.5 3.1-2.7 5-3.5C42.5.4 45.4-.1 48.2 0c5.7 0 10.3 1.8 13.7 5.3S67 13.7 67 20c0 6.2-1.7 11.1-5.1 14.6s-7.9 5.3-13.6 5.3-10.3-1.8-13.7-5.3c-3.5-3.4-5.2-8.2-5.1-14.4zm8-.2c0 4.4 1 7.7 3 10 1.9 2.2 4.8 3.5 7.7 3.4 2.9.1 5.7-1.2 7.7-3.4s3-5.6 3-10.1c0-4.4-1-7.7-2.9-9.9s-4.5-3.3-7.7-3.3-5.8 1.1-7.8 3.3-3 5.5-3 10zm35.3 19.3V.7h16.4c4.1 0 7.1.3 9 1s3.5 2 4.5 3.7c1.1 1.8 1.7 3.9 1.7 6.1 0 2.9-.9 5.3-2.6 7.2-1.7 1.9-4.3 3.1-7.6 3.6 1.5.9 2.9 2 4.2 3.2 1.1 1.2 2.6 3.3 4.4 6.3l4.7 7.5h-9.3l-5.6-8.4c-2-3-3.4-4.9-4.1-5.7-.6-.7-1.4-1.3-2.3-1.6-.8-.3-2.1-.4-3.9-.4h-1.6v16.1h-7.9zM80.6 17h5.8c3.7 0 6.1-.2 7-.5s1.7-.9 2.2-1.6c.6-.9.8-1.9.8-2.9.1-1.1-.3-2.3-1-3.2-.8-.8-1.8-1.4-2.9-1.5-.6-.1-2.5-.1-5.7-.1h-6.1V17h-.1zM111.5.7h14.3c3.2 0 5.7.2 7.4.7 2.2.6 4.2 1.9 5.8 3.6 1.7 1.8 2.9 3.9 3.7 6.2.8 2.5 1.2 5.5 1.2 9.1.1 2.8-.3 5.6-1.2 8.2-.8 2.6-2.2 4.9-4.1 6.8-1.6 1.4-3.4 2.5-5.5 3.1-1.7.6-4 .8-6.9.8h-14.7V.7zm7.8 6.5v25.6h5.8c1.6.1 3.2-.1 4.7-.4 1.2-.3 2.3-.8 3.2-1.6.8-.8 1.5-2 2-3.7s.8-4.1.8-7.1-.3-5.3-.8-6.9c-.4-1.4-1.2-2.7-2.2-3.7-1-.9-2.3-1.6-3.6-1.8-1.1-.2-3.2-.4-6.4-.4h-3.5z" style="fill:#132530"/></svg>