<svg width="72" height="32" viewBox="0 0 72 32" fill="none" xmlns="http://www.w3.org/2000/svg">
<path fill-rule="evenodd" clip-rule="evenodd" d="M48.8678 11.5L46.6667 23.1608L51.9695 23.1667L52.5001 20.2506H50.1064L51.7759 11.5H48.8678ZM59.1762 14.0899C59.6544 14.0899 60.3389 14.2 60.7522 14.3417L61.2461 11.809C60.6408 11.7149 59.9886 11.6518 59.2724 11.6518C56.1212 11.6518 54.6409 13.4606 54.6409 15.4896C54.6409 17.0982 55.6667 17.722 56.4768 18.2147C57.0054 18.5362 57.4422 18.8018 57.4422 19.2488C57.4422 19.8155 57.0289 20.1303 56.1373 20.1303C55.5164 20.1303 54.657 19.9882 54.147 19.7995L53.608 22.5167C54.1967 22.6269 55.0229 22.7096 55.8501 22.7096C58.6675 22.7096 60.6408 20.9004 60.6408 18.7141C60.6408 17.1626 59.622 16.5274 58.8099 16.021C58.2717 15.6854 57.8243 15.4065 57.8243 14.9549C57.8243 14.4518 58.1746 14.0899 59.1762 14.0899ZM37.8242 18.6209C37.8242 14.7854 40.6028 11.6601 44.9319 11.6601C46.034 11.6601 47.2294 11.8209 48.2263 12.0823L47.6361 14.9536C47.4849 14.875 47.2745 14.7868 47.0294 14.7068C46.9555 14.6826 46.8844 14.6616 46.8147 14.6419C46.134 14.4377 45.3723 14.3125 44.6765 14.3125C42.2007 14.3125 40.9873 16.2853 40.9873 18.195C40.9873 19.2214 41.5139 19.9942 42.9667 19.9942C43.2066 19.9942 43.5104 19.9787 43.7659 19.9156L44.3887 16.6797H47.2953L46.2331 21.9876C45.131 22.4455 43.7498 22.6776 42.4406 22.6776C39.1339 22.6776 37.8242 21.0206 37.8242 18.6209Z" fill="#F9FAFB"/>
<path fill-rule="evenodd" clip-rule="evenodd" d="M23.1803 11.6935L22.4005 15.3398H27.7786C23.3234 21.7043 14.4794 20.624 12.1402 17.9849C10.1271 15.7118 11.8667 11.8215 17.8349 9.41772C11.9274 11.1506 8.61076 15.7032 10.5589 18.7673C12.7673 22.2418 19.6537 23.6904 25.774 22.0041C29.8638 20.6181 31.6086 18.6768 32.2466 17.6303L31.2455 22.6773H35.2651L37.446 11.6935H23.1803Z" fill="#F9FAFB"/>
</svg>
