<svg xmlns="http://www.w3.org/2000/svg" width="240.6" height="40" style="enable-background:new 0 0 240.6 40" xml:space="preserve"><path d="M0 39.3V0h7.9v15.5h15.6V0h7.9v39.3h-7.9V22.1H7.9v17.2H0zm50 0V22.8L35.6 0h9.3l9.2 15.6L63.2 0h9.1L57.9 22.8v16.5H50zM76.4 0h7.9v21.3c0 3.4.1 5.6.3 6.6.3 1.5 1.2 2.9 2.4 3.9 1.3 1 3 1.5 5.2 1.5s3.9-.5 5.1-1.4c1.1-.8 1.8-2 2.1-3.4.3-2.2.4-4.4.4-6.7V0h7.9v20.7c0 4.7-.2 8.1-.6 10-.4 1.8-1.2 3.5-2.4 4.9-1.3 1.4-2.9 2.5-4.6 3.2-1.9.8-4.5 1.2-7.6 1.2-3.8 0-6.6-.4-8.5-1.3-1.8-.8-3.3-1.9-4.6-3.4-1.1-1.3-1.8-2.8-2.2-4.4-.5-2.3-.8-5.6-.8-10V0zm39.5 39.3V0h7.7l16.1 26.3V0h7.4v39.3h-8l-15.9-25.6v25.6h-7.3zM155.2 0h14.5c3.3 0 5.8.3 7.5.8 2.3.7 4.3 1.9 5.9 3.6 1.7 1.8 3 4 3.8 6.4.9 2.5 1.3 5.6 1.3 9.3.1 2.8-.3 5.7-1.2 8.4-.8 2.6-2.3 5-4.2 6.9-1.6 1.5-3.5 2.5-5.6 3.1-1.8.6-4.1.8-7 .8h-15V0zm8 6.7v26h5.9c1.6.1 3.2-.1 4.8-.4 1.2-.3 2.3-.8 3.2-1.6.9-.8 1.5-2 2.1-3.8.5-1.8.8-4.2.8-7.2s-.3-5.4-.8-7c-.4-1.4-1.2-2.7-2.3-3.8-1-.9-2.3-1.6-3.7-1.9-1.1-.3-3.3-.4-6.5-.4l-3.5.1zm65.4 32.6H220l-3.4-8.9h-15.7l-3.2 8.9h-8.4L204.5 0h8.4l15.7 39.3zM214 23.8l-5.4-14.6-5.3 14.6H214zm18.7 15.5V0h7.9v39.3h-7.9z" style="fill:#132530"/></svg>