
<svg xmlns="http://www.w3.org/2000/svg" xmlns:xlink="http://www.w3.org/1999/xlink" width="75" height="679"><symbol fill="none" id="sprite-autodoc-icon-grey-color" viewBox="0 0 24 24"><path fill-rule="evenodd" clip-rule="evenodd" d="M7.27 15.53c.501 0 .907.405.907.906v6.693h6.905V9.638c0-.5-.405-.907-.906-.907H0v6.799h7.27z" fill="#fff"/><path fill-rule="evenodd" clip-rule="evenodd" d="M16.729 7.6a.906.906 0 01-.906-.907V0H8.917v13.491c0 .5.406.906.906.906H24V7.6h-7.271z" fill="#D8E0E5"/></symbol><use fill="none" xlink:href="#sprite-autodoc-icon-grey-color" width="24" height="24"/><view id="sprite-autodoc-icon-grey-color" viewBox="0 0 24 24"/><symbol fill="none" id="sprite-autodoc-plus-color" viewBox="0 0 24 24"><path fill-rule="evenodd" clip-rule="evenodd" d="M7.271 15.574c.5 0 .906.406.906.906v6.693h6.906V9.682c0-.5-.406-.906-.906-.906H0v6.798h7.271z" fill="#4D7187"/><path fill-rule="evenodd" clip-rule="evenodd" d="M16.729 7.644a.906.906 0 01-.906-.906V.044H8.917v13.492c0 .5.406.906.906.906H24V7.644h-7.271z" fill="#032F4A"/></symbol><use fill="none" xlink:href="#sprite-autodoc-plus-color" y="24" width="24" height="24"/><view id="sprite-autodoc-plus-color" viewBox="0 24 24 24"/><symbol fill="none" id="sprite-autodoc-short-logo-color" viewBox="0 0 16 16"><path fill-rule="evenodd" clip-rule="evenodd" d="M4.158 10.743c.715 0 1.294.596 1.294 1.332V16h4.604V7.373c0-.736-.58-1.333-1.294-1.333H0v4.703h4.158z" fill="#F85A00"/><path fill-rule="evenodd" clip-rule="evenodd" d="M11.842 5.257c-.715 0-1.294-.596-1.294-1.332V0H5.944v8.627c0 .736.58 1.333 1.294 1.333H16V5.257h-4.158z" fill="#fff"/></symbol><use fill="none" xlink:href="#sprite-autodoc-short-logo-color" y="48" width="16" height="16"/><view id="sprite-autodoc-short-logo-color" viewBox="0 48 16 16"/><symbol fill="none" id="sprite-box-multiple-parts-color" viewBox="0 0 33 32"><g clip-path="url(#clip0_3240_22178)"><mask id="a" maskUnits="userSpaceOnUse" x=".5" y="0" width="17" height="17" fill="#000"><path fill="#fff" d="M.5 0h17v17H.5z"/><path fill-rule="evenodd" clip-rule="evenodd" d="M10.25 1h-2.5l-.458 2.14a5.59 5.59 0 00-.874.361L4.58 2.313 2.813 4.08l1.189 1.837a5.59 5.59 0 00-.363.874L1.5 7.25v2.5l2.14.458c.096.304.218.596.362.874L2.813 12.92l1.768 1.768L6.418 13.5c.279.144.57.265.874.362L7.75 16h2.5l.459-2.14a5.59 5.59 0 00.873-.361l1.837 1.188 1.768-1.768L14 11.082a5.6 5.6 0 00.362-.874l2.14-.458v-2.5l-2.14-.458A5.573 5.573 0 0014 5.918l1.188-1.837-1.767-1.768L11.583 3.5a5.588 5.588 0 00-.874-.362L10.25 1zM9 10.167a1.667 1.667 0 100-3.334 1.667 1.667 0 000 3.334z"/></mask><path fill-rule="evenodd" clip-rule="evenodd" d="M10.25 1h-2.5l-.458 2.14a5.59 5.59 0 00-.874.361L4.58 2.313 2.813 4.08l1.189 1.837a5.59 5.59 0 00-.363.874L1.5 7.25v2.5l2.14.458c.096.304.218.596.362.874L2.813 12.92l1.768 1.768L6.418 13.5c.279.144.57.265.874.362L7.75 16h2.5l.459-2.14a5.59 5.59 0 00.873-.361l1.837 1.188 1.768-1.768L14 11.082a5.6 5.6 0 00.362-.874l2.14-.458v-2.5l-2.14-.458A5.573 5.573 0 0014 5.918l1.188-1.837-1.767-1.768L11.583 3.5a5.588 5.588 0 00-.874-.362L10.25 1zM9 10.167a1.667 1.667 0 100-3.334 1.667 1.667 0 000 3.334z" fill="#184460"/><path d="M7.75 1V.25a.75.75 0 00-.733.593L7.75 1zm2.5 0l.734-.157A.75.75 0 0010.25.25V1zM7.292 3.14l.227.714a.75.75 0 00.506-.558l-.733-.157zm-.874.361l-.408.63a.75.75 0 00.753.037L6.418 3.5zM4.58 2.313l.407-.63a.75.75 0 00-.937.1l.53.53zM2.813 4.08l-.53-.53a.75.75 0 00-.1.937l.63-.407zm1.189 1.837l.666.344a.75.75 0 00-.037-.752l-.63.408zm-.363.874l.158.733a.75.75 0 00.557-.506l-.715-.227zM1.5 7.25l-.157-.733a.75.75 0 00-.593.733h.75zm0 2.5H.75c0 .354.247.66.593.733L1.5 9.75zm2.14.458l.714-.227a.75.75 0 00-.557-.506l-.158.733zm.362.874l.63.408a.75.75 0 00.036-.752l-.666.345zM2.813 12.92l-.63-.407a.75.75 0 00.1.938l.53-.53zm1.768 1.768l-.53.53c.25.25.64.292.937.1l-.407-.63zM6.418 13.5l.345-.667a.75.75 0 00-.752.037l.407.63zm.874.362l.733-.157a.75.75 0 00-.506-.558l-.227.715zM7.75 16l-.733.157a.75.75 0 00.733.593V16zm2.5 0v.75a.75.75 0 00.734-.593L10.25 16zm.459-2.14l-.228-.714a.75.75 0 00-.506.558l.734.157zm.873-.361l.408-.63a.75.75 0 00-.752-.037l.345.667zm1.837 1.188l-.407.63a.75.75 0 00.938-.1l-.53-.53zm1.768-1.768l.53.53a.75.75 0 00.1-.937l-.63.407zM14 11.082l-.666-.344a.75.75 0 00.036.752l.63-.408zm.362-.874l-.157-.733a.75.75 0 00-.558.506l.715.227zm2.14-.458l.156.733a.75.75 0 00.593-.733h-.75zm0-2.5h.75a.75.75 0 00-.594-.733l-.157.733zm-2.14-.458l-.715.227a.75.75 0 00.558.506l.157-.733zM14 5.918l-.63-.408a.75.75 0 00-.036.752L14 5.918zm1.188-1.837l.63.407a.75.75 0 00-.1-.938l-.53.53zM13.42 2.313l.53-.53a.75.75 0 00-.938-.1l.408.63zM11.583 3.5l-.345.667a.75.75 0 00.752-.037l-.407-.63zm-.874-.362l-.734.157a.75.75 0 00.506.558l.228-.715zM7.75 1.75h2.5V.25h-2.5v1.5zm.275 1.546l.459-2.139L7.017.843l-.458 2.139 1.466.314zm-1.262.872a4.84 4.84 0 01.756-.314l-.455-1.43a6.34 6.34 0 00-.99.411l.689 1.333zm-2.59-1.226l1.837 1.19.815-1.26-1.837-1.189-.815 1.26zm-.83 1.669l1.768-1.768-1.06-1.06L2.283 3.55l1.06 1.06zm1.288.9L3.443 3.672l-1.26.815 1.19 1.837L4.63 5.51zm-.277 1.508a4.84 4.84 0 01.314-.757l-1.332-.69a6.34 6.34 0 00-.411.992l1.429.455zm-2.697.964l2.14-.458-.315-1.467-2.139.459.314 1.466zM2.25 9.75v-2.5H.75v2.5h1.5zm1.547-.275l-2.14-.458-.314 1.466 2.14.459.314-1.467zm.87 1.263a4.839 4.839 0 01-.313-.757l-1.43.455c.11.344.248.675.412.991l1.332-.69zm-1.224 2.589L4.63 11.49l-1.259-.815-1.188 1.837 1.259.815zm1.668.83l-1.767-1.768-1.061 1.06 1.768 1.769 1.06-1.061zm.9-1.288l-1.837 1.189.814 1.259 1.837-1.189-.814-1.26zm1.508.277a4.83 4.83 0 01-.756-.314l-.69 1.333c.316.163.647.301.991.41l.455-1.429zm.965 2.697l-.459-2.14-1.466.315.458 2.14 1.467-.315zm1.766-.593h-2.5v1.5h2.5v-1.5zm-.275-1.546l-.458 2.139 1.467.314.458-2.139-1.467-.314zm1.263-.872c-.242.125-.494.23-.757.314l.455 1.43a6.33 6.33 0 00.991-.411l-.69-1.332zm2.589 1.226l-1.837-1.19-.815 1.26 1.837 1.189.815-1.26zm.83-1.669l-1.768 1.768 1.06 1.06 1.769-1.767-1.061-1.06zm-1.288-.899l1.189 1.837 1.259-.815-1.189-1.837-1.259.815zm.277-1.51a4.833 4.833 0 01-.313.758l1.332.69c.163-.317.301-.648.41-.992l-1.428-.455zm2.697-.963l-2.139.458.314 1.467 2.14-.459-.315-1.466zM15.75 7.25v2.5h1.5v-2.5h-1.5zm-1.546.275l2.14.458.313-1.466-2.139-.459-.314 1.467zm-.871-1.263c.125.242.23.495.313.757l1.43-.455a6.343 6.343 0 00-.411-.991l-1.332.69zm1.225-2.589L13.369 5.51l1.26.815 1.188-1.837-1.26-.815zm-1.669-.83l1.768 1.768 1.06-1.06-1.767-1.769-1.06 1.061zm-.899 1.288l1.837-1.189-.815-1.259-1.837 1.189.815 1.26zm-1.509-.277c.263.083.515.189.757.314l.69-1.333a6.339 6.339 0 00-.992-.41l-.455 1.429zm-.964-2.697l.458 2.14 1.467-.315-.458-2.14-1.467.315zm.4 7.343c0 .506-.41.917-.917.917v1.5A2.417 2.417 0 0011.417 8.5h-1.5zM9 7.583c.506 0 .917.41.917.917h1.5A2.417 2.417 0 009 6.083v1.5zm-.916.917c0-.506.41-.917.916-.917v-1.5A2.417 2.417 0 006.583 8.5h1.5zM9 9.417a.917.917 0 01-.916-.917h-1.5A2.417 2.417 0 009 10.917v-1.5z" fill="#fff" mask="url(#a)"/><mask id="b" maskUnits="userSpaceOnUse" x="7.5" y="0" width="17" height="17" fill="#000"><path fill="#fff" d="M7.5 0h17v17h-17z"/><path fill-rule="evenodd" clip-rule="evenodd" d="M17.25 1h-2.5l-.458 2.14a5.588 5.588 0 00-.874.361L11.58 2.313 9.813 4.08l1.189 1.837c-.145.278-.266.57-.363.874L8.5 7.25v2.5l2.14.458c.096.304.218.596.362.874L9.813 12.92l1.768 1.768 1.837-1.188c.279.144.57.265.874.362L14.75 16h2.5l.459-2.14a5.59 5.59 0 00.873-.361l1.837 1.188 1.768-1.768L21 11.082c.144-.278.266-.57.362-.874l2.14-.458v-2.5l-2.14-.458A5.583 5.583 0 0021 5.918l1.188-1.837-1.767-1.768L18.583 3.5a5.588 5.588 0 00-.874-.362L17.25 1zM16 10.167a1.667 1.667 0 100-3.334 1.667 1.667 0 000 3.334z"/></mask><path fill-rule="evenodd" clip-rule="evenodd" d="M17.25 1h-2.5l-.458 2.14a5.588 5.588 0 00-.874.361L11.58 2.313 9.813 4.08l1.189 1.837c-.145.278-.266.57-.363.874L8.5 7.25v2.5l2.14.458c.096.304.218.596.362.874L9.813 12.92l1.768 1.768 1.837-1.188c.279.144.57.265.874.362L14.75 16h2.5l.459-2.14a5.59 5.59 0 00.873-.361l1.837 1.188 1.768-1.768L21 11.082c.144-.278.266-.57.362-.874l2.14-.458v-2.5l-2.14-.458A5.583 5.583 0 0021 5.918l1.188-1.837-1.767-1.768L18.583 3.5a5.588 5.588 0 00-.874-.362L17.25 1zM16 10.167a1.667 1.667 0 100-3.334 1.667 1.667 0 000 3.334z" fill="#184460"/><path d="M14.75 1V.25a.75.75 0 00-.733.593L14.75 1zm2.5 0l.734-.157A.75.75 0 0017.25.25V1zm-2.958 2.14l.227.714a.75.75 0 00.506-.558l-.733-.157zm-.874.361l-.408.63a.75.75 0 00.753.037l-.345-.667zM11.58 2.313l.407-.63a.75.75 0 00-.938.1l.53.53zM9.813 4.08l-.53-.53a.75.75 0 00-.1.937l.63-.407zm1.189 1.837l.666.344a.75.75 0 00-.037-.752l-.63.408zm-.363.874l.158.733a.75.75 0 00.557-.506l-.715-.227zM8.5 7.25l-.157-.733a.75.75 0 00-.593.733h.75zm0 2.5h-.75c0 .354.247.66.593.733L8.5 9.75zm2.14.458l.714-.227a.75.75 0 00-.557-.506l-.158.733zm.362.874l.63.408a.75.75 0 00.036-.752l-.666.345zM9.813 12.92l-.63-.407a.75.75 0 00.1.938l.53-.53zm1.768 1.768l-.53.53c.25.25.64.292.937.1l-.407-.63zm1.837-1.188l.345-.667a.75.75 0 00-.752.037l.407.63zm.874.362l.733-.157a.75.75 0 00-.506-.558l-.227.715zM14.75 16l-.733.157a.75.75 0 00.733.593V16zm2.5 0v.75a.75.75 0 00.734-.593L17.25 16zm.459-2.14l-.228-.714a.75.75 0 00-.506.558l.734.157zm.873-.361l.408-.63a.75.75 0 00-.752-.037l.345.667zm1.837 1.188l-.407.63a.75.75 0 00.938-.1l-.53-.53zm1.768-1.768l.53.53a.75.75 0 00.1-.937l-.63.407zM21 11.082l-.666-.344a.75.75 0 00.036.752l.63-.408zm.362-.874l-.157-.733a.75.75 0 00-.558.506l.715.227zm2.14-.458l.156.733a.75.75 0 00.593-.733h-.75zm0-2.5h.75a.75.75 0 00-.594-.733l-.157.733zm-2.14-.458l-.715.227a.75.75 0 00.558.506l.157-.733zM21 5.918l-.63-.408a.75.75 0 00-.036.752L21 5.918zm1.188-1.837l.63.407a.75.75 0 00-.1-.938l-.53.53zM20.42 2.313l.53-.53a.75.75 0 00-.938-.1l.408.63zM18.583 3.5l-.345.667a.75.75 0 00.752-.037l-.407-.63zm-.874-.362l-.734.157a.75.75 0 00.506.558l.228-.715zM14.75 1.75h2.5V.25h-2.5v1.5zm.275 1.546l.459-2.139-1.467-.314-.458 2.139 1.466.314zm-1.262.872c.24-.125.494-.23.756-.314l-.455-1.43c-.344.11-.675.248-.99.411l.689 1.333zm-2.59-1.226l1.837 1.19.815-1.26-1.837-1.189-.815 1.26zm-.83 1.669l1.768-1.768-1.06-1.06L9.282 3.55l1.06 1.06zm1.288.9l-1.188-1.838-1.26.815 1.19 1.837 1.258-.815zm-.277 1.508c.084-.262.189-.515.314-.757l-1.332-.69a6.342 6.342 0 00-.411.992l1.429.455zm-2.697.964l2.14-.458-.315-1.467-2.139.459.314 1.466zM9.25 9.75v-2.5h-1.5v2.5h1.5zm1.546-.275l-2.139-.458-.314 1.466 2.14.459.313-1.467zm.872 1.263a4.833 4.833 0 01-.314-.757l-1.43.455c.11.344.248.675.412.991l1.332-.69zm-1.225 2.589l1.189-1.837-1.26-.815-1.188 1.837 1.259.815zm1.668.83l-1.768-1.768-1.06 1.06 1.768 1.769 1.06-1.061zm.9-1.288l-1.837 1.189.814 1.259 1.838-1.189-.815-1.26zm1.508.277a4.828 4.828 0 01-.756-.314l-.69 1.333c.316.163.647.301.991.41l.455-1.429zm.965 2.697l-.459-2.14-1.466.315.458 2.14 1.467-.315zm1.766-.593h-2.5v1.5h2.5v-1.5zm-.275-1.546l-.458 2.139 1.467.314.458-2.139-1.467-.314zm1.263-.872c-.242.125-.494.23-.757.314l.455 1.43a6.44 6.44 0 00.991-.411l-.69-1.332zm2.589 1.226l-1.837-1.19-.815 1.26 1.837 1.189.815-1.26zm.83-1.669l-1.768 1.768 1.06 1.06 1.769-1.767-1.061-1.06zm-1.288-.899l1.189 1.837 1.259-.815-1.189-1.837-1.259.815zm.277-1.51a4.833 4.833 0 01-.313.758l1.332.69c.163-.317.301-.648.41-.992l-1.428-.455zm2.697-.963l-2.139.458.314 1.467 2.14-.459-.315-1.466zM22.75 7.25v2.5h1.5v-2.5h-1.5zm-1.546.275l2.14.458.313-1.466-2.139-.459-.314 1.467zm-.871-1.263c.125.242.23.495.314.757l1.429-.455a6.343 6.343 0 00-.411-.991l-1.332.69zm1.225-2.589L20.369 5.51l1.26.815 1.188-1.837-1.26-.815zm-1.669-.83l1.768 1.768 1.06-1.06-1.767-1.769-1.06 1.061zm-.899 1.288l1.837-1.189-.815-1.259-1.837 1.189.815 1.26zm-1.509-.277c.263.083.515.189.757.314l.69-1.333a6.338 6.338 0 00-.992-.41l-.455 1.429zm-.964-2.697l.458 2.14 1.467-.315-.458-2.14-1.467.315zm.4 7.343c0 .506-.41.917-.917.917v1.5A2.417 2.417 0 0018.417 8.5h-1.5zM16 7.583c.506 0 .917.41.917.917h1.5A2.417 2.417 0 0016 6.083v1.5zm-.916.917c0-.506.41-.917.916-.917v-1.5A2.417 2.417 0 0013.584 8.5h1.5zm.916.917a.917.917 0 01-.916-.917h-1.5A2.417 2.417 0 0016 10.917v-1.5z" fill="#fff" mask="url(#b)"/><circle cx="16" cy="8.5" r="1.292" fill="#fff" stroke="#fff" stroke-width=".75"/><mask id="c" maskUnits="userSpaceOnUse" x="15.5" y="0" width="17" height="17" fill="#000"><path fill="#fff" d="M15.5 0h17v17h-17z"/><path fill-rule="evenodd" clip-rule="evenodd" d="M25.25 1h-2.5l-.458 2.14a5.588 5.588 0 00-.874.361L19.58 2.313 17.813 4.08l1.189 1.837c-.144.278-.266.57-.363.874L16.5 7.25v2.5l2.14.458c.096.304.218.596.362.874l-1.189 1.837 1.768 1.768 1.837-1.188c.279.144.57.265.874.362L22.75 16h2.5l.459-2.14a5.59 5.59 0 00.873-.361l1.837 1.188 1.768-1.768L29 11.082c.144-.278.266-.57.362-.874l2.14-.458v-2.5l-2.14-.458A5.583 5.583 0 0029 5.918l1.188-1.837-1.767-1.768L26.583 3.5a5.588 5.588 0 00-.874-.362L25.25 1zM24 10.167a1.667 1.667 0 100-3.334 1.667 1.667 0 000 3.334z"/></mask><path fill-rule="evenodd" clip-rule="evenodd" d="M25.25 1h-2.5l-.458 2.14a5.588 5.588 0 00-.874.361L19.58 2.313 17.813 4.08l1.189 1.837c-.144.278-.266.57-.363.874L16.5 7.25v2.5l2.14.458c.096.304.218.596.362.874l-1.189 1.837 1.768 1.768 1.837-1.188c.279.144.57.265.874.362L22.75 16h2.5l.459-2.14a5.59 5.59 0 00.873-.361l1.837 1.188 1.768-1.768L29 11.082c.144-.278.266-.57.362-.874l2.14-.458v-2.5l-2.14-.458A5.583 5.583 0 0029 5.918l1.188-1.837-1.767-1.768L26.583 3.5a5.588 5.588 0 00-.874-.362L25.25 1zM24 10.167a1.667 1.667 0 100-3.334 1.667 1.667 0 000 3.334z" fill="#184460"/><path d="M22.75 1V.25a.75.75 0 00-.733.593L22.75 1zm2.5 0l.734-.157A.75.75 0 0025.25.25V1zm-2.958 2.14l.227.714a.75.75 0 00.506-.558l-.733-.157zm-.874.361l-.408.63a.75.75 0 00.753.037l-.345-.667zM19.58 2.313l.407-.63a.75.75 0 00-.938.1l.53.53zM17.813 4.08l-.53-.53a.75.75 0 00-.1.937l.63-.407zm1.189 1.837l.666.344a.75.75 0 00-.037-.752l-.63.408zm-.363.874l.158.733a.75.75 0 00.557-.506l-.715-.227zM16.5 7.25l-.157-.733a.75.75 0 00-.593.733h.75zm0 2.5h-.75c0 .354.247.66.593.733l.157-.733zm2.14.458l.714-.227a.75.75 0 00-.557-.506l-.158.733zm.362.874l.63.408a.75.75 0 00.036-.752l-.666.345zm-1.189 1.837l-.63-.407a.75.75 0 00.1.938l.53-.53zm1.768 1.768l-.53.53c.25.25.64.292.937.1l-.407-.63zm1.837-1.188l.345-.667a.75.75 0 00-.752.037l.407.63zm.874.362l.733-.157a.75.75 0 00-.506-.558l-.227.715zM22.75 16l-.733.157a.75.75 0 00.733.593V16zm2.5 0v.75a.75.75 0 00.734-.593L25.25 16zm.459-2.14l-.228-.714a.75.75 0 00-.506.558l.734.157zm.873-.361l.408-.63a.75.75 0 00-.752-.037l.345.667zm1.837 1.188l-.407.63a.75.75 0 00.938-.1l-.53-.53zm1.768-1.768l.53.53a.75.75 0 00.1-.937l-.63.407zM29 11.082l-.666-.344a.75.75 0 00.036.752l.63-.408zm.362-.874l-.157-.733a.75.75 0 00-.558.506l.715.227zm2.14-.458l.156.733a.75.75 0 00.593-.733h-.75zm0-2.5h.75a.75.75 0 00-.594-.733l-.157.733zm-2.14-.458l-.715.227a.75.75 0 00.558.506l.157-.733zM29 5.918l-.63-.408a.75.75 0 00-.036.752L29 5.918zm1.188-1.837l.63.407a.75.75 0 00-.1-.938l-.53.53zM28.42 2.313l.53-.53a.75.75 0 00-.938-.1l.408.63zM26.583 3.5l-.345.667a.75.75 0 00.752-.037l-.407-.63zm-.874-.362l-.734.157a.75.75 0 00.506.558l.228-.715zM22.75 1.75h2.5V.25h-2.5v1.5zm.275 1.546l.459-2.139-1.467-.314-.459 2.139 1.467.314zm-1.262.872c.24-.125.494-.23.756-.314l-.455-1.43c-.344.11-.675.248-.99.411l.689 1.333zm-2.59-1.226l1.837 1.19.815-1.26-1.837-1.189-.815 1.26zm-.83 1.669l1.768-1.768-1.06-1.06-1.768 1.767 1.06 1.06zm1.288.9l-1.188-1.838-1.26.815 1.19 1.837 1.258-.815zm-.277 1.508c.084-.262.189-.515.314-.757l-1.332-.69a6.343 6.343 0 00-.411.992l1.429.455zm-2.697.964l2.14-.458-.315-1.467-2.139.459.314 1.466zm.593 1.767v-2.5h-1.5v2.5h1.5zm1.547-.275l-2.14-.458-.314 1.466 2.14.459.314-1.467zm.87 1.263a4.833 4.833 0 01-.313-.757l-1.43.455c.11.344.248.675.412.991l1.332-.69zm-1.224 2.589l1.188-1.837-1.259-.815-1.189 1.837 1.26.815zm1.668.83l-1.768-1.768-1.06 1.06 1.768 1.769 1.06-1.061zm.9-1.288l-1.837 1.189.814 1.259 1.838-1.189-.815-1.26zm1.508.277a4.828 4.828 0 01-.756-.314l-.69 1.333c.316.163.647.301.991.41l.455-1.429zm.965 2.697l-.459-2.14-1.466.315.458 2.14 1.467-.315zm1.766-.593h-2.5v1.5h2.5v-1.5zm-.275-1.546l-.458 2.139 1.467.314.458-2.139-1.467-.314zm1.263-.872c-.242.125-.494.23-.757.314l.455 1.43a6.44 6.44 0 00.991-.411l-.69-1.332zm2.589 1.226l-1.837-1.19-.815 1.26 1.837 1.189.815-1.26zm.83-1.669l-1.768 1.768 1.06 1.06 1.769-1.767-1.061-1.06zm-1.288-.899l1.189 1.837 1.259-.815-1.189-1.837-1.259.815zm.277-1.51a4.833 4.833 0 01-.313.758l1.332.69c.163-.317.301-.648.41-.992l-1.428-.455zm2.697-.963l-2.139.458.314 1.467 2.14-.459-.315-1.466zM30.75 7.25v2.5h1.5v-2.5h-1.5zm-1.546.275l2.14.458.313-1.466-2.139-.459-.314 1.467zm-.871-1.263c.125.242.23.495.314.757l1.429-.455a6.343 6.343 0 00-.411-.991l-1.332.69zm1.225-2.589L28.369 5.51l1.26.815 1.188-1.837-1.26-.815zm-1.669-.83l1.768 1.768 1.06-1.06-1.767-1.769-1.06 1.061zm-.899 1.288l1.837-1.189-.815-1.259-1.837 1.189.815 1.26zm-1.509-.277c.263.083.515.189.757.314l.69-1.333a6.338 6.338 0 00-.992-.41l-.455 1.429zm-.964-2.697l.458 2.14 1.467-.315-.458-2.14-1.467.315zm.4 7.343c0 .506-.41.917-.917.917v1.5A2.417 2.417 0 0026.417 8.5h-1.5zM24 7.583c.506 0 .917.41.917.917h1.5A2.417 2.417 0 0024 6.083v1.5zm-.916.917c0-.506.41-.917.916-.917v-1.5A2.417 2.417 0 0021.584 8.5h1.5zm.916.917a.917.917 0 01-.916-.917h-1.5A2.417 2.417 0 0024 10.917v-1.5z" fill="#fff" mask="url(#c)"/><circle cx="24" cy="8.5" r="1.292" fill="#fff" stroke="#fff" stroke-width=".75"/><rect x="3.125" y="12.625" width="26.75" height="17.75" rx="1.125" fill="#184460" stroke="#fff" stroke-width=".75" stroke-linejoin="round"/><rect x="15.125" y="12.625" width="14.75" height="17.75" rx="1.125" fill="#184460" stroke="#fff" stroke-width=".75" stroke-linejoin="round"/><path d="M3.5 12.625a.375.375 0 00-.348.236l-2 5a.375.375 0 00.348.514h11a.375.375 0 00.348-.236l2-5a.375.375 0 00-.348-.514h-11zm26 0c.154 0 .291.093.348.236l2 5a.375.375 0 01-.348.514h-14a.375.375 0 01-.348-.236l-2-5a.375.375 0 01.348-.514h14z" fill="#184460" stroke="#fff" stroke-width=".75" stroke-linejoin="round"/></g><defs><clipPath id="clip0_3240_22178"><path fill="#fff" transform="translate(.5)" d="M0 0h32v32H0z"/></clipPath></defs></symbol><use fill="none" xlink:href="#sprite-box-multiple-parts-color" y="64" width="33" height="32"/><view id="sprite-box-multiple-parts-color" viewBox="0 64 33 32"/><symbol fill="none" id="sprite-box-one-part-color" viewBox="0 0 33 32"><g clip-path="url(#clip0_3240_22330)"><mask id="a" maskUnits="userSpaceOnUse" x="6.5" y="0" width="20" height="20" fill="#000"><path fill="#fff" d="M6.5 0h20v20h-20z"/><path fill-rule="evenodd" clip-rule="evenodd" d="M18 1h-3l-.55 2.567a6.705 6.705 0 00-1.049.435l-2.204-1.427-2.121 2.122L10.502 6.9a6.713 6.713 0 00-.435 1.049L7.5 8.5v3l2.567.55c.116.364.262.715.435 1.049l-1.426 2.204 2.12 2.122 2.205-1.427a6.7 6.7 0 001.05.435L15 19h3l.55-2.567a6.704 6.704 0 001.048-.435l2.204 1.427 2.122-2.122-1.427-2.204c.174-.334.32-.685.435-1.049l2.567-.55v-3l-2.567-.55A6.713 6.713 0 0022.5 6.9l1.426-2.204-2.122-2.122L19.6 4.002a6.708 6.708 0 00-1.049-.435L18 1zm-1.5 11a2 2 0 100-4 2 2 0 000 4z"/></mask><path fill-rule="evenodd" clip-rule="evenodd" d="M18 1h-3l-.55 2.567a6.705 6.705 0 00-1.049.435l-2.204-1.427-2.121 2.122L10.502 6.9a6.713 6.713 0 00-.435 1.049L7.5 8.5v3l2.567.55c.116.364.262.715.435 1.049l-1.426 2.204 2.12 2.122 2.205-1.427a6.7 6.7 0 001.05.435L15 19h3l.55-2.567a6.704 6.704 0 001.048-.435l2.204 1.427 2.122-2.122-1.427-2.204c.174-.334.32-.685.435-1.049l2.567-.55v-3l-2.567-.55A6.713 6.713 0 0022.5 6.9l1.426-2.204-2.122-2.122L19.6 4.002a6.708 6.708 0 00-1.049-.435L18 1zm-1.5 11a2 2 0 100-4 2 2 0 000 4z" fill="#184460"/><path d="M15 1V0a1 1 0 00-.978.79L15 1zm3 0l.978-.21A1 1 0 0018 0v1zm-3.55 2.567l.304.953a1 1 0 00.674-.744l-.978-.21zm-1.049.435l-.543.84a1 1 0 001.003.048l-.46-.888zm-2.204-1.427l.543-.84a1 1 0 00-1.25.133l.707.707zM9.076 4.697l-.707-.707a1 1 0 00-.133 1.25l.84-.543zM10.502 6.9l.888.46a1 1 0 00-.048-1.003l-.84.543zm-.435 1.049l.21.978a1 1 0 00.743-.675l-.953-.303zM7.5 8.5l-.21-.978a1 1 0 00-.79.978h1zm0 3h-1a1 1 0 00.79.978l.21-.978zm2.567.55l.953-.303a1 1 0 00-.743-.675l-.21.978zm.435 1.049l.84.543a1 1 0 00.048-1.003l-.888.46zm-1.426 2.204l-.84-.543a1 1 0 00.133 1.25l.707-.707zm2.12 2.122l-.706.707a1 1 0 001.25.132l-.543-.84zm2.205-1.427l.46-.888a1 1 0 00-1.003.049l.543.84zm1.05.435l.977-.21a1 1 0 00-.674-.743l-.304.953zM15 19l-.979.21A1 1 0 0015 20v-1zm3 0v1a1 1 0 00.977-.79L18 19zm.55-2.567l-.304-.953a1 1 0 00-.674.744l.977.21zm1.048-.435l.543-.84a1 1 0 00-1.003-.048l.46.888zm2.204 1.427l-.543.84a1 1 0 001.25-.133l-.707-.707zm2.122-2.122l.707.707a1 1 0 00.132-1.25l-.84.543zM22.498 13.1l-.888-.46a1 1 0 00.049 1.003l.84-.543zm.435-1.049l-.21-.978a1 1 0 00-.743.675l.953.303zm2.567-.55l.21.978a1 1 0 00.79-.978h-1zm0-3h1a1 1 0 00-.79-.978l-.21.978zm-2.567-.55l-.953.303a1 1 0 00.744.675l.21-.978zM22.5 6.9l-.84-.543a1 1 0 00-.049 1.003l.889-.46zm1.426-2.204l.84.543a1 1 0 00-.133-1.25l-.707.707zm-2.122-2.122l.708-.707a1 1 0 00-1.25-.132l.543.84zM19.6 4.002l-.46.888a1 1 0 001.003-.049l-.543-.84zm-1.049-.435l-.977.21a1 1 0 00.674.743l.303-.953zM15 2h3V0h-3v2zm.428 1.776l.55-2.566-1.956-.42-.55 2.567 1.956.42zM13.861 4.89a5.71 5.71 0 01.893-.37l-.607-1.906a7.642 7.642 0 00-1.205.5l.92 1.776zm-3.207-1.475l2.204 1.426 1.087-1.679-2.205-1.426-1.086 1.679zm-.871 1.989l2.121-2.122-1.414-1.414L8.369 3.99l1.414 1.414zm1.559.954L9.915 4.153 8.236 5.24l1.426 2.204 1.68-1.086zm-.322 1.895c.099-.31.223-.608.37-.892l-1.776-.92a7.707 7.707 0 00-.5 1.206l1.906.606zM7.71 9.478l2.567-.55-.42-1.956-2.566.55.419 1.956zM8.5 11.5v-3h-2v3h2zm1.777-.428l-2.567-.55-.42 1.956 2.568.55.419-1.956zm1.113 1.567a5.708 5.708 0 01-.37-.892l-1.906.606c.134.419.301.822.5 1.206l1.776-.92zm-1.475 3.208l1.427-2.205-1.68-1.086-1.426 2.204 1.68 1.087zm1.989.87l-2.121-2.12-1.414 1.413 2.12 2.122 1.415-1.415zm.954-1.558l-2.204 1.426 1.086 1.68 2.205-1.427-1.087-1.68zm1.896.321a5.713 5.713 0 01-.893-.37l-.92 1.776c.385.199.787.367 1.206.5l.607-1.906zm1.224 3.31l-.55-2.566-1.956.419.55 2.566 1.956-.418zM18 18h-3v2h3v-2zm-.427-1.776l-.55 2.567 1.955.418.55-2.566-1.955-.42zm1.566-1.114a5.713 5.713 0 01-.892.37l.607 1.906c.418-.133.82-.301 1.205-.5l-.92-1.776zm3.208 1.475l-2.205-1.426-1.086 1.679 2.204 1.426 1.087-1.679zm.87-1.989l-2.12 2.122 1.414 1.414 2.121-2.122-1.414-1.414zm-1.558-.954l1.426 2.205 1.68-1.087-1.427-2.204-1.68 1.086zm.321-1.895c-.098.31-.222.608-.37.892l1.777.92c.198-.384.366-.787.5-1.206l-1.907-.606zm3.31-1.225l-2.566.55.419 1.956 2.567-.55-.42-1.956zM24.5 8.5v3h2v-3h-2zm-1.776.428l2.567.55.419-1.956-2.567-.55-.42 1.956zM21.61 7.36c.148.284.272.583.37.892l1.906-.606a7.704 7.704 0 00-.5-1.206l-1.776.92zm1.475-3.208L21.66 6.358l1.679 1.086 1.426-2.204-1.679-1.087zm-1.989-.87l2.122 2.12 1.414-1.413-2.121-2.122-1.415 1.414zm-.954 1.558l2.205-1.426-1.087-1.68-2.204 1.427 1.086 1.68zm-1.895-.321c.31.098.608.223.892.37l.92-1.776a7.706 7.706 0 00-1.205-.5l-.607 1.906zm-1.225-3.31l.55 2.566 1.956-.419-.55-2.567-1.956.42zM17.5 10a1 1 0 01-1 1v2a3 3 0 003-3h-2zm-1-1a1 1 0 011 1h2a3 3 0 00-3-3v2zm-1 1a1 1 0 011-1V7a3 3 0 00-3 3h2zm1 1a1 1 0 01-1-1h-2a3 3 0 003 3v-2z" fill="#fff" mask="url(#a)"/><rect x="3" y="12.5" width="27" height="18" rx="1.5" fill="#184460" stroke="#fff" stroke-linejoin="round"/><rect x="15" y="12.5" width="15" height="18" rx="1.5" fill="#184460" stroke="#fff" stroke-linejoin="round"/><path d="M3.5 12.5a.5.5 0 00-.464.314l-2 5a.5.5 0 00.464.686h11a.5.5 0 00.464-.314l2-5a.5.5 0 00-.464-.686h-11z" fill="#184460" stroke="#fff" stroke-linejoin="round"/><path d="M29.5 12.5a.5.5 0 01.465.314l2 5a.5.5 0 01-.465.686h-14a.5.5 0 01-.464-.314l-2-5a.5.5 0 01.464-.686h14z" fill="#184460" stroke="#fff" stroke-linejoin="round"/></g><defs><clipPath id="clip0_3240_22330"><path fill="#fff" transform="translate(.5)" d="M0 0h32v32H0z"/></clipPath></defs></symbol><use fill="none" xlink:href="#sprite-box-one-part-color" y="96" width="33" height="32"/><view id="sprite-box-one-part-color" viewBox="0 96 33 32"/><symbol fill="none" id="sprite-box-weight-color" viewBox="0 0 49 48"><g clip-path="url(#clip0_728_128224)"><path d="M25.045 4.4a1.795 1.795 0 00-1.985 0l-5.954 3.39 16.473 9.573c.397.2.397.599.397.599v4.388c0 .598-.397 1.396-.992 1.595l-1.985 1.197c-.397.2-.992 0-.992-.598v-4.588c0-.399-.199-.598-.397-.797L13.534 9.983l-5.756 2.992c-.595.598-.992.997-.992 1.795v13.163c.397-1.197 1.587-2.194 2.977-2.194h4.763c1.985 0 3.374 1.795 2.977 3.79l-.198.997c1.786 1.396 2.778 3.39 2.778 6.183a7.217 7.217 0 01-1.19 3.989l4.167 2.393c.596.399 1.39.399 1.985 0l15.282-8.776c.596-.398.992-.997.992-1.795V14.77c0-.798-.397-1.397-.992-1.795L25.045 4.399z" fill="#184460"/><path d="M9.763 26.737c-1.389 0-2.183 1.197-1.984 2.394l.198.997c.199.399 0 .798-.397.997C5.992 32.123 5 34.117 5 36.311c.198 3.989 3.374 7.18 7.145 7.18 3.77 0 6.946-3.191 6.946-6.98 0-2.195-.992-3.99-2.58-5.386-.397-.2-.397-.598-.397-.997l.199-.997c.397-1.197-.596-2.394-1.985-2.394H9.763z" fill="#184460"/><path d="M10.557 28.333c-.596 0-1.191.599-.993 1.396.199.4.596.599.993.599h3.175c.397 0 .794-.2.993-.599.198-.598-.199-1.396-.993-1.396h-3.175zm1.902 9.857l-1.932-2.416 1.809-2.136H11.14l-1.61 2.034v-2.034h-.97v4.552h.97v-1.399l.354-.423 1.38 1.822h1.194zm1.586 1.338c.812 0 1.781-.307 1.781-1.563v-3.071h-.874v.423a1.27 1.27 0 00-1.017-.505c-.832 0-1.453.6-1.453 1.679 0 1.099.628 1.679 1.453 1.679.403 0 .758-.191 1.017-.519v.334c0 .649-.491.833-.907.833-.417 0-.765-.116-1.031-.41l-.389.628c.416.362.853.492 1.42.492zm.163-2.13c-.491 0-.832-.34-.832-.907s.341-.908.832-.908c.287 0 .601.157.744.375v1.065c-.143.212-.457.375-.744.375z" fill="#fff"/></g><defs><clipPath id="clip0_728_128224"><path fill="#fff" transform="translate(5 4)" d="M0 0h36.32v39.69H0z"/></clipPath></defs></symbol><use fill="none" xlink:href="#sprite-box-weight-color" y="128" width="49" height="48"/><view id="sprite-box-weight-color" viewBox="0 128 49 48"/><symbol fill="none" id="sprite-calculator-white-color" viewBox="0 0 32 32"><rect x="6" y="2.999" width="20" height="26" rx="3" stroke="#fff" stroke-linecap="round" stroke-linejoin="round"/><rect x="8" y="10.999" width="6" height="16" rx="1" transform="rotate(-90 8 10.999)" stroke="#fff" stroke-linecap="round" stroke-linejoin="round"/><rect x="20" y="26.999" width="8" height="4" rx="1" transform="rotate(-90 20 26.999)" stroke="#fff" stroke-linecap="round" stroke-linejoin="round"/><rect x="14" y="21.999" width="3" height="4" rx="1" transform="rotate(-90 14 21.999)" stroke="#fff" stroke-linecap="round" stroke-linejoin="round"/><rect x="8" y="21.999" width="3" height="4" rx="1" transform="rotate(-90 8 21.999)" stroke="#fff" stroke-linecap="round" stroke-linejoin="round"/><rect x="14" y="26.999" width="3" height="4" rx="1" transform="rotate(-90 14 26.999)" stroke="#fff" stroke-linecap="round" stroke-linejoin="round"/><rect x="8" y="26.999" width="3" height="4" rx="1" transform="rotate(-90 8 26.999)" stroke="#fff" stroke-linecap="round" stroke-linejoin="round"/><rect x="20" y="16.999" width="3" height="4" rx="1" transform="rotate(-90 20 16.999)" stroke="#fff" stroke-linecap="round" stroke-linejoin="round"/><rect x="14" y="16.999" width="3" height="4" rx="1" transform="rotate(-90 14 16.999)" stroke="#fff" stroke-linecap="round" stroke-linejoin="round"/><rect x="8" y="16.999" width="3" height="4" rx="1" transform="rotate(-90 8 16.999)" stroke="#fff" stroke-linecap="round" stroke-linejoin="round"/></symbol><use fill="none" xlink:href="#sprite-calculator-white-color" y="176" width="32" height="32"/><view id="sprite-calculator-white-color" viewBox="0 176 32 32"/><symbol fill="none" id="sprite-cheap-white-color" viewBox="0 0 33 32"><path d="M19.616 24.5l1.505 2.5h2.508c2.007-3 4.515-6.5 4.515-10 0-1.128-.283-5.927-4.682-8.242M15.102 24.5L13.597 27h-2.508l-5.936-5.916a2 2 0 00-1.412-.584H2.56L2.059 16l2.007-.5c.585-1.093 1.714-2.76 3.47-4.29-.229-.953-1.366-2.814-1.965-3.71l.998-.124c1.966-.245 3.96.095 5.731.978m.795-.218c-1.011.3-1.934.692-2.772 1.141" stroke="#fff" stroke-linecap="round" stroke-linejoin="round"/><ellipse cx="18.111" cy="4.499" rx="3.511" ry="3.5" stroke="#fff" stroke-linecap="round" stroke-linejoin="round"/><path d="M9.584 14.499c0 .552-.45 1-1.004 1a1.002 1.002 0 01-1.003-1c0-.552.45-1 1.003-1 .555 0 1.004.448 1.004 1z" fill="#fff"/><path d="M22.023 23.499c-1.267.619-3.002 1-4.915 1-1.833 0-3.501-.35-4.752-.923m9.718-12.077c-1.367-.94-3.091-1.5-4.966-1.5-1.26 0-2.45.253-3.511.704m14.547 5.761c.295.17.638.268 1.003.268A1.998 1.998 0 1030.15 13" stroke="#fff" stroke-linecap="round" stroke-linejoin="round"/></symbol><use fill="none" xlink:href="#sprite-cheap-white-color" y="208" width="33" height="32"/><view id="sprite-cheap-white-color" viewBox="0 208 33 32"/><symbol fill="none" id="sprite-eu-icon-color" viewBox="0 0 16 16"><path d="M7.946 0l.24.744h.776l-.628.46.24.745-.628-.46-.628.46.24-.745-.628-.46h.776L7.946 0zm0 14.051l.24.745h.776l-.628.46.24.744-.628-.46-.628.46.24-.744-.628-.46h.776l.24-.745zM11.77 1.245l.24.745h.777l-.628.46.24.744-.628-.46-.628.46.24-.744-.628-.46h.776l.24-.745zm2.61 2.596l.239.744h.776l-.628.46.24.745-.628-.46-.628.46.24-.744-.628-.46h.776l.24-.745zm.062 6.559l.24.744h.776l-.628.46.24.744-.628-.46-.628.46.24-.744-.628-.46h.776l.24-.744zM1.609 3.841l.24.744h.775l-.627.46.24.745-.628-.46-.628.46.24-.744-.628-.46h.776l.24-.745zm13.375 3.128l.24.744H16l-.628.46.24.745-.628-.46-.628.46.24-.745-.628-.46h.776l.24-.744zm-13.968 0l.24.744h.776l-.628.46.24.745-.628-.46-.628.46.24-.745L0 7.713h.776l.24-.744zm.509 3.431l.24.744h.776l-.628.46.24.744-.628-.46-.628.46.24-.744-.628-.46h.776l.24-.744zm10.358 2.706l.24.745h.776l-.628.46.24.744-.628-.46-.628.46.24-.744-.628-.46h.776l.24-.745zM4.247 1.245l.24.745h.776l-.628.46.24.744-.628-.46-.627.46.24-.744-.629-.46h.776l.24-.745zm-.282 11.814l.24.744h.776l-.628.46.24.744-.628-.46-.628.46.24-.744-.628-.46h.776l.24-.744z" fill="#F8D12E"/></symbol><use fill="none" xlink:href="#sprite-eu-icon-color" y="240" width="16" height="16"/><view id="sprite-eu-icon-color" viewBox="0 240 16 16"/><symbol fill="none" id="sprite-expert-check-color" viewBox="0 0 30 31"><path d="M14.466 17.398a.57.57 0 011.052 0l.526 1.256 1.053 2.51 2.731.218 1.366.109c.501.04.708.667.325.993l-1.04.885-2.082 1.769.636 2.645.318 1.323c.118.49-.42.875-.851.614l-1.17-.71-2.338-1.417-2.338 1.418-1.17.709c-.43.26-.968-.124-.85-.614l.317-1.323.636-2.645-2.08-1.77-1.041-.884c-.384-.326-.177-.953.325-.993l1.365-.109 2.732-.217 1.052-2.511.526-1.256z" fill="#73D400"/><path d="M14.58 18.874a.444.444 0 01.819 0l.409.977.818 1.953 2.125.169 1.062.084a.44.44 0 01.253.773l-.81.688-1.618 1.376.494 2.057.248 1.03c.091.38-.327.68-.662.477l-.91-.552-1.819-1.102-1.818 1.102-.91.552a.443.443 0 01-.662-.478l.248-1.029.494-2.057-1.618-1.376-.81-.688a.44.44 0 01.253-.773l1.062-.084 2.125-.17.818-1.952.41-.977zm9.545.796a.35.35 0 01.647 0l.323.77.646 1.543 1.678.133.838.067c.309.024.436.41.2.61l-.639.543-1.278 1.087.39 1.625.196.812a.35.35 0 01-.523.377l-.718-.435-1.437-.87-1.436.87-.718.435c-.265.16-.595-.076-.523-.377l.195-.812.391-1.625-1.278-1.087-.64-.543a.348.348 0 01.2-.61l.84-.067 1.677-.133.646-1.542.323-.772z" fill="#131C20"/><path d="M5.207 19.67a.35.35 0 01.646 0l.323.77.647 1.543 1.677.133.839.067c.308.024.435.41.2.61l-.64.543-1.278 1.087.391 1.625.195.812c.073.301-.258.538-.523.377l-.718-.435-1.436-.87-1.436.87-.718.435c-.265.16-.595-.076-.523-.377l.195-.812.39-1.625-1.278-1.087-.639-.543a.348.348 0 01.2-.61l.839-.067 1.677-.133.647-1.542.323-.772zm15.059-6.554c0-2.88-2.361-5.224-5.264-5.224-2.902 0-5.264 2.344-5.264 5.224v2.48c0 .692.56 1.252 1.252 1.252h8.024c.692 0 1.252-.56 1.252-1.251v-2.48z" fill="#131C20"/><path d="M20.266 5.653c0-2.88-2.361-5.224-5.264-5.224-2.902 0-5.264 2.343-5.264 5.224 0 2.88 2.362 5.225 5.264 5.225s5.264-2.344 5.264-5.225z" fill="#73D400"/><path d="M18.76 5.653c0-2.058-1.687-3.732-3.76-3.732-2.073 0-3.76 1.674-3.76 3.732 0 2.057 1.687 3.732 3.76 3.732 2.073 0 3.76-1.675 3.76-3.732z" fill="#131C20"/></symbol><use fill="none" xlink:href="#sprite-expert-check-color" y="256" width="30" height="31"/><view id="sprite-expert-check-color" viewBox="0 256 30 31"/><symbol fill="none" id="sprite-de-color" viewBox="0 0 24 24"><path fill-rule="evenodd" clip-rule="evenodd" d="M0 21h24v-6H0v6z" fill="#FEDC36"/><path fill-rule="evenodd" clip-rule="evenodd" d="M0 15h24V9H0v6z" fill="#FF1612"/><path fill-rule="evenodd" clip-rule="evenodd" d="M0 9h24V3H0v6z" fill="#000"/></symbol><use fill="none" xlink:href="#sprite-de-color" y="287" width="24" height="24"/><view id="sprite-de-color" viewBox="0 287 24 24"/><symbol fill="none" id="sprite-gb-color" viewBox="0 0 24 24"><path fill-rule="evenodd" clip-rule="evenodd" d="M0 9.328v-3.36l5.039 3.36H0zm0 8.617v-3.36h5.039L0 17.945zm9.964 1.97H2.953l7.01-4.676v4.675zm10.954 0h-7.01v-4.676l7.01 4.675zm2.953-5.33v3.36l-5.04-3.36h5.04zm0-8.617v3.36h-5.04l5.04-3.36zM13.907 4h7.01l-7.01 4.674V4zM2.953 4h7.01v4.674L2.954 4z" fill="#0437A0"/><path fill-rule="evenodd" clip-rule="evenodd" d="M23.87 17.945l-5.038-3.36h5.039V9.328h-5.04l5.04-3.36V4h-2.953l-7.01 4.674V4H9.963v4.674L2.953 4H0v1.968l5.04 3.36H0v5.257h5.04L0 17.945v1.968h2.953l7.01-4.674v4.674h3.944v-4.674l7.01 4.674h2.954v-1.968z" fill="#F4F4F4"/><path fill-rule="evenodd" clip-rule="evenodd" d="M6.885 14.585L0 19.175v.74h1.107l7.992-5.33H6.885zm2.214-5.257L1.107 4H0v.738l6.885 4.59h2.214zm7.887 0l6.885-4.59V4h-1.108l-7.992 5.328h2.215zm6.885 9.847l-6.885-4.59h-2.215l7.992 5.33h1.108v-.74zM13.166 4v6.316h10.705v3.283H13.166v6.315h-2.462V13.6H0v-3.283h10.704V4h2.462z" fill="#FF1612"/></symbol><use fill="none" xlink:href="#sprite-gb-color" y="311" width="24" height="24"/><view id="sprite-gb-color" viewBox="0 311 24 24"/><symbol fill="none" id="sprite-no-color" viewBox="0 0 24 24"><path fill-rule="evenodd" clip-rule="evenodd" d="M0 10.047h6.684V4H0v6.047zm10.503 0h13.368V4H10.503v6.047zm0 9.867h13.368v-6.048H10.503v6.048zM0 19.914h6.684v-6.048H0v6.048z" fill="#FF1612"/><path fill-rule="evenodd" clip-rule="evenodd" d="M7.639 4h-.955v6.047H0v.955h7.639V4zm16.232 7.002v-.955H10.503V4h-.955v7.002h14.323zM9.548 19.914h.955v-6.048h13.368v-.954H9.548v7.002zm-2.864 0h.955v-7.002H0v.954h6.684v6.048z" fill="#F4F4F4"/><path fill-rule="evenodd" clip-rule="evenodd" d="M0 12.912h7.639v7.002h1.91v-7.002H23.87v-1.91H9.548V4h-1.91v7.002H0v1.91z" fill="#0437A0"/></symbol><use fill="none" xlink:href="#sprite-no-color" y="335" width="24" height="24"/><view id="sprite-no-color" viewBox="0 335 24 24"/><symbol fill="none" id="sprite-load_index-white-color" viewBox="0 0 32 32"><circle cx="16" cy="6.999" r="2" fill="#fff"/><path d="M20 9.999l-.4-.3a.5.5 0 00.4.8v-.5zm-8 0v.5a.5.5 0 00.4-.8l-.4.3zm-6.243 2.302l.487.116-.487-.116zm-2.871 12l.486.116-.486-.116zm26.23 0l-.487.116.486-.116zm-2.872-12l.486-.117-.486.117zM20.5 6.999a4.478 4.478 0 01-.9 2.7l.8.6a5.479 5.479 0 001.1-3.3h-1zm-4.5-4.5a4.5 4.5 0 014.5 4.5h1a5.5 5.5 0 00-5.5-5.5v1zm-4.5 4.5a4.5 4.5 0 014.5-4.5v-1a5.5 5.5 0 00-5.5 5.5h1zm.9 2.7a4.478 4.478 0 01-.9-2.7h-1c0 1.238.41 2.381 1.1 3.3l.8-.6zm-3.725.8H12v-1H8.675v1zm-2.431 1.918a2.5 2.5 0 012.43-1.918v-1a3.5 3.5 0 00-3.403 2.685l.973.233zm-2.872 12l2.872-12-.973-.233-2.872 12 .973.233zM5.803 27.5a2.5 2.5 0 01-2.431-3.082l-.973-.233A3.5 3.5 0 005.803 28.5v-1zm20.395 0H5.803v1h20.395v-1zm2.431-3.082a2.5 2.5 0 01-2.431 3.082v1a3.5 3.5 0 003.404-4.315l-.973.233zm-2.872-12l2.872 12 .973-.233-2.872-12-.973.233zM23.326 10.5a2.5 2.5 0 012.431 1.918l.973-.233A3.5 3.5 0 0023.326 9.5v1zm-3.325 0h3.325v-1h-3.325v1zm-4.149 12.635l-3.396-4.248 3.18-3.756h-2.1l-2.832 3.576v-3.576H9v8.004h1.704v-2.46l.624-.744 2.425 3.204h2.1z" fill="#fff"/><path d="M19.943 23.291c1.452 0 2.592-.6 3.408-1.512v-3.072h-3.816v1.488h2.112v.96c-.324.3-.996.612-1.704.612-1.452 0-2.508-1.116-2.508-2.628s1.056-2.628 2.508-2.628c.852 0 1.536.48 1.896 1.044l1.416-.768c-.6-.948-1.644-1.788-3.312-1.788-2.34 0-4.26 1.608-4.26 4.14 0 2.52 1.92 4.152 4.26 4.152z" fill="#fff"/></symbol><use fill="none" xlink:href="#sprite-load_index-white-color" y="359" width="32" height="32"/><view id="sprite-load_index-white-color" viewBox="0 359 32 32"/><symbol fill="none" id="sprite-payment-color" viewBox="0 0 73 33"><path fill-rule="evenodd" clip-rule="evenodd" d="M40.982 9.033h3.995c1.337 0 2.344.358 2.912 1.035.517.616.688 1.495.51 2.614-.397 2.559-1.915 3.85-4.547 3.85h-1.264a.558.558 0 00-.548.474l-.459 2.946a.39.39 0 01-.384.332h-2.05a.331.331 0 01-.252-.118.341.341 0 01-.076-.272l1.614-10.385a.559.559 0 01.55-.476zm2.084 5.248c1.059 0 2.154 0 2.372-1.454.08-.51.016-.88-.194-1.13-.35-.415-1.032-.415-1.753-.415h-.276a.334.334 0 00-.33.284l-.422 2.715h.603z" fill="#009CDE"/><path fill-rule="evenodd" clip-rule="evenodd" d="M26.512 12.78h1.913c.096 0 .19.043.252.118a.34.34 0 01.077.272l-1.035 6.64a.558.558 0 01-.548.474h-1.722a.331.331 0 01-.254-.118.341.341 0 01-.076-.272l.086-.539s-.945 1.11-2.648 1.11c-.993 0-1.826-.29-2.41-.986-.635-.758-.895-1.844-.712-2.98.352-2.277 2.157-3.902 4.27-3.902.922 0 1.846.205 2.26.814l.134.196.083-.542a.335.335 0 01.33-.285zM12.489 9.033h3.995c1.337 0 2.344.358 2.912 1.035.517.616.688 1.495.51 2.614-.397 2.559-1.915 3.85-4.547 3.85h-1.264a.557.557 0 00-.549.475l-.436 2.802a.558.558 0 01-.548.475h-1.907a.331.331 0 01-.253-.118.34.34 0 01-.076-.272L11.94 9.509a.558.558 0 01.548-.476zm2.083 5.248c1.06 0 2.155 0 2.373-1.454.08-.51.016-.88-.194-1.13-.352-.415-1.032-.415-1.754-.415h-.276a.334.334 0 00-.329.284l-.423 2.714h.603zm11.187 2.274c-.186 1.108-1.053 1.853-2.16 1.853-.554 0-.999-.182-1.284-.524-.283-.34-.39-.824-.3-1.362.172-1.099 1.054-1.866 2.144-1.866.543 0 .984.182 1.275.528.293.348.409.835.325 1.371z" fill="#003087"/><path fill-rule="evenodd" clip-rule="evenodd" d="M55.005 12.78h1.913a.33.33 0 01.253.118.34.34 0 01.076.272l-1.035 6.64a.558.558 0 01-.549.474h-1.721a.33.33 0 01-.253-.118.34.34 0 01-.075-.272l.085-.539s-.945 1.11-2.649 1.11c-.992 0-1.825-.29-2.409-.986-.635-.758-.895-1.844-.713-2.98.352-2.277 2.157-3.902 4.27-3.902.922 0 1.846.205 2.26.814l.134.196.083-.542a.335.335 0 01.33-.285zm-2.912 5.628c1.106 0 1.973-.745 2.159-1.853.084-.536-.032-1.023-.325-1.371-.291-.346-.732-.528-1.275-.528-1.09 0-1.972.767-2.144 1.866-.09.538.017 1.022.3 1.362.285.342.73.524 1.285.524z" fill="#009CDE"/><path fill-rule="evenodd" clip-rule="evenodd" d="M38.613 12.78H36.69a.551.551 0 00-.459.247l-2.652 3.96-1.124-3.805a.557.557 0 00-.532-.402h-1.89a.332.332 0 00-.271.141.341.341 0 00-.044.306l2.116 6.3-1.99 2.85a.342.342 0 00-.024.35.333.333 0 00.295.182h1.921c.182 0 .352-.09.456-.242l6.394-9.357a.341.341 0 00.022-.349.332.332 0 00-.295-.18z" fill="#003087"/><path fill-rule="evenodd" clip-rule="evenodd" d="M59.172 9.319l-1.64 10.575a.341.341 0 00.076.272.331.331 0 00.254.119h1.648a.558.558 0 00.549-.476l1.617-10.386a.34.34 0 00-.076-.272.33.33 0 00-.254-.118h-1.845a.334.334 0 00-.329.286" fill="#009CDE"/></symbol><use fill="none" xlink:href="#sprite-payment-color" y="391" width="73" height="33"/><view id="sprite-payment-color" viewBox="0 391 73 33"/><symbol fill="none" id="sprite-paypal-color" viewBox="0 0 73 18"><g clip-path="url(#clip0_203_64567)" fill-rule="evenodd" clip-rule="evenodd"><path d="M6.8 4.271h4.95c2.7 0 3.6 1.373 3.45 3.356-.3 3.356-2.25 5.186-4.8 5.186H9.05c-.3 0-.6.305-.75.916l-.6 3.813c0 .305-.15.458-.3.458h-3c-.3 0-.45-.153-.3-.763L6.05 5.034c0-.61.15-.763.75-.763z" fill="#00ADEE"/><path d="M28.1 3.966c1.65 0 3.15.916 3 3.204-.3 2.745-1.65 4.27-3.9 4.27h-1.95c-.3 0-.45.306-.45.764l-.45 2.44c0 .305-.3.61-.45.61h-1.8c-.3 0-.45-.152-.3-.61l1.5-9.915c0-.458.3-.61.6-.61l4.2-.153zm-3 5.34h1.5c.9 0 1.5-.763 1.65-1.831 0-.763-.45-1.22-1.2-1.22H25.7l-.6 3.05zm10.95 5.033c.15-.152.3-.305.3 0v.458c0 .305 0 .305.3.305h1.65c.3 0 .45-.153.45-.61l1.05-6.407c0-.305 0-.458-.3-.458h-1.8c-.15 0-.3.153-.3.305v.458c0 .153-.15.305-.15 0-.3-.763-1.05-1.068-2.1-1.068-2.55 0-4.2 1.983-4.35 4.424-.3 2.136 1.05 3.661 2.85 3.661 1.2 0 1.8-.458 2.4-1.068zm-1.35-.915c-1.05 0-1.8-.915-1.65-1.983.15-1.068 1.2-1.983 2.25-1.983s1.8.915 1.65 1.983c-.15 1.068-1.2 1.983-2.25 1.983zm8.25-5.644H41.3c-.3 0-.45.305-.3.61l2.1 6.102-2.1 2.745c-.15.306 0 .458.15.458h1.8c.3 0 .45 0 .6-.305l6.3-9.153c.15-.305.15-.457-.15-.457h-1.8c-.3 0-.45.152-.6.305l-2.7 3.813-1.2-3.813c0-.305-.15-.305-.45-.305z" fill="#03428D"/><path d="M56.45 3.966c1.65 0 3.15.915 3 3.203-.3 2.746-1.65 4.272-3.9 4.272H53.6c-.3 0-.45.305-.45.762l-.45 2.441c0 .305-.3.61-.45.61h-1.8c-.3 0-.45-.152-.3-.61l1.5-9.915c0-.458.3-.61.6-.61l4.2-.153zm-3 5.339h1.5c.9 0 1.5-.763 1.65-1.83 0-.763-.45-1.22-1.2-1.22h-1.35l-.6 3.05zm10.95 5.034c.15-.153.3-.305.3 0v.457c0 .306 0 .306.3.306h1.5c.3 0 .45-.153.45-.61L68 8.084c0-.305 0-.458-.3-.458h-1.8c-.15 0-.3.153-.3.305v.458c0 .152-.15.305-.15 0-.3-.763-1.05-1.068-2.1-1.068-2.55 0-4.2 1.983-4.35 4.424-.15 1.983 1.2 3.356 3 3.356 1.2.305 1.8-.153 2.4-.763zm-1.35-.915c-1.05 0-1.8-.916-1.65-1.983.15-1.068 1.2-1.983 2.25-1.983s1.8.915 1.65 1.983c-.15 1.067-1.2 1.983-2.25 1.983zm7.5 1.678H68.6c-.15 0-.3-.153-.3-.306L69.95 4.12c0-.153.15-.306.3-.306h1.95c.15 0 .3.153.3.306l-1.65 10.678c0 .305-.15.305-.3.305z" fill="#00ADEE"/><path d="M3.65 0H8.6c1.35 0 3 0 4.2 1.068.75.61 1.05 1.678 1.05 2.898-.3 3.814-2.55 5.95-5.55 5.95H5.75c-.45 0-.75.304-.75 1.067l-.75 4.424c0 .305-.15.457-.45.457h-3c-.3-.152-.3-.305-.3-.915L2.75.915c0-.61.3-.915.9-.915z" fill="#03428D"/><path d="M5 10.525l.9-5.491c.15-.458.3-.763.9-.763h4.95c.75 0 1.5.153 1.95.305-.45 3.356-2.7 5.34-5.55 5.34h-2.4c-.3 0-.6.152-.75.61z" fill="#0E3179"/></g><defs><clipPath id="clip0_203_64567"><path fill="#fff" transform="translate(.5)" d="M0 0h72v18H0z"/></clipPath></defs></symbol><use fill="none" xlink:href="#sprite-paypal-color" y="424" width="73" height="18"/><view id="sprite-paypal-color" viewBox="0 424 73 18"/><symbol fill="none" id="sprite-plus-icon-black-color" viewBox="0 0 65 15"><path fill-rule="evenodd" clip-rule="evenodd" d="M3.848 10.028c.5 0 .906.406.906.906v3.512h4.015V6.982c0-.5-.406-.906-.907-.906H0v3.952h3.848z" fill="#73D400"/><path fill-rule="evenodd" clip-rule="evenodd" d="M10.105 5.418a.906.906 0 01-.906-.906V1H5.184v7.464c0 .5.406.906.906.906h7.863V5.418h-3.848z" fill="#131C20"/><path d="M26.894 2.015c1.012 0 1.887.168 2.626.505.75.337 1.327.816 1.729 1.436.402.62.604 1.353.604 2.201 0 .838-.202 1.571-.604 2.202-.402.62-.979 1.098-1.729 1.435-.74.326-1.614.49-2.626.49h-2.3v3.147h-2.641V2.015h4.941zm-.146 6.116c.793 0 1.397-.169 1.81-.506.413-.348.62-.837.62-1.468 0-.641-.207-1.13-.62-1.468-.413-.348-1.017-.521-1.81-.521h-2.153V8.13h2.153zm6.991-6.116h2.642v9.263h5.724v2.153H33.74V2.015zM48.51 13.627c-1.63 0-2.902-.451-3.816-1.354-.902-.902-1.353-2.19-1.353-3.865V2.015h2.642V8.31c0 2.044.848 3.066 2.544 3.066.826 0 1.457-.244 1.892-.734.435-.5.652-1.277.652-2.332V2.015h2.61v6.393c0 1.674-.457 2.963-1.37 3.865-.903.903-2.17 1.354-3.8 1.354zm11.533 0c-.903 0-1.778-.12-2.626-.359-.837-.25-1.511-.57-2.022-.962l.897-1.99c.489.359 1.07.647 1.745.865a6.554 6.554 0 002.022.326c.75 0 1.305-.109 1.664-.326.359-.229.538-.528.538-.897a.819.819 0 00-.326-.67 2.235 2.235 0 00-.816-.44 15.346 15.346 0 00-1.337-.358c-.87-.207-1.582-.413-2.137-.62a3.533 3.533 0 01-1.435-.995c-.391-.457-.587-1.065-.587-1.827 0-.663.18-1.26.538-1.794.359-.543.897-.973 1.615-1.288.728-.315 1.614-.473 2.658-.473.729 0 1.441.087 2.137.26a6.312 6.312 0 011.826.751l-.815 2.006c-1.055-.598-2.11-.897-3.164-.897-.74 0-1.288.12-1.647.359-.348.24-.522.555-.522.946 0 .391.201.685.603.88.414.186 1.039.37 1.876.555.87.207 1.582.413 2.136.62a3.475 3.475 0 011.42.979c.402.445.603 1.049.603 1.81 0 .652-.185 1.25-.555 1.794-.358.533-.902.957-1.63 1.272-.73.315-1.615.473-2.66.473z" fill="#131C20"/></symbol><use fill="none" xlink:href="#sprite-plus-icon-black-color" y="442" width="65" height="15"/><view id="sprite-plus-icon-black-color" viewBox="0 442 65 15"/><symbol fill="none" id="sprite-plus-icon-color" viewBox="0 0 64 16"><path fill-rule="evenodd" clip-rule="evenodd" d="M3.847 10.14c.5 0 .906.406.906.907v3.511h4.015V7.095c0-.5-.406-.907-.907-.907H0v3.952h3.848z" fill="#73D400"/><path fill-rule="evenodd" clip-rule="evenodd" d="M10.104 5.53a.906.906 0 01-.906-.906V1.112H5.184v7.464c0 .5.405.906.906.906h7.862V5.53h-3.848z" fill="#fff"/><path d="M25.084 2.083c1.012 0 1.887.169 2.626.506.75.337 1.327.815 1.729 1.435.402.62.603 1.354.603 2.202 0 .837-.2 1.571-.603 2.202-.402.62-.979 1.098-1.729 1.435-.74.326-1.614.49-2.626.49h-2.3V13.5h-2.641V2.083h4.941zM24.938 8.2c.793 0 1.397-.168 1.81-.505.413-.348.62-.837.62-1.468 0-.641-.207-1.13-.62-1.468-.413-.348-1.017-.522-1.81-.522h-2.153V8.2h2.153zm6.991-6.117h2.642v9.264h5.724V13.5H31.93V2.083zM46.7 13.696c-1.63 0-2.903-.451-3.816-1.354-.902-.902-1.353-2.19-1.353-3.865V2.083h2.642V8.38c0 2.044.848 3.066 2.544 3.066.826 0 1.457-.245 1.892-.734.435-.5.652-1.277.652-2.332V2.083h2.61v6.394c0 1.674-.457 2.963-1.37 3.865-.903.902-2.17 1.354-3.8 1.354zm11.533 0c-.903 0-1.778-.12-2.626-.36-.837-.25-1.511-.57-2.022-.961l.897-1.99c.489.359 1.07.647 1.745.864a6.553 6.553 0 002.022.326c.75 0 1.305-.108 1.664-.326.359-.228.538-.527.538-.897a.819.819 0 00-.326-.668 2.235 2.235 0 00-.816-.44 15.336 15.336 0 00-1.337-.36c-.87-.206-1.582-.413-2.137-.62A3.533 3.533 0 0154.4 7.27c-.391-.457-.587-1.066-.587-1.827 0-.663.18-1.261.538-1.794.359-.544.897-.973 1.615-1.288.728-.316 1.614-.473 2.658-.473.729 0 1.44.087 2.137.26a6.312 6.312 0 011.826.75l-.815 2.007c-1.055-.598-2.11-.897-3.164-.897-.74 0-1.288.12-1.647.359-.348.239-.522.554-.522.946 0 .391.2.685.603.88.413.185 1.039.37 1.876.555.87.207 1.582.413 2.136.62a3.476 3.476 0 011.42.978c.402.446.603 1.05.603 1.81 0 .653-.185 1.251-.555 1.795-.359.532-.902.957-1.63 1.272-.73.315-1.615.473-2.66.473z" fill="#fff"/></symbol><use fill="none" xlink:href="#sprite-plus-icon-color" y="457" width="64" height="16"/><view id="sprite-plus-icon-color" viewBox="0 457 64 16"/><symbol fill="none" id="sprite-plus-icon-dark-color" viewBox="0 0 75 18"><path fill-rule="evenodd" clip-rule="evenodd" d="M4.428 11.865c.584 0 1.057.473 1.057 1.057v3.95h4.632V8.443c0-.584-.473-1.057-1.057-1.057H0v4.479h4.428z" fill="#73D400"/><path fill-rule="evenodd" clip-rule="evenodd" d="M11.67 6.64a1.057 1.057 0 01-1.057-1.057v-3.95H5.98v8.429c0 .584.473 1.057 1.057 1.057h9.06V6.64H11.67z" fill="#131C20"/><path d="M31.03 2.783c1.167 0 2.177.19 3.03.573.866.382 1.53.924 1.995 1.626.464.703.696 1.535.696 2.496 0 .949-.232 1.78-.696 2.495-.465.702-1.13 1.245-1.995 1.627-.853.37-1.863.554-3.03.554h-2.653v3.568h-3.049V2.782h5.702zm-.17 6.931c.917 0 1.613-.19 2.09-.573.476-.394.715-.948.715-1.663 0-.727-.239-1.282-.715-1.664-.477-.394-1.173-.591-2.09-.591h-2.483v4.491h2.484zm8.068-6.931h3.048v10.499h6.605v2.44h-9.654V2.782zm17.044 13.161c-1.882 0-3.35-.512-4.404-1.535-1.04-1.023-1.561-2.483-1.561-4.38V2.783h3.048v7.135c0 2.316.979 3.475 2.936 3.475.953 0 1.681-.278 2.183-.832.502-.567.752-1.448.752-2.643V2.783h3.011v7.246c0 1.897-.526 3.357-1.58 4.38-1.041 1.023-2.503 1.534-4.385 1.534zm13.306 0c-1.04 0-2.05-.136-3.03-.407-.965-.284-1.743-.647-2.333-1.09l1.035-2.256c.565.407 1.236.733 2.014.98a7.69 7.69 0 002.333.37c.866 0 1.506-.124 1.92-.37.414-.259.62-.598.62-1.017a.922.922 0 00-.376-.758c-.238-.21-.552-.375-.94-.499a18.17 18.17 0 00-1.544-.406c-1.003-.234-1.825-.469-2.465-.703a4.078 4.078 0 01-1.656-1.127c-.452-.518-.677-1.208-.677-2.07 0-.752.207-1.43.62-2.034.415-.616 1.036-1.103 1.864-1.46.84-.357 1.863-.536 3.067-.536.84 0 1.662.099 2.465.296.803.197 1.506.48 2.108.85l-.941 2.274c-1.217-.678-2.434-1.017-3.65-1.017-.854 0-1.487.136-1.901.407-.402.27-.603.628-.603 1.072 0 .443.233.776.697.998.476.21 1.198.419 2.164.628 1.003.234 1.825.469 2.465.703.64.234 1.186.603 1.637 1.109.464.505.697 1.189.697 2.051a3.5 3.5 0 01-.64 2.034c-.414.604-1.042 1.084-1.882 1.442-.84.357-1.863.536-3.068.536z" fill="#131C20"/></symbol><use fill="none" xlink:href="#sprite-plus-icon-dark-color" y="473" width="75" height="18"/><view id="sprite-plus-icon-dark-color" viewBox="0 473 75 18"/><symbol fill="none" id="sprite-ready-to-be-shipped-color" viewBox="0 0 31 27"><path fill="#131C20" fill-rule="evenodd" d="M13.226 13.914V24.31l8.18-1.571v-5.066c0-.212.183-.377.39-.353l1.007.158c.177.02.311.172.311.353v5.884a.354.354 0 01-.277.348l-8.954 1.948a3.12 3.12 0 01-1.314.003l-8.858-1.886a.354.354 0 01-.278-.338l-.153-5.977a.353.353 0 01.32-.362l7.524-.67a.351.351 0 00.294-.218l1.133-2.785c.147-.36.675-.254.675.135zM3.195 10.51L.833 15.617a.354.354 0 00.353.503l8.868-.906a.351.351 0 00.285-.21L13.193 8.5l-9.744 1.811a.351.351 0 00-.254.199zm9.998-2.01l3.019 6.708a.351.351 0 00.29.207l8.852.72a.354.354 0 00.347-.501l-2.308-5.121a.352.352 0 00-.257-.202L13.193 8.5z" clip-rule="evenodd"/><ellipse cx="24.266" cy="6.891" fill="#73D400" rx="6.387" ry="6.463"/><ellipse cx="24.265" cy="6.891" fill="#131C20" rx="5.109" ry="5.17"/><path fill="#73D400" fill-rule="evenodd" d="M26.726 4.307a.698.698 0 00-.52.235l-2.74 2.997-1.141-1.25a.699.699 0 00-.52-.234.699.699 0 00-.518.235.837.837 0 00-.215.567c0 .214.077.416.215.568l1.661 1.817a.698.698 0 00.519.235c.196 0 .38-.084.518-.235l3.26-3.565a.858.858 0 000-1.135.698.698 0 00-.52-.235z" clip-rule="evenodd"/></symbol><use fill="none" xlink:href="#sprite-ready-to-be-shipped-color" y="491" width="31" height="27"/><view id="sprite-ready-to-be-shipped-color" viewBox="0 491 31 27"/><symbol fill="none" id="sprite-retread-white-color" viewBox="0 0 32 32"><circle cx="16" cy="15.999" r="7" stroke="#fff" stroke-linecap="round" stroke-linejoin="round"/><circle cx="16" cy="15.999" r="12" stroke="#fff" stroke-linecap="round" stroke-linejoin="round"/><path d="M28.071 15.998c0-6.667-5.405-12.072-12.072-12.072-6.668 0-12.073 5.405-12.073 12.072C3.926 22.665 9.331 28.07 16 28.07h12.07m.002-11.143V15.07H29v1.857z" stroke="#fff" stroke-linecap="round" stroke-linejoin="round"/><path stroke="#fff" stroke-linecap="round" stroke-linejoin="round" d="M27.562 12.397l-.685-1.727.863-.342.685 1.726zM25.38 8.345l-1.279-1.346.673-.64 1.28 1.346zm-3.52-2.944l-1.688-.774.387-.844 1.688.774zM17.5 3.986l-1.854-.093.046-.928 1.855.093zm-4.62.309l-1.752.613-.307-.877 1.753-.613zM8.762 6.292l-1.4 1.22-.61-.701 1.4-1.22zm-3.088 3.38l-.849 1.652L4 10.899l.848-1.651zm-1.609 4.274l-.172 1.85-.925-.087.172-1.849zm.099 4.626l.533 1.78-.89.266-.533-1.779zm1.797 4.201l1.157 1.453-.726.579-1.157-1.453zm3.232 3.243l1.613.921-.461.807-1.613-.921zm4.231 1.817l1.84.25-.125.92-1.84-.25zm4.663.237h1.857v.929h-1.857zm4.6 0h1.857v.929h-1.857zm4.427 0h1.857v.929h-1.857z"/></symbol><use fill="none" xlink:href="#sprite-retread-white-color" y="518" width="32" height="32"/><view id="sprite-retread-white-color" viewBox="0 518 32 32"/><symbol fill="none" id="sprite-runflat-white-color" viewBox="0 0 32 32"><path d="M7.059 7.333l.381.324a.5.5 0 00.119-.324h-.5zm-1.905 2.25l.381.322-.381-.323zm-.37 12.463l-.4.3.4-.3zM7 25l.447-.224A.501.501 0 007.4 24.7L7 25zm1 2l-.447.224A.5.5 0 008 27.5V27zm2.5 0v.5a.5.5 0 00.5-.5h-.5zm0-1v-.5a.5.5 0 00-.5.5h.5zm2 0h.5a.5.5 0 00-.5-.5v.5zm0 1H12a.5.5 0 00.5.5V27zm2.5 0v.5a.5.5 0 00.5-.5H15zm0-1v-.5a.5.5 0 00-.5.5h.5zm2 0h.5a.5.5 0 00-.5-.5v.5zm0 1h-.5a.5.5 0 00.5.5V27zm2.5 0v.5a.5.5 0 00.5-.5h-.5zm0-1v-.5a.5.5 0 00-.5.5h.5zm2 0h.5a.5.5 0 00-.5-.5v.5zm0 1H21a.5.5 0 00.5.5V27zm2.5 0v.5a.5.5 0 00.447-.276L24 27zm1-2l-.4-.3a.5.5 0 00-.047.076L25 25zm2.216-2.954l-.4-.3.4.3zm-.37-12.464l-.381.323.381-.323zm-1.905-2.249h-.5a.5.5 0 00.119.324l.381-.324zm-2.655.292l-.357.35.357-.35zm1.78 1.816l.358-.35-.357.35zm-.256 12.856l.343.364-.343-.364zM22 24v.5a.5.5 0 00.343-.136L22 24zm-12 0l-.343.364A.5.5 0 0010 24.5V24zm-1.81-1.703l-.343.364.343-.364zM7.933 9.44l.357.35-.357-.35zm1.78-1.816l.358.35-.357-.35zM9.5 5v1.925h1V5h-1zM9 4.5a.5.5 0 01.5.5h1A1.5 1.5 0 009 3.5v1zm-.941 0h.94v-1h-.94v1zm-.5.5a.5.5 0 01.5-.5v-1a1.5 1.5 0 00-1.5 1.5h1zm0 2.333V5h-1v2.333h1zM5.535 9.905L7.44 7.657l-.763-.647-1.905 2.25.763.645zm-.35 11.84a9.5 9.5 0 01.35-11.84l-.763-.646a10.5 10.5 0 00-.388 13.087l.8-.6zM7.4 24.7l-2.216-2.954-.8.6L6.6 25.3l.8-.6zm1.047 2.076l-1-2-.894.448 1 2 .894-.448zM10.5 26.5H8v1h2.5v-1zM10 26v1h1v-1h-1zm2.5-.5h-2v1h2v-1zM13 27v-1h-1v1h1zm2-.5h-2.5v1H15v-1zm-.5-.5v1h1v-1h-1zm2.5-.5h-2v1h2v-1zm.5 1.5v-1h-1v1h1zm2-.5H17v1h2.5v-1zM19 26v1h1v-1h-1zm2.5-.5h-2v1h2v-1zM22 27v-1h-1v1h1zm2-.5h-2.5v1H24v-1zm.553-1.724l-1 2 .894.448 1-2-.894-.448zm.847.524l2.216-2.954-.8-.6L24.6 24.7l.8.6zm2.216-2.954a10.5 10.5 0 00-.388-13.087l-.764.646a9.5 9.5 0 01.352 11.84l.8.6zm-.388-13.087L25.323 7.01l-.763.647 1.905 2.248.763-.646zM25.44 7.333V5h-1v2.333h1zm0-2.333a1.5 1.5 0 00-1.5-1.5v1a.5.5 0 01.5.5h1zm-1.5-1.5H23v1h.941v-1zm-.94 0A1.5 1.5 0 0021.5 5h1a.5.5 0 01.5-.5v-1zM21.5 5v1.925h1V5h-1zm0 1.925c0 .393.154.77.429 1.05l.714-.7a.5.5 0 01-.143-.35h-1zm.429 1.05l1.781 1.816.714-.7-1.781-1.816-.714.7zm1.781 1.816a8.5 8.5 0 01-.243 12.142l.686.728c3.876-3.649 3.998-9.77.27-13.57l-.713.7zm-.243 12.142l-1.81 1.703.686.728 1.81-1.703-.686-.729zM10 24.5h12v-1H10v1zm-2.153-1.84l1.81 1.704.686-.728-1.81-1.703-.686.728zM7.576 9.09c-3.727 3.801-3.605 9.922.271 13.57l.686-.727A8.5 8.5 0 018.29 9.79l-.714-.7zm1.78-1.815L7.577 9.09l.714.7 1.78-1.816-.713-.7zm.144-.35a.5.5 0 01-.143.35l.714.7a1.5 1.5 0 00.429-1.05h-1z" fill="#fff"/></symbol><use fill="none" xlink:href="#sprite-runflat-white-color" y="550" width="32" height="32"/><view id="sprite-runflat-white-color" viewBox="0 550 32 32"/><symbol fill="none" id="sprite-speed_index-white-color" viewBox="0 0 32 32"><circle cx="16" cy="16" r="13" stroke="#fff" stroke-linecap="round" stroke-linejoin="round"/><path d="M23.779 8.222L20.95 11.05A6.978 6.978 0 0123 16a6.978 6.978 0 01-2.05 4.95l2.829 2.828m-15.557 0l2.829-2.828A6.977 6.977 0 019 16c0-1.933.783-3.683 2.05-4.95M8.221 8.222l2.829 2.828m0 0A6.978 6.978 0 0116 9c.458 0 .906.044 1.34.128" stroke="#fff" stroke-linecap="round" stroke-linejoin="round"/><path d="M8.263 23.819A10.966 10.966 0 015 16C5 9.925 9.925 5 16 5s11 4.925 11 11c0 3.058-1.248 5.825-3.263 7.819" stroke="#fff" stroke-linecap="round" stroke-linejoin="round"/><path d="M17.5 16a1.5 1.5 0 10-3 0 1.5 1.5 0 003 0z" fill="#fff"/><path d="M16 5v4m-7 7H5m22 0h-4m-3-8l-4 8" stroke="#fff" stroke-linecap="round" stroke-linejoin="round"/></symbol><use fill="none" xlink:href="#sprite-speed_index-white-color" y="582" width="32" height="32"/><view id="sprite-speed_index-white-color" viewBox="0 582 32 32"/><symbol fill="none" id="sprite-studded-white-color" viewBox="0 0 32 32"><path d="M16 3v10m0 16V19m11.258 3.5L18.5 17.443M4.742 9.5l8.758 5.057M12 5l4 4 4-4m3.5 2l-1.397 5.482 5.482 1.397M8.5 7l1.397 5.482-5.482 1.397M12 26l4-4 4 4M4.916 17.621l5.481 1.397L9 24.5M27.5 18l-5.482 1.397 1.397 5.482M4.742 22.5l8.758-5.057M27.258 9.5L18.5 14.557M16 13l2.598 1.5v3L16 19l-2.598-1.5v-3L16 13z" stroke="#fff" stroke-linecap="round"/></symbol><use fill="none" xlink:href="#sprite-studded-white-color" y="614" width="32" height="32"/><view id="sprite-studded-white-color" viewBox="0 614 32 32"/><symbol fill="none" id="sprite-tyres-color" viewBox="0 0 32 33"><path d="M10.504 31.224c2.407 0 4.493-1.712 5.95-4.278 1.466-2.579 2.357-6.11 2.357-9.986 0-3.875-.891-7.406-2.357-9.985-1.457-2.566-3.543-4.278-5.95-4.278S6.01 4.409 4.554 6.975c-1.466 2.579-2.358 6.11-2.358 9.985 0 3.876.892 7.407 2.357 9.986 1.458 2.566 3.544 4.278 5.95 4.278z" fill="#184460" stroke="#fff" stroke-width=".94"/><path fill="#184460" d="M10.817 3.167h10.659v27.587H10.817z"/><path d="M22.103 31.224c2.179 0 4.025-1.754 5.298-4.3 1.287-2.574 2.07-6.097 2.07-9.964 0-3.866-.783-7.39-2.07-9.963-1.273-2.547-3.12-4.3-5.298-4.3s-4.024 1.753-5.297 4.3c-1.287 2.574-2.07 6.097-2.07 9.963 0 3.867.783 7.39 2.07 9.964 1.273 2.546 3.119 4.3 5.297 4.3z" fill="#184460" stroke="#fff" stroke-width=".94"/><path d="M25.865 16.96c0 5.194-1.684 9.405-3.762 9.405-2.077 0-3.762-4.21-3.762-9.405 0-5.194 1.685-9.404 3.762-9.404 2.078 0 3.762 4.21 3.762 9.404z" fill="#184460" stroke="#fff" stroke-width=".94"/><path fill-rule="evenodd" clip-rule="evenodd" d="M19.346 9.085c1.283 1.68 2.13 4.58 2.13 7.875 0 3.118-.758 5.88-1.926 7.592-1.111-1.763-1.836-4.647-1.836-7.905 0-3.055.637-5.78 1.632-7.562z" fill="#fff"/></symbol><use fill="none" xlink:href="#sprite-tyres-color" y="646" width="32" height="33"/><view id="sprite-tyres-color" viewBox="0 646 32 33"/></svg>