<svg width="32" height="32" fill="none" xmlns="http://www.w3.org/2000/svg"><path fill-rule="evenodd" clip-rule="evenodd" d="M7.15 16.217h-.007v1.327c-.001 1.311-.002 2.622.003 3.933.001.3.017.608.078.901.337 1.629 1.813 2.867 3.62 2.856 2.244-.014 4.488-.011 6.733-.009 1.29.001 2.58.003 3.871 0 .287 0 .58-.017.859-.08 1.712-.382 2.846-1.78 2.852-3.55.01-3.592.008-7.183-.007-10.774a3.917 3.917 0 0 0-.19-1.18c-.453-1.386-1.81-2.45-3.512-2.44-2.326.013-4.653.01-6.98.008-1.2-.001-2.402-.002-3.604-.001-.238 0-.478.019-.714.052-1.61.222-2.974 1.715-2.997 3.338a229.263 229.263 0 0 0-.01 3.918c.002.567.004 1.134.004 1.7zm-1.817 5.832V10.386l.025-.143.056-.31c.374-1.987 1.499-3.377 3.361-4.143.333-.137.693-.21 1.052-.284.165-.033.33-.067.493-.107h11.663c.129.027.258.05.387.074.28.05.559.1.826.188 2.279.743 3.765 2.782 3.771 5.183.01 3.445.006 6.89.002 10.336v.416c-.002 1.152-.32 2.213-1.002 3.145-1.127 1.54-2.659 2.294-4.564 2.294h-1.738c-2.9.001-5.799.002-8.698-.003-.365 0-.735-.017-1.093-.081-2-.364-3.394-1.5-4.156-3.377-.134-.33-.207-.684-.279-1.039-.033-.163-.066-.326-.106-.486zm10.836-2.232a3.589 3.589 0 0 0 3.582-3.612 3.59 3.59 0 0 0-3.627-3.587 3.589 3.589 0 0 0-3.572 3.622 3.59 3.59 0 0 0 3.617 3.577zm5.391-3.603c.003 2.981-2.437 5.42-5.416 5.412a5.42 5.42 0 0 1-5.4-5.406c-.004-2.982 2.434-5.419 5.415-5.411a5.419 5.419 0 0 1 5.401 5.405zm-.893-5.87a1.338 1.338 0 0 0 1.342 1.359 1.353 1.353 0 0 0 1.355-1.354 1.36 1.36 0 0 0-1.349-1.343 1.35 1.35 0 0 0-1.348 1.338z" fill="#AABBC6"/></svg>