<svg xmlns="http://www.w3.org/2000/svg" width="200" height="40" style="enable-background:new 0 0 200 40" xml:space="preserve"><path d="M0 39.3V1h7.8v31.8h19.4v6.5H0zm68.9 0h-8.5L57 30.6H41.5l-3.2 8.8H30L45.1.7h8.3l15.5 38.6zM54.5 24 49.2 9.7 43.9 24h10.6zM73 39.3V.7h7.6l15.8 25.8V.7h7.3v38.7h-7.9L80.2 14.1v25.2H73zm63.2-14.2 7.6 2.4c-1.2 4.2-3.1 7.4-5.8 9.4s-6.1 3.1-10.3 3.1c-5.1 0-9.4-1.8-12.7-5.3-3.3-3.5-5-8.3-5-14.4 0-6.4 1.7-11.4 5-15S122.8 0 128.2 0c4.7 0 8.6 1.4 11.5 4.2 1.8 1.7 3.1 4 4 7.1l-7.7 1.8c-.7-3.9-4.2-6.6-8.2-6.5-2.7-.1-5.2 1.1-7 3.1-1.8 2.1-2.7 5.4-2.7 10 0 4.9.9 8.4 2.6 10.4s4.2 3.2 6.9 3.1c2 0 3.9-.7 5.4-2 1.5-1.2 2.5-3.2 3.2-6.1zm13.4 14.2V.7h7.8v38.7h-7.8v-.1zm50.4 0h-8.5l-3.4-8.8h-15.5l-3.2 8.8h-8.3L176.2.6h8.3L200 39.3zM185.6 24l-5.3-14.4L175 24h10.6z" style="fill:#132530"/></svg>