<svg width="73" height="32" fill="none" xmlns="http://www.w3.org/2000/svg"><path fill-rule="evenodd" clip-rule="evenodd" d="M41 24.655H31V7.358h10v17.297z" fill="#829BAB"/><path fill-rule="evenodd" clip-rule="evenodd" d="M31.75 16c0-3.508 1.662-6.634 4.25-8.648A11.158 11.158 0 0029.125 5C22.98 5 18 9.925 18 16s4.98 11 11.125 11A11.158 11.158 0 0036 24.648c-2.587-2.014-4.25-5.14-4.25-8.648z" fill="#C4D0D8"/><path fill-rule="evenodd" clip-rule="evenodd" d="M54 16c0 6.075-4.98 11-11.124 11A11.161 11.161 0 0136 24.648c2.588-2.014 4.25-5.14 4.25-8.648 0-3.509-1.662-6.634-4.25-8.648A11.16 11.16 0 0142.876 5C49.02 5 54 9.925 54 16" fill="#AABBC6"/><path fill-rule="evenodd" clip-rule="evenodd" d="M50.664 27.794v3.85h-.583v-.333c-.184.247-.464.402-.845.402-.75 0-1.34-.604-1.34-1.442s.59-1.442 1.34-1.442c.38 0 .66.155.845.402v-1.437h.583zM28.83 28.897v2.747h-.582v-.333c-.184.247-.465.402-.845.402-.75 0-1.339-.604-1.339-1.442s.589-1.442 1.339-1.442c.38 0 .66.155.845.402v-.334h.582zm-2.166 1.373c0-.482.308-.879.811-.879.482 0 .807.38.807.88s-.325.879-.806.879c-.504 0-.812-.397-.812-.88zm25.161 1.058a.27.27 0 00-.192-.08l.001-.003a.266.266 0 00-.193.08.276.276 0 00-.058.298.284.284 0 00.057.09.277.277 0 00.193.081.26.26 0 00.106-.022.282.282 0 00.144-.145.276.276 0 00-.058-.299zm-.191.404a.209.209 0 00.19-.129.222.222 0 000-.166.21.21 0 00-.11-.112.21.21 0 00-.162 0 .209.209 0 00-.066.045.22.22 0 000 .301.209.209 0 00.148.062v-.002zm.089-.32a.11.11 0 00-.073-.021h-.113v.253h.052v-.095h.024l.075.095h.063l-.081-.095a.098.098 0 00.058-.025.069.069 0 00.02-.052.073.073 0 00-.025-.06zm-.135.127v-.102h.061c.012 0 .023.004.033.013a.053.053 0 01.012.038c0 .015-.004.03-.012.038a.048.048 0 01-.033.013h-.06zm-3.092-1.269c0-.482.308-.879.812-.879.482 0 .806.38.806.88s-.324.879-.806.879c-.504 0-.812-.397-.812-.88zm-12.442-.907c.375 0 .616.241.677.666h-1.388c.062-.397.297-.666.711-.666zm-1.322.907c0-.857.55-1.443 1.334-1.443.748 0 1.264.586 1.27 1.442 0 .08-.005.153-.011.226v.004h-1.988c.084.494.426.673.8.673.27 0 .555-.104.78-.288l.285.443c-.325.281-.694.385-1.097.385-.802 0-1.373-.57-1.373-1.442zm8.36 0c0-.483.309-.88.812-.88.482 0 .807.38.807.88s-.325.879-.807.879c-.503 0-.812-.397-.812-.88zm2.167-1.373v2.747h-.582v-.333c-.185.247-.464.402-.845.402-.75 0-1.339-.604-1.339-1.442s.589-1.442 1.339-1.442c.38 0 .66.155.845.402v-.334h.582zm-5.453 1.372c0 .833.565 1.443 1.428 1.443.403 0 .671-.093.962-.328l-.28-.483a1.157 1.157 0 01-.701.248c-.465-.006-.806-.35-.806-.88 0-.528.341-.873.806-.879.253 0 .482.086.701.247l.28-.482c-.291-.236-.56-.328-.962-.328-.863 0-1.428.61-1.428 1.442zm6.797-1.04c.151-.24.37-.402.706-.402.117 0 .285.024.414.076l-.18.563a.923.923 0 00-.363-.07c-.38 0-.571.253-.571.707v1.54h-.583v-2.746h.577v.333zm-14.895-.114c-.28-.19-.666-.287-1.092-.287-.678 0-1.114.333-1.114.879 0 .447.325.724.923.81l.275.04c.32.046.47.132.47.287 0 .213-.212.334-.61.334-.403 0-.694-.132-.89-.287l-.274.465c.32.241.722.357 1.159.357.773 0 1.22-.374 1.22-.897 0-.482-.352-.735-.934-.821l-.275-.04c-.252-.034-.453-.086-.453-.27 0-.201.19-.322.51-.322.34 0 .671.132.834.235l.252-.482-.001-.001zm6.805.116c.15-.242.369-.403.705-.403.117 0 .285.023.414.075l-.18.563a.921.921 0 00-.363-.07c-.38 0-.57.253-.57.707v1.54h-.583v-2.746h.577v.334zm-4.262-.334h-.952v-.833h-.588v.833h-.543v.545h.543v1.253c0 .637.24 1.017.93 1.017.252 0 .543-.08.727-.213l-.168-.51a1.058 1.058 0 01-.515.154c-.29 0-.386-.184-.386-.46v-1.24h.952v-.546zm-8.702 1.023v1.723l-.59-.001v-1.528c0-.466-.189-.724-.586-.724-.387 0-.655.253-.655.73v1.522h-.589v-1.528c0-.466-.195-.724-.582-.724-.398 0-.655.253-.655.73v1.523h-.587v-2.746h.582v.34c.219-.322.498-.409.784-.409.41 0 .7.184.885.489.246-.385.599-.494.94-.489.65.006 1.053.443 1.053 1.092z" fill="#C4D0D8"/></svg>