<svg xmlns="http://www.w3.org/2000/svg" width="477.7" height="40" style="enable-background:new 0 0 477.7 40" xml:space="preserve"><path d="M0 39.3V.7h11.9L19.1 27 26.2.6h11.9v38.7h-7.4V8.9l-7.8 30.4h-7.7L7.4 8.9v30.4H0zm46.3 0V.7h29.3v6.5H54.3v8.6h19.8v6.5H54.3v10.5h22v6.5h-30zm36.9 0V.7H100c4.2 0 7.3.3 9.2 1 1.9.7 3.5 2 4.6 3.7 1.2 1.8 1.8 3.9 1.7 6.1 0 2.9-.9 5.3-2.6 7.2-1.7 1.9-4.3 3.1-7.8 3.6 1.6.9 3 2 4.3 3.2 1.1 1.2 2.6 3.3 4.5 6.3l4.8 7.5h-9.5l-5.8-8.4c-2-3-3.4-4.9-4.2-5.7-.7-.7-1.5-1.3-2.4-1.6-.8-.3-2.2-.4-4-.4h-1.6v16.1h-8zm8-22.3h5.9c3.8 0 6.2-.2 7.2-.5.9-.3 1.7-.9 2.2-1.6.6-.9.8-1.9.8-2.9.1-1.1-.3-2.3-1.1-3.1-.8-.8-1.9-1.4-3-1.5-.6-.1-2.6-.1-5.8-.1h-6.2V17zm56.3 8.1 7.7 2.4c-1.2 4.2-3.2 7.4-5.9 9.4-2.8 2-6.2 3.1-10.5 3.1-5.2 0-9.5-1.8-12.9-5.3s-5.1-8.3-5.1-14.4c0-6.4 1.7-11.4 5.1-15S133.7 0 139.3 0c4.8 0 8.7 1.4 11.8 4.2 1.8 1.6 3.1 4 4 7.1l-7.9 1.8c-.4-1.9-1.4-3.6-2.9-4.7-1.6-1.2-3.5-1.8-5.4-1.7-2.9 0-5.3 1-7.1 3.1s-2.7 5.4-2.7 10c0 4.9.9 8.4 2.7 10.4 1.7 2.1 4.3 3.2 7 3.1 2 0 4-.7 5.5-2 1.4-1.3 2.5-3.4 3.2-6.2zm14.1 14.2V.7h29.3v6.5h-21.3v8.6h19.8v6.5h-19.8v10.5h22v6.5h-30zM198.4.7H213c3.3 0 5.8.2 7.5.7 2.3.6 4.3 1.9 5.9 3.6 1.7 1.8 3 3.9 3.7 6.2.9 2.5 1.3 5.5 1.3 9.1.1 2.8-.3 5.6-1.2 8.2-.8 2.6-2.3 4.9-4.2 6.8-1.6 1.4-3.5 2.5-5.6 3.1-1.8.6-4.1.8-7 .8h-15V.7zm8 6.5v25.6h5.9c2.2 0 3.8-.1 4.8-.4 1.2-.3 2.3-.8 3.2-1.6.8-.8 1.5-2 2.1-3.7.5-1.7.8-4.1.8-7.1s-.3-5.3-.8-6.9c-.4-1.4-1.2-2.7-2.3-3.7-1-.9-2.3-1.6-3.7-1.8-1.1-.2-3.3-.4-6.5-.4h-3.5zm31.9 32.1V.7h29.3v6.5h-21.3v8.6h19.8v6.5h-19.8v10.5h22v6.5h-30zm34.2-12.6 7.7-.7c.5 2.5 1.4 4.4 2.8 5.6 1.4 1.2 3.3 1.8 5.8 1.8 2.6 0 4.5-.5 5.8-1.6s1.9-2.3 1.9-3.7c0-.9-.3-1.7-.8-2.3-.5-.6-1.5-1.2-2.9-1.7-.9-.3-3.1-.9-6.4-1.7-4.3-1-7.2-2.3-9-3.8-2.4-2.1-3.6-4.7-3.6-7.8 0-2 .6-3.9 1.7-5.5 1.2-1.8 2.9-3.1 4.9-3.9 2.1-.9 4.7-1.3 7.8-1.3 4.9 0 8.7 1.1 11.2 3.2s3.8 5 3.9 8.5l-8 .3c-.3-2-1.1-3.4-2.2-4.3s-2.8-1.3-5-1.3c-2.3 0-4.1.5-5.4 1.4-.8.5-1.3 1.4-1.2 2.4 0 .9.4 1.8 1.2 2.3 1 .8 3.4 1.7 7.3 2.6 3.9.9 6.7 1.8 8.6 2.8 1.8.9 3.3 2.3 4.4 3.9 1 1.7 1.6 3.7 1.6 6.2 0 4.7-2.9 8.8-7.2 10.5-2.3.9-5.2 1.4-8.6 1.4-5 0-8.8-1.1-11.5-3.4-2.7-2.2-4.3-5.5-4.8-9.9zm38.9 2.3v-7.4h14.8V29h-14.8zM332.7.7h15.8c2.3 0 4.7.1 7 .4 1.5.2 2.9.8 4.1 1.6s2.3 1.9 3 3.2c.8 1.4 1.2 2.9 1.2 4.5 0 1.8-.5 3.5-1.5 5s-2.4 2.7-4.1 3.4c2.4.7 4.3 1.9 5.5 3.5 1.3 1.7 2 3.7 1.9 5.8 0 1.8-.4 3.5-1.2 5.1-.8 1.6-2 3-3.4 4-1.6 1-3.4 1.7-5.3 1.8-1.3.1-4.5.2-9.6.3h-13.4V.7zm7.9 6.4V16h5.2c3.1 0 5 0 5.8-.1 1.2-.1 2.3-.6 3.2-1.4.8-.8 1.2-1.9 1.2-3s-.3-2.1-1-2.9c-.8-.8-1.9-1.3-3-1.4-.8-.1-3.1-.1-6.8-.1h-4.6zm0 15.4v10.3h7.4c2.9 0 4.7-.1 5.5-.2 1.1-.2 2.1-.7 2.9-1.5.8-.9 1.2-2.1 1.1-3.3 0-1.1-.3-2.1-.9-3-.6-.8-1.5-1.5-2.5-1.8-1.1-.4-3.4-.5-7.1-.5h-6.4zm31.8 16.8V.7h29.3v6.5h-21.3v8.6h19.8v6.5h-19.8v10.5h22v6.5h-30zm36.9 0V.7h7.7l16.1 25.8V.7h7.4v38.7h-8l-15.9-25.2v25.2h-7.3v-.1zm36.3 0v-7l20.7-25.1H448V.7h28.9v6.1l-21.6 26.1h22.4v6.5h-32.1v-.1z" style="fill:#132530"/></svg>