<svg xmlns="http://www.w3.org/2000/svg" width="194.1" height="40" style="enable-background:new 0 0 194.1 40" xml:space="preserve"><path d="M0 39.3V.7h7.6l15.8 25.8V.7h7.2v38.7h-7.8L7.3 14.1v25.2H0zm38.5 0V.7h7.8v38.7h-7.8v-.1zm13.2-12.6 7.6-.7c.5 2.5 1.4 4.4 2.8 5.6 1.4 1.2 3.3 1.8 5.7 1.8 2.5 0 4.4-.5 5.7-1.6 1.3-1.1 1.9-2.3 1.9-3.7 0-.9-.3-1.7-.8-2.3-.5-.6-1.5-1.2-2.8-1.7-.9-.3-3-.9-6.2-1.7-4.2-1-7.1-2.3-8.8-3.8-2.3-1.9-3.6-4.8-3.6-7.8 0-2 .6-3.9 1.7-5.5 1.2-1.8 2.9-3.1 4.8-3.9 2-1 4.5-1.4 7.5-1.4 4.8 0 8.5 1.1 11 3.2s3.7 5 3.9 8.5l-7.9.3c-.3-2-1-3.4-2.1-4.3s-2.7-1.3-4.9-1.3c-2.3 0-4 .5-5.3 1.4-.8.5-1.3 1.4-1.2 2.4 0 .9.4 1.8 1.2 2.3 1 .8 3.4 1.7 7.2 2.6s6.6 1.8 8.4 2.8c1.8.9 3.2 2.3 4.3 3.9 1 1.7 1.5 3.7 1.5 6.2 0 2.2-.6 4.4-1.8 6.2-1.2 1.9-3.1 3.5-5.2 4.3-2.2.9-5 1.4-8.4 1.4-4.9 0-8.6-1.1-11.2-3.4-2.9-2.1-4.5-5.4-5-9.8zm35.7 0L95 26c.5 2.5 1.4 4.4 2.8 5.6 1.4 1.2 3.3 1.8 5.7 1.8 2.5 0 4.4-.5 5.7-1.6 1.3-1.1 1.9-2.3 1.9-3.7 0-.9-.3-1.7-.8-2.3-.5-.6-1.5-1.2-2.8-1.7-.9-.3-3-.9-6.2-1.7-4.2-1-7.1-2.3-8.8-3.8-2.3-1.9-3.6-4.8-3.6-7.8 0-2 .6-3.9 1.7-5.5 1.2-1.8 2.9-3.1 4.8-3.9 2-1 4.6-1.4 7.5-1.4 4.8 0 8.5 1.1 11 3.2s3.7 5 3.9 8.5l-7.8.3c-.3-2-1.1-3.4-2.1-4.3s-2.7-1.3-4.9-1.3c-2.3 0-4 .5-5.3 1.4-.8.5-1.3 1.4-1.2 2.4 0 .9.4 1.8 1.2 2.3 1 .8 3.4 1.7 7.2 2.6 3.8.9 6.6 1.8 8.4 2.8 1.8.9 3.2 2.3 4.3 3.9 1 1.7 1.5 3.7 1.5 6.2 0 2.2-.6 4.4-1.8 6.2-1.2 1.9-3.1 3.5-5.2 4.3-2.2.9-5 1.4-8.4 1.4-4.9 0-8.6-1.1-11.2-3.4-3-2.1-4.6-5.4-5.1-9.8zm72 12.6h-8.5l-3.4-8.8H132l-3.2 8.8h-8.3L135.6.6h8.3l15.5 38.7zM145 24l-5.3-14.3-5.3 14.3H145zm18.4 15.3V.7h7.6l15.8 25.8V.7h7.2v38.7h-7.8l-15.6-25.2v25.2h-7.2v-.1z" style="fill:#132530"/></svg>