<svg xmlns="http://www.w3.org/2000/svg" width="140.9" height="40" style="enable-background:new 0 0 140.9 40" xml:space="preserve"><path d="M0 20.2c0-3.9.6-7.2 1.8-9.9.9-2 2.1-3.8 3.6-5.3 1.4-1.5 3.1-2.7 5-3.5C13 .5 15.9-.1 18.7 0 24.4 0 29 1.8 32.4 5.3s5.1 8.5 5.1 14.7-1.7 11.1-5.1 14.7S24.5 40 18.8 40 8.5 38.2 5.1 34.7 0 26.4 0 20.2zm8.1-.2c0 4.4 1 7.7 3 10 1.9 2.2 4.8 3.5 7.7 3.4 2.9.1 5.7-1.2 7.7-3.4s3-5.6 3-10.1c0-4.4-1-7.8-2.9-9.9S22 6.7 18.8 6.7 13 7.8 11 10s-2.9 5.5-2.9 10zm35.2 19.3V.7h12.5c4.7 0 7.8.2 9.3.6 2.2.6 4.2 1.9 5.6 3.8C72.2 7 73 9.5 73 12.6c0 2.4-.4 4.4-1.3 6-.8 1.5-1.9 2.8-3.3 3.8-1.2.9-2.6 1.5-4 1.8-1.9.4-4.6.6-8.1.6h-5.1v14.6l-7.9-.1zm7.8-32.1v11h4.3c3.1 0 5.1-.2 6.2-.6 1-.4 1.8-1 2.4-1.9.6-.9.9-1.9.9-3 0-1.3-.4-2.5-1.2-3.5-.8-.9-1.9-1.5-3.1-1.7-.9-.2-2.8-.3-5.6-.3h-3.9zM78 39.3V.7h28.7v6.5H85.8v8.6h19.4v6.5H85.8v10.5h21.6v6.5H78zm35.6 0V1h7.8v31.8h19.4v6.5h-27.2z" style="fill:#132530"/></svg>