<svg width="73" height="32" fill="none" xmlns="http://www.w3.org/2000/svg"><path fill-rule="evenodd" clip-rule="evenodd" d="M41.856 9h3.97c1.33 0 2.33.342 2.895.988.514.587.684 1.426.506 2.494-.394 2.442-1.903 3.674-4.52 3.674h-1.256a.548.548 0 00-.544.453l-.456 2.81a.383.383 0 01-.381.318h-2.038a.335.335 0 01-.251-.113.316.316 0 01-.076-.26l1.605-9.91A.549.549 0 0141.856 9zm2.07 5.008c1.053 0 2.142 0 2.359-1.388.079-.486.016-.84-.193-1.077-.35-.397-1.026-.397-1.743-.397h-.275a.328.328 0 00-.326.271l-.42 2.59h.598zm11.868-1.432h1.901c.097 0 .189.041.252.113a.32.32 0 01.076.26l-1.029 6.335a.549.549 0 01-.545.453h-1.712a.334.334 0 01-.251-.112.315.315 0 01-.075-.26l.085-.514s-.939 1.058-2.633 1.058c-.986 0-1.814-.276-2.394-.94-.632-.724-.89-1.76-.709-2.845.35-2.172 2.144-3.722 4.244-3.722.917 0 1.835.195 2.246.776l.133.187.083-.517a.329.329 0 01.328-.272zm-2.895 5.37c1.1 0 1.962-.71 2.146-1.768.084-.511-.03-.976-.322-1.308-.29-.33-.728-.504-1.268-.504-1.084 0-1.96.732-2.13 1.78-.09.514.016.976.297 1.3.284.327.726.5 1.277.5zm5.407 1.419l1.63-10.092A.328.328 0 0160.264 9h1.833c.097 0 .19.04.252.112.063.072.09.167.076.26l-1.608 9.91a.548.548 0 01-.545.454h-1.639a.335.335 0 01-.251-.113.316.316 0 01-.076-.26zm-28.963-6.683h-1.884a.33.33 0 00-.324.28l-.082.534-.132-.194c-.408-.598-1.317-.799-2.225-.799-2.08 0-3.858 1.596-4.204 3.834-.18 1.117.076 2.184.701 2.928.575.684 1.395.97 2.372.97 1.678 0 2.608-1.09 2.608-1.09l-.084.529a.334.334 0 00.074.267.326.326 0 00.25.116h1.695a.549.549 0 00.54-.467l1.019-6.524a.335.335 0 00-.075-.267.327.327 0 00-.25-.116zM17.587 9.001h-3.934a.55.55 0 00-.54.467l-1.59 10.205a.334.334 0 00.075.267.326.326 0 00.249.117h1.878a.549.549 0 00.54-.467l.43-2.754a.548.548 0 01.539-.467h1.244c2.592 0 4.087-1.268 4.477-3.783.176-1.1.007-1.964-.501-2.569C19.894 9.352 18.903 9 17.587 9zm.453 3.727c-.215 1.429-1.293 1.429-2.336 1.429h-.593l.416-2.668a.329.329 0 01.324-.28h.272c.71 0 1.38 0 1.726.41.207.245.27.608.191 1.11zm6.552 5.485c1.09 0 1.943-.732 2.126-1.82.083-.528-.031-1.006-.32-1.348-.287-.34-.72-.52-1.255-.52-1.073 0-1.941.755-2.11 1.835-.089.529.015 1.004.294 1.338.281.337.719.515 1.265.515zm12.888-5.53h1.894c.122 0 .234.068.29.178a.335.335 0 01-.021.342L33.347 22.4a.546.546 0 01-.448.237h-1.892a.328.328 0 01-.291-.179.336.336 0 01.023-.344l1.96-2.8-2.083-6.192a.335.335 0 01.043-.3.327.327 0 01.267-.139h1.86c.242 0 .455.161.524.395l1.107 3.74 2.612-3.892a.543.543 0 01.451-.242z" fill="#C4D0D8"/></svg>