<svg xmlns="http://www.w3.org/2000/svg" width="254.7" height="40" style="enable-background:new 0 0 254.7 40" xml:space="preserve"><path d="M0 39.3V.7h12.5c4.7 0 7.8.2 9.3.6 2.3.5 4.2 1.9 5.6 3.7 1.5 1.9 2.2 4.5 2.2 7.5 0 2.4-.4 4.4-1.3 6-.8 1.5-1.9 2.8-3.3 3.8-1.2.9-2.6 1.5-4 1.8-1.9.4-4.6.6-8.1.6H7.8v14.6H0zM7.8 7.2v11h4.3c3.1 0 5.1-.2 6.2-.6 1-.4 1.8-1 2.4-1.9s.9-1.9.9-3c0-1.3-.4-2.5-1.2-3.5-.8-.9-1.9-1.5-3.1-1.7-.9-.2-2.8-.3-5.6-.3H7.8zM35 39.3V.7h28.7v6.5H42.8v8.6h19.4v6.5H42.8v10.5h21.6v6.5H35zM70.3.7h7.8v20.9c0 3.3.1 5.5.3 6.5.3 1.5 1.1 2.9 2.4 3.8 1.3 1 3 1.4 5.2 1.4s3.8-.5 5-1.4c1.1-.8 1.8-2 2-3.3.3-2.2.4-4.4.4-6.6V.7h7.8V21c0 4.6-.2 7.9-.6 9.8-.4 1.8-1.2 3.5-2.3 4.9-1.2 1.4-2.8 2.5-4.5 3.1-1.9.8-4.4 1.2-7.5 1.2-3.7 0-6.5-.4-8.4-1.3-1.7-.7-3.3-1.9-4.5-3.3-1-1.2-1.8-2.7-2.2-4.3-.5-2.2-.8-5.5-.8-9.8V.7h-.1zm56.4 24.4v-6.5h16.8V34c-1.6 1.6-4 3-7.1 4.2-3 1.2-6.2 1.8-9.4 1.8-4 0-7.6-.8-10.6-2.5s-5.3-4.2-6.8-7.3c-1.5-3.2-2.3-6.7-2.3-10.3-.1-3.7.8-7.4 2.5-10.7 1.7-3.1 4.3-5.6 7.4-7.2 2.5-1.3 5.6-1.9 9.3-1.9 4.8 0 8.5 1 11.2 3s4.4 4.8 5.2 8.3l-7.8 1.4c-.5-1.8-1.6-3.4-3.1-4.5s-3.4-1.7-5.6-1.7c-3.4 0-6.1 1.1-8.1 3.2s-3 5.4-3 9.6c0 4.6 1 8 3.1 10.3 2 2.3 4.7 3.4 8 3.5 1.7 0 3.4-.3 4.9-1 1.5-.6 2.9-1.4 4.2-2.3V25h-8.8v.1zm23.9 14.2V.7h28.7v6.5h-20.9v8.6h19.4v6.5h-19.4v10.5H180v6.5h-29.4zm33.6-19.1c0-3.9.6-7.2 1.8-9.9.9-2 2.1-3.8 3.6-5.3 1.4-1.5 3.1-2.7 5-3.5 2.7-1.1 5.5-1.6 8.3-1.5 5.7 0 10.3 1.8 13.7 5.3s5.1 8.5 5.1 14.7-1.7 11.1-5.1 14.7c-3.4 3.5-7.9 5.3-13.6 5.3-5.8 0-10.3-1.8-13.7-5.3s-5.1-8.3-5.1-14.5zm8.1-.2c0 4.4 1 7.7 3 10 3.9 4.3 10.5 4.6 14.7.7l.7-.7c2-2.2 3-5.6 3-10.1 0-4.4-1-7.7-2.9-9.9s-4.5-3.3-7.7-3.3-5.8 1.1-7.8 3.3-3 5.5-3 10zm43.2 19.3V7.2H224V.7h30.7v6.5h-11.4v32.1h-7.8z" style="fill:#132530"/></svg>