<svg width="73" height="32" fill="none" xmlns="http://www.w3.org/2000/svg"><path fill-rule="evenodd" clip-rule="evenodd" d="M33.204 18.996a4.92 4.92 0 01-.326.032c-.12.01-.232.018-.323.036-.107 0-.215.01-.317.018-.093.008-.183.016-.264.016-.479 0-.855-.068-1.094-.239-.24-.137-.376-.41-.41-.786-.03-.119-.008-.29.021-.513l.013-.102c.016-.143.04-.28.063-.418a6.56 6.56 0 00.074-.505l.752-3.35h-1.23l.204-.854h1.265l.342-1.537 1.299-.308-.41 1.845h1.435l-.205.855h-1.436l-.683 3.486-.062.236a1.672 1.672 0 00-.075.345c-.034.137-.034.239-.034.307 0 .205.068.308.205.41.137.103.342.137.65.137.044 0 .095-.006.153-.014.075-.01.16-.02.256-.02.137 0 .274-.034.41-.068l-.273.99zm15.277-4.716c-.034-.718-.274-1.265-.65-1.641-.376-.376-.888-.58-1.538-.58-.41 0-.82.067-1.161.238-.02.02-.05.028-.084.038a.482.482 0 00-.087.03c-.308.171-.581.41-.855.65l.035-.82h-1.846c-.034.444-.17 1.128-.376 2.05l-1.572 7.143h2.05l.787-3.52a1.9 1.9 0 00.82.82c.273.137.58.24.957.274a.64.64 0 01.12.017c.042.008.085.017.119.017 1.025 0 1.88-.479 2.495-1.401.65-.855.888-1.983.786-3.315zm-2.085 1.298c-.102.445-.24.855-.41 1.23-.17.342-.342.582-.581.752a1.144 1.144 0 01-.41.205c-.103.035-.205.035-.308.035-.341 0-.615-.137-.82-.342-.205-.205-.307-.547-.376-.957-.068-.82.069-1.538.479-2.222.273-.478.615-.786 1.025-.922.137-.034.273-.034.41-.034.308 0 .581.102.752.307.17.171.307.444.307.82.035.308 0 .684-.068 1.128zm-29.323-1.162c-.068-.683-.308-1.264-.718-1.64-.41-.41-.922-.581-1.572-.581-.307 0-.65.034-.957.17a.455.455 0 01-.083.029.327.327 0 00-.156.074c-.376.171-.752.479-1.094.82l.103-1.025H11.4c-.017.15-.025.29-.034.427a6.56 6.56 0 01-.034.428c-.019.166-.048.323-.075.475a5.855 5.855 0 00-.062.379l-1.709 7.45h1.299l.786-3.417c.239.341.546.615.854.786.342.17.718.273 1.196.273h.205c.479-.034.923-.17 1.333-.41.479-.273.889-.65 1.196-1.196.274-.41.479-.923.581-1.47a5.068 5.068 0 00.137-1.572zm-1.435 1.333a6.103 6.103 0 01-.513 1.265 2.08 2.08 0 01-.82.888c-.137.069-.308.137-.479.205-.17.034-.376.069-.58.069a1.42 1.42 0 01-.958-.342c-.239-.24-.41-.547-.41-.923-.034-.342 0-.752.137-1.299.137-.512.308-.99.513-1.367.205-.41.478-.717.786-.922.17-.103.341-.206.512-.24.137-.034.308-.068.479-.068.41 0 .752.137 1.025.41.24.273.41.615.444 1.06.035.341 0 .786-.136 1.264zm38.96-3.144c.445.273.718.683.752 1.264v.581c-.014.07-.033.15-.054.235-.03.124-.062.259-.082.38l-.513 2.256a5.05 5.05 0 00-.137.82c-.034.274-.034.547-.034.855h-1.88v-.479c0-.085.009-.162.017-.239.009-.077.017-.154.017-.24-.239.343-.512.616-.82.753l-.034.034c-.342.17-.683.273-1.094.273-.615 0-1.059-.17-1.435-.478-.376-.308-.581-.718-.615-1.265-.103-.82.24-1.47.923-1.914.546-.341 1.298-.58 2.255-.649.274-.034.615-.034.923-.034h.547c.068-.273.102-.444.102-.581a.946.946 0 00.035-.308c-.035-.205-.103-.341-.24-.444-.136-.102-.342-.137-.58-.137-.274 0-.513.069-.65.205a.267.267 0 00-.137.137c-.102.103-.17.274-.205.479h-1.948c.034-.616.342-1.094.82-1.436.376-.239.786-.376 1.3-.444.238-.034.512-.034.785-.034.889 0 1.504.102 1.982.41zm-2.734 5.16a3.27 3.27 0 00.581-.478c.308-.41.513-.923.65-1.504-.035-.034-.103-.034-.137-.034h-.205a3.25 3.25 0 00-.855.103c-.273.068-.478.17-.683.307-.41.274-.581.615-.547 1.026 0 .205.068.375.205.512.103.137.308.171.513.171.17 0 .341-.034.478-.103zm6.835-.922l2.632-4.614h1.914l-4.204 7.006-1.196 2.187h-2.153l1.606-2.46-1.162-6.733h2.017l.546 4.614zm-35.748-4.204c.513.41.752.957.82 1.64.035.547 0 1.128-.17 1.71-.137.614-.342 1.161-.65 1.606-.341.512-.752.888-1.23 1.093-.342.171-.786.274-1.265.308-.081 0-.17.008-.264.016-.102.009-.21.018-.317.018-.786 0-1.4-.205-1.88-.615-.512-.41-.785-.957-.82-1.675-.034-.58 0-1.162.206-1.811.17-.615.41-1.162.752-1.64.307-.41.717-.718 1.196-.923.307-.137.683-.24 1.093-.274.205-.034.445-.034.65-.034.786 0 1.4.205 1.88.581zm-1.196 4.511c.24-.41.41-.888.547-1.4.102-.548.17-.958.137-1.436-.035-.513-.205-.889-.445-1.094-.239-.24-.58-.376-1.06-.376a1.91 1.91 0 00-.405.054l-.073.014c-.17.035-.375.103-.546.205-.308.24-.581.513-.786.923-.205.376-.376.82-.513 1.367s-.17.991-.137 1.401c.034.445.205.787.445 1.026.273.239.615.376 1.059.376.17 0 .342 0 .478-.034.206-.035.41-.103.547-.205a2.21 2.21 0 00.752-.82zm5.434-5.058c.786 0 1.333.137 1.709.342.41.24.615.547.58 1.094v.239c0 .068 0 .205-.033.376h-1.196v-.376a.633.633 0 00-.308-.581c-.17-.137-.444-.205-.82-.205-.41 0-.752.102-.957.273-.24.171-.342.41-.308.718a.77.77 0 00.274.478c.17.137.512.342 1.093.616.786.341 1.333.683 1.538.922.24.24.376.547.41.923.035.615-.205 1.162-.786 1.572-.547.444-1.333.65-2.255.65-.718 0-1.299-.171-1.743-.41-.41-.274-.65-.65-.684-1.128a.699.699 0 010-.376c.018-.054.027-.127.036-.204.008-.069.016-.142.032-.207h1.333a.998.998 0 00-.068.308c-.034.103-.034.171 0 .24 0 .273.103.444.308.58.205.171.444.205.854.205.513 0 .889-.102 1.196-.307.308-.24.445-.513.41-.82 0-.206-.102-.376-.273-.513-.171-.137-.513-.342-1.06-.581-.683-.308-1.162-.615-1.435-.889a1.362 1.362 0 01-.478-.922c-.035-.581.17-1.026.649-1.436.478-.376 1.162-.58 1.982-.58zm12.509.479c-.445-.308-1.094-.479-1.983-.479h-.273c-.513.034-.957.137-1.367.376-.479.205-.855.581-1.162 1.025a5.707 5.707 0 00-.65 1.675 5.573 5.573 0 00-.17 1.777c.034.684.307 1.23.752 1.607.478.375 1.093.58 1.88.58.119 0 .239-.008.358-.017.12-.008.24-.017.359-.017.547-.068 1.025-.239 1.401-.512.581-.376.923-.889 1.094-1.538H38.5c-.136.376-.341.65-.649.854l-.41.205a1.58 1.58 0 01-.581.103c-.478 0-.82-.137-1.094-.342-.239-.205-.41-.547-.444-.957 0-.137 0-.308.034-.478.008-.048.014-.094.02-.138.02-.149.038-.286.117-.443h4.818l.021-.093c.061-.27.116-.516.116-.762a3.81 3.81 0 000-.888c-.034-.718-.307-1.23-.751-1.538zm-.513 1.777c0 .061-.007.13-.015.205-.009.092-.02.195-.02.307h-3.383c.137-.649.376-1.162.718-1.47.273-.307.615-.443 1.025-.478a.628.628 0 00.12-.017.666.666 0 01.12-.017c.444 0 .786.137 1.059.308.24.205.41.478.41.82 0 .103 0 .205-.034.342z" fill="#C4D0D8"/></svg>