<svg xmlns="http://www.w3.org/2000/svg" width="249.7" height="40" style="enable-background:new 0 0 249.7 40" xml:space="preserve"><path d="M0 39.3V0h16.7c4.2 0 7.3.4 9.2 1.1 1.9.7 3.5 2 4.6 3.8 1.2 1.9 1.7 4 1.7 6.2 0 3-.9 5.4-2.6 7.3-1.7 1.9-4.3 3.1-7.8 3.6 1.6.9 3 2 4.3 3.3 1.1 1.2 2.6 3.3 4.5 6.4l4.8 7.7h-9.5l-5.7-8.6c-2-3.1-3.4-5-4.2-5.8-.7-.7-1.5-1.3-2.4-1.6-.8-.3-2.2-.4-4-.4H7.9v16.4L0 39.3zm7.9-22.7h5.9c3.8 0 6.2-.2 7.1-.5.9-.3 1.7-.9 2.2-1.7.6-.9.8-1.9.8-2.9 0-1.2-.3-2.3-1.1-3.2-.8-.9-1.8-1.4-3-1.5-.6-.1-2.6-.1-5.8-.1H7.9v9.9zm31.7 22.7V0h29.2v6.7H47.6v8.7h19.7V22H47.6v10.7h22v6.6h-30zm36.5 0V0h7.7L100 26.2V0h7.4v39.3h-8L83.5 13.7v25.6h-7.4zm75 0h-8.6l-3.4-8.9h-15.7l-3.2 8.9h-8.4L127 0h8.4l15.7 39.3zm-14.6-15.6-5.4-14.6-5.3 14.6h10.7zm17-23.7h7.9v21.3c0 3.4.1 5.6.3 6.6.3 1.5 1.2 2.9 2.4 3.9 1.3 1 3 1.5 5.2 1.5s3.9-.5 5.1-1.4c1.1-.8 1.8-2 2.1-3.4.3-2.2.4-4.4.4-6.7V0h7.9v20.7c0 4.7-.2 8.1-.6 10-.4 1.8-1.2 3.5-2.4 4.9-1.3 1.4-2.9 2.5-4.6 3.2-1.9.8-4.4 1.2-7.6 1.2-3.8 0-6.6-.4-8.5-1.3-1.8-.7-3.3-1.9-4.6-3.4-1.1-1.3-1.8-2.8-2.2-4.4-.5-2.3-.8-5.6-.8-10V0zm39.6 39.3V.3h7.9v32.4h19.7v6.6h-27.6zm37 0V6.7h-11.7V0h31.2v6.7H238v32.7h-7.9v-.1z" style="fill:#132530"/></svg>