<svg width="73" height="32" fill="none" xmlns="http://www.w3.org/2000/svg"><path fill-rule="evenodd" clip-rule="evenodd" d="M30.56 10.01c-.434-.626-1.176-.944-2.21-.945a4.5 4.5 0 00-1.946.45c-.88.419-1.677 1.12-2.328 2.048a8.949 8.949 0 00-1.069 2.085c-.534 1.475-.528 2.673.019 3.462.31.446.953.978 2.262.98h.006c2.385 0 4.165-1.577 5.293-4.685.298-.823.69-2.358-.027-3.395zm-2.553 3.517c-.745 2.053-1.285 2.57-2.097 2.57h-.002c-.792 0-1.07-.506-.328-2.55.553-1.525 1.27-2.501 2.137-2.501.825 0 1.014.483.29 2.48zM25.668 9.19H20.69c-.785 0-1.547 0-2.23.35s-1.286 1.05-1.75 2.448c-.101.301-.155.56-.162.785-.006.226.032.418.117.584.105.203.274.395.486.556a2.396 2.396 0 00.867.413l.2.058c.173.05.376.11.504.15.075.023.159.053.233.098a.423.423 0 01.229.37.598.598 0 01-.034.21c-.064.19-.16.312-.345.387-.183.075-.454.099-.864.102h-5.123l-.81 2.243h5.483c.517 0 1.46 0 2.367-.388.906-.389 1.776-1.165 2.144-2.718.138-.584.095-1.06-.131-1.433-.228-.373-.64-.644-1.238-.817l-.292-.085-.15-.044h-.001l-.28-.081a.58.58 0 01-.342-.248.492.492 0 01-.05-.393.572.572 0 01.284-.344c.144-.08.334-.125.555-.125h3.187l.034-.053.031-.048c.583-.83 1.287-1.502 2.06-1.977zm26.982.864c-.396-.575-1.202-.857-2.464-.859h-2.923l-3.161 8.755h2.685l1.15-3.082c.056.127.733 3.082.733 3.082h2.823s-.514-2.171-.891-3.049l-.035-.08a4.187 4.187 0 00-.298-.609c.797-.298 1.952-.94 2.43-2.24.295-.799.277-1.444-.049-1.918zm-2.336 1.934c-.258.7-.721 1.132-1.601 1.132h-.46l.78-2.117h.442c.81 0 1.113.239.839.985zm2.895-2.326a2.191 2.191 0 00-.439-.467h8.65l-.75 2.079h-3.093l-2.41 6.678h-2.409l2.41-6.678h-1.599c.072-.618-.048-1.158-.36-1.612zM40.09 9.19h-5.074c-1.418 0-2.474.724-2.973 2.079l-2.41 6.675h2.64l1.239-3.431 2.333.001.663-1.838-2.325-.001.374-1.065a.557.557 0 01.538-.342h2.75a.695.695 0 00.035-.053l.031-.048c.582-.83 1.407-1.502 2.179-1.977zm4.86.82c-.434-.626-1.176-.944-2.21-.945a4.51 4.51 0 00-1.945.45c-.88.419-1.677 1.12-2.328 2.048a8.906 8.906 0 00-1.068 2.085c-.535 1.475-.529 2.673.019 3.462.309.446.952.978 2.262.98h.004c2.386 0 4.167-1.577 5.294-4.685.298-.823.69-2.358-.027-3.395zm-2.553 3.517c-.744 2.053-1.284 2.57-2.096 2.57H40.3c-.792 0-1.069-.506-.328-2.55.552-1.525 1.27-2.501 2.136-2.501h.002c.824 0 1.013.483.288 2.48zm-1.374 7.156c.022-.043.045-.095.069-.155.04-.104.064-.182.072-.235a.185.185 0 00-.018-.123.42.42 0 00-.118-.103 1.075 1.075 0 00-.242-.11 2.317 2.317 0 00-.368-.087 3.02 3.02 0 00-.496-.037c-.34 0-.668.05-.983.147a3.204 3.204 0 00-.873.421 3.297 3.297 0 00-.714.67 3.408 3.408 0 00-.507.89c-.124.319-.186.605-.184.857.002.252.063.466.183.642.12.175.3.309.536.401.236.092.527.139.87.139a4.204 4.204 0 00.724-.063 4.711 4.711 0 00.662-.158.413.413 0 00.187-.11.536.536 0 00.098-.164l.625-1.604a.342.342 0 00.027-.11.157.157 0 00-.017-.083.116.116 0 00-.053-.051.202.202 0 00-.088-.018h-1.457c-.02 0-.04.006-.06.018a.245.245 0 00-.06.053.502.502 0 00-.063.094 1.47 1.47 0 00-.065.147.636.636 0 00-.06.238c.004.047.026.07.066.07h.817l-.364.934a1.594 1.594 0 01-.605.125c-.2 0-.372-.03-.514-.09a.661.661 0 01-.32-.269.81.81 0 01-.104-.44c.002-.175.049-.378.139-.609.082-.21.189-.4.32-.574a2.21 2.21 0 01.451-.445c.168-.124.35-.22.545-.287.195-.067.397-.101.607-.101a1.86 1.86 0 01.828.177c.089.044.159.085.209.122.05.037.09.056.118.056.02 0 .039-.005.058-.016a.2.2 0 00.058-.054.669.669 0 00.064-.105zm-10.788 3.192a.132.132 0 00.044-.056l1.483-3.805a.068.068 0 000-.056c-.007-.017-.027-.03-.056-.04a.612.612 0 00-.123-.026 1.892 1.892 0 00-.21-.01c-.085 0-.156.004-.214.01a1.014 1.014 0 00-.144.025.249.249 0 00-.09.041.131.131 0 00-.043.056l-1.484 3.805a.068.068 0 000 .056c.008.017.027.03.056.04.029.011.071.02.125.026a2.091 2.091 0 00.425 0 .882.882 0 00.144-.025.242.242 0 00.087-.04zm-1.713-.065a.161.161 0 01-.043.06.215.215 0 01-.087.044.84.84 0 01-.152.027c-.062.006-.139.01-.23.01-.145 0-.247-.006-.306-.017-.059-.01-.099-.026-.118-.046a.132.132 0 01-.036-.075l-.56-1.913-.745 1.912a.147.147 0 01-.043.06.238.238 0 01-.087.041.776.776 0 01-.143.027 2.127 2.127 0 01-.426 0 .507.507 0 01-.124-.027c-.03-.011-.048-.025-.056-.042s-.007-.036.002-.06l1.48-3.795a.139.139 0 01.044-.059.252.252 0 01.088-.04.952.952 0 01.145-.026 2.121 2.121 0 01.425 0 .615.615 0 01.123.025c.03.011.048.024.054.041.007.017.006.036-.002.06l-.67 1.715 1.932-1.713a.368.368 0 01.186-.109.793.793 0 01.145-.022 2.901 2.901 0 01.433.003.567.567 0 01.128.027c.03.011.048.025.055.042a.075.075 0 01-.002.056.359.359 0 01-.072.11 4.314 4.314 0 01-.183.176l-1.748 1.449.58 1.821a.984.984 0 01.022.17.2.2 0 01-.01.067zm-8.83-.006a.896.896 0 00.019-.178l.058-3.572a.21.21 0 00-.011-.093c-.01-.023-.035-.04-.074-.051a.778.778 0 00-.173-.022 7.412 7.412 0 00-.587 0 .84.84 0 00-.17.022.266.266 0 00-.105.05.549.549 0 00-.08.085l-2.724 3.575c-.055.072-.094.13-.118.175-.024.043-.03.077-.016.1.013.024.047.04.102.046a3.59 3.59 0 00.47.003.686.686 0 00.147-.024.226.226 0 00.088-.046.404.404 0 00.063-.074l.581-.787h1.621l-.026.809a.152.152 0 00.008.066c.007.016.026.03.055.039a.59.59 0 00.138.018 5.774 5.774 0 00.523-.003.316.316 0 00.146-.04.156.156 0 00.065-.099zm-.813-3.133h.003l-.057 1.712H17.6l1.278-1.712zm-3.572 2.442a1.64 1.64 0 00.216-.39.991.991 0 00.077-.37.612.612 0 00-.07-.289.54.54 0 00-.191-.2.837.837 0 00-.296-.11 1.518 1.518 0 00.567-.317 1.35 1.35 0 00.356-.51.935.935 0 00.077-.455.501.501 0 00-.164-.32.895.895 0 00-.39-.188 2.754 2.754 0 00-.648-.062h-1.084a.394.394 0 00-.208.06.386.386 0 00-.152.198l-1.37 3.513c-.035.091-.036.157-.002.197.035.041.088.061.162.061h1.147c.174 0 .335-.01.484-.03.148-.02.293-.05.433-.091.141-.042.276-.095.405-.159.128-.064.247-.141.356-.23a1.77 1.77 0 00.295-.308zm-.706-.362a.599.599 0 00.048-.25.291.291 0 00-.075-.186.432.432 0 00-.201-.115 1.361 1.361 0 00-.375-.04h-.52l-.447 1.145h.633c.123 0 .23-.011.323-.035a1.01 1.01 0 00.258-.106.872.872 0 00.212-.175.79.79 0 00.144-.238zm.449-1.725a.573.573 0 00.045-.218.248.248 0 00-.057-.16.35.35 0 00-.164-.098 1.081 1.081 0 00-.312-.035h-.443l-.408 1.047h.49c.126 0 .233-.015.32-.043a.847.847 0 00.412-.286.867.867 0 00.117-.207zm9.053 2.747a.436.436 0 00.077-.128l1.411-3.622a.088.088 0 00.006-.056c-.005-.016-.019-.03-.042-.043a.29.29 0 00-.108-.027 1.744 1.744 0 00-.187-.008c-.08 0-.146.003-.2.008a.555.555 0 00-.133.027.264.264 0 00-.084.043.132.132 0 00-.042.056l-.737 1.89a25.74 25.74 0 00-.333.906h-.003a6.984 6.984 0 00-.095-.761 25.288 25.288 0 01-.043-.263l-.266-1.473a1.05 1.05 0 00-.044-.204.304.304 0 00-.078-.129.287.287 0 00-.129-.067.858.858 0 00-.206-.02h-.47a.483.483 0 00-.253.073.434.434 0 00-.177.22l-1.412 3.621a.09.09 0 00-.006.056c.005.017.02.03.044.042.024.012.061.02.11.027a1.784 1.784 0 00.39 0 .652.652 0 00.132-.027.224.224 0 00.08-.042.142.142 0 00.04-.056l.822-2.108a17.472 17.472 0 00.327-.906h.006a6.132 6.132 0 00.074.741l.34 1.884c.015.104.032.189.051.253a.42.42 0 00.078.156.255.255 0 00.126.08c.05.014.116.021.193.021h.373a.534.534 0 00.26-.071.485.485 0 00.108-.093zm11.056-.128a.436.436 0 01-.076.128.502.502 0 01-.108.093.53.53 0 01-.26.071h-.374a.73.73 0 01-.193-.021.254.254 0 01-.126-.08.413.413 0 01-.077-.155 1.937 1.937 0 01-.052-.254l-.34-1.884a6.485 6.485 0 01-.073-.741h-.007a18.744 18.744 0 01-.327.906l-.822 2.108a.142.142 0 01-.04.056.227.227 0 01-.08.042.644.644 0 01-.131.027 1.799 1.799 0 01-.391 0 .375.375 0 01-.11-.027c-.024-.011-.038-.025-.043-.042a.09.09 0 01.005-.056l1.412-3.621a.431.431 0 01.177-.22.48.48 0 01.254-.073h.47c.084 0 .153.007.205.02a.288.288 0 01.13.067.3.3 0 01.077.13c.019.054.033.122.044.203l.267 1.473.042.263c.014.087.027.173.038.259l.003.022a24.421 24.421 0 01.055.48h.002a23.565 23.565 0 01.333-.906l.738-1.89a.133.133 0 01.041-.056.265.265 0 01.084-.043.557.557 0 01.134-.027 2.01 2.01 0 01.2-.008c.075 0 .137.003.187.008a.29.29 0 01.108.027c.023.012.036.027.041.043a.087.087 0 01-.005.056l-1.412 3.622z" fill="#C4D0D8"/></svg>