<svg width="155" height="42" fill="none" xmlns="http://www.w3.org/2000/svg"><g clip-path="url(#clip0)"><path fill-rule="evenodd" clip-rule="evenodd" d="M2.515 5.407c1.46.966 2.753 1.857 4.084 2.686.58.362 1.074.07 1.047-.608-.04-.988-.236-1.967-.186-2.965.017-.338-.145-.512-.535-.395-1.411.421-2.828.824-4.41 1.282zm.859 13.521c-.522.393-.82.405-.972-.372A685.198 685.198 0 0 0 .046 6.972c-.148-.696.056-.971.688-1.11.514-.114 1.016-.282 1.573-.44-.247-.508-.849-.549-1.16-1.068C2.405 4 3.616 3.652 4.83 3.32 8.515 2.312 12.203 1.312 15.887.3c.309-.085.623-.168.918-.064 2.048.717 4.088 1.456 6.189 2.208-.311.43-.763.388-1.09.58-1.679-.358-3.213-1.122-4.806-1.716-.593-.22-.825-.155-.843.552-.03 1.14-.17 2.275-.265 3.413-.155.01-.322-.016-.463.033-2.404.841-4.8 1.704-7.211 2.527-.483.165-.503.474-.476.864.129 1.856.05 3.756.44 5.555.443 2.04-.462 2.892-2.16 3.404-1.247-.702-1.97-2.021-3.303-2.873.15 1.49.588 2.79.557 4.145z" fill="#A7ADB4"/><path fill-rule="evenodd" clip-rule="evenodd" d="M81.824 14.615c1.03 0 2.061-.018 3.091.008.44.01.607-.12.599-.578a125.834 125.834 0 0 1 0-4.122c.006-.409-.125-.533-.532-.53a271.14 271.14 0 0 1-6.183-.003c-.524-.007-.617.195-.608.657.026 1.31.027 2.623 0 3.934-.01.487.139.66.636.643.998-.032 1.998-.01 2.997-.01zm-5.568 1.818c0-2.216-.006-4.433.002-6.65.006-1.672.796-2.447 2.473-2.448 2.154-.002 4.308-.005 6.462 0 1.439.005 2.34.876 2.345 2.322.014 4.526-.02 9.053.028 13.58.009.859-.434.794-.973.758-.5-.033-1.142.265-1.107-.734.067-1.902-.02-3.81.04-5.712.023-.734-.216-.867-.887-.85a119.45 119.45 0 0 1-5.619 0c-.64-.014-.855.14-.837.814.049 1.841-.022 3.685.035 5.525.025.77-.184.979-.968.994-.846.016-1.037-.232-1.014-1.044.059-2.183.02-4.37.02-6.555z" fill="#828E95"/><path fill-rule="evenodd" clip-rule="evenodd" d="M25.437 22.141c.871.371.641.703.028 1.168a632.05 632.05 0 0 0-9.467 7.297c-.627.494-.982.42-1.425-.144-.268-.34-.605-.625-.91-.934-1.082-1.148-2.152-2.307-3.255-3.435-.42-.43-.394-.68.129-.989.634-.374 1.323-.68 1.825-1.252.34.004.57-.233.83-.394 1.883-1.168 3.827-2.252 5.62-3.546 1.316-.95 2.418-1.223 3.597.076.056.061.166.074.251.11.843.794 1.85 1.363 2.777 2.043z" fill="#545F66"/><path fill-rule="evenodd" clip-rule="evenodd" d="M109.104 21.928h1.681c2.099 0 2.07 0 2.053-2.12-.005-.623-.242-.706-.769-.696-1.494.029-2.989.01-4.484.01-2.237 0-2.221 0-2.083 2.249.028.463.188.574.612.564.996-.023 1.993-.007 2.99-.007zm5.727-2.966c0 1.469-.015 2.937.009 4.405.008.487-.15.644-.643.64-2.842-.02-5.685.008-8.528-.018-1.263-.012-2.096-.851-2.154-2.122-.04-.873-.033-1.75-.002-2.623.049-1.36.904-2.18 2.28-2.19 2.062-.014 4.124-.026 6.186.01.639.012.859-.155.856-.827-.009-1.96.021-1.96-1.911-1.96-2.218 0-4.438-.05-6.654.023-.966.032-.766-.543-.759-1.067.007-.51-.242-1.104.742-1.08 2.717.066 5.436.01 8.154.028 1.512.01 2.374.85 2.415 2.377.039 1.467.008 2.936.009 4.404zM55.2 14.277h-1.686c-2.05 0-2.018 0-2.021 2.04-.001.666.254.758.818.746 1.498-.031 2.997-.01 4.495-.01 2.1 0 2.082 0 2.025-2.154-.013-.49-.143-.649-.635-.632-.998.034-1.997.01-2.996.01zm.645 9.72c-1.343 0-2.686.012-4.03-.003-1.441-.017-2.29-.83-2.305-2.257a368.718 368.718 0 0 1 .001-7.31c.014-1.362.871-2.225 2.23-2.242 2.28-.028 4.561-.025 6.841.002 1.192.013 2.079.745 2.161 1.905.108 1.522.06 3.056.085 4.585.009.567-.405.442-.724.442-2.593.006-5.186.026-7.778-.012-.648-.01-.842.147-.832.816.029 2.003-.003 2.003 1.978 2.003 2.186 0 4.374.044 6.559-.023.812-.024.866.35.797.941-.06.511.307 1.232-.767 1.172-1.401-.078-2.81-.018-4.216-.019zm93.436-6.945h1.682c2.078 0 2.057 0 2.031-2.122-.007-.535-.161-.676-.68-.665-1.526.033-3.053.012-4.579.012-2.158 0-2.141 0-2.076 2.153.014.482.134.651.632.633.995-.036 1.993-.01 2.99-.01zm.764 6.945c-1.343 0-2.686.01-4.029-.002-1.394-.012-2.267-.673-2.317-2.037-.094-2.556-.095-5.12-.016-7.678.041-1.351.927-2.082 2.276-2.096a297.54 297.54 0 0 1 6.747.004c1.349.017 2.212.885 2.245 2.234.032 1.312-.021 2.625.02 3.936.02.618-.178.787-.793.779-2.592-.035-5.185 0-7.777-.027-.545-.005-.747.094-.748.704-.003 2.114-.032 2.114 2.054 2.114 2.186 0 4.374.038 6.559-.018.945-.025.682.584.683 1.052 0 .472.251 1.094-.688 1.052-1.403-.063-2.811-.017-4.216-.017zM15.99 5.272c.094-1.137.236-2.273.265-3.412.018-.707.25-.773.843-.552 1.594.594 3.128 1.358 4.805 1.715 1.505.822 3.168 1.25 4.74 1.902.748.31 1.497.632 2.274.847.788.218.996.605.632 1.326-.069.137-.092.296-.136.445-.539.297-1.052.657-1.62.878-1.836.715-3.367 1.662-3.419 3.92 0 .028-.025.055-.039.083-2.09-1.09-4.182-2.175-6.268-3.272-2.317-1.218-2.314-1.223-2.076-3.88zM117.319 18.12c0-1.749.014-3.498-.01-5.246-.006-.478.04-.72.631-.713 2.779.033 5.558 0 8.337.022 1.461.011 2.323.895 2.328 2.34.01 2.904-.034 5.809.026 8.711.018.86-.431.772-.973.768-.561-.004-1.077.138-1.054-.8.068-2.715.009-5.433.037-8.15.006-.584-.114-.807-.758-.792-1.935.046-3.872.046-5.807 0-.644-.015-.762.21-.756.793.027 2.716-.033 5.434.035 8.149.026 1.034-.605.744-1.146.802-.639.068-.942-.058-.911-.827.068-1.683.021-3.371.021-5.057z" fill="#828E95"/><path fill-rule="evenodd" clip-rule="evenodd" d="M24.335 12.424c.014-.028.039-.055.04-.083.051-2.257 1.582-3.206 3.418-3.92.568-.221 1.082-.581 1.62-.878.63-.086 1.097-.561 1.854-.785-.339 1.113-.638 2.126-.956 3.133-1.011 3.198-2.104 6.373-3.006 9.601-.33 1.178-1.102 1.87-1.868 2.65-.926-.68-1.934-1.25-2.777-2.045.571-2.555 1.242-5.088 1.675-7.673z" fill="#545F66"/><path fill-rule="evenodd" clip-rule="evenodd" d="M69.22 12.176c1.217 0 2.435.032 3.65-.014.593-.023.795.171.715.739-.03.214-.03.44 0 .654.08.57-.132.745-.718.736-2.247-.035-4.495.013-6.74-.03-.67-.014-.826.191-.813.833.042 1.965.057 3.933-.004 5.897-.026.819.27.968 1.011.952 2.184-.047 4.37.025 6.553-.038.835-.024.755.454.693.935-.059.453.39 1.186-.656 1.17-2.465-.04-4.931.004-7.396-.02-1.297-.012-2.127-.782-2.154-2.084a210.593 210.593 0 0 1-.02-7.582c.021-1.312.894-2.108 2.227-2.14 1.217-.028 2.434-.005 3.652-.005v-.003zm67.822.001c1.186 0 2.373.027 3.559-.012.563-.018.824.133.732.726a1.882 1.882 0 0 0 0 .56c.098.637-.117.857-.799.843-2.246-.046-4.495.003-6.742-.032-.575-.008-.738.138-.728.722a201.9 201.9 0 0 1 .003 6.274c-.007.537.163.687.689.68 2.248-.025 4.498.046 6.742-.036.996-.036.813.53.837 1.105.026.61.042 1.041-.84 1.014-2.339-.07-4.682-.018-7.023-.026-1.555-.005-2.388-.813-2.398-2.35a603.12 603.12 0 0 1 0-7.118c.008-1.47.847-2.319 2.316-2.345 1.217-.021 2.435-.004 3.652-.005zm-91.718 4.534c0 2.125-.048 4.251.023 6.373.03.865-.32.954-1.03.933-.644-.02-1.067.028-1.055-.889.056-4.28.003-8.56.044-12.84.007-.754-.209-.945-.926-.902-1.027.061-2.062-.014-3.091.027-.547.022-.729-.168-.666-.691a4.23 4.23 0 0 0 .001-.842c-.032-.392.09-.555.517-.553 3.437.013 6.873.014 10.31 0 .442-.003.529.193.506.566-.019.31-.027.626.002.936.042.456-.142.593-.589.581-1.092-.027-2.188.025-3.28-.022-.598-.025-.793.133-.782.763.041 2.186.016 4.373.016 6.56zm-32.962 7.141c-.502.572-1.191.878-1.825 1.252-.524.308-.549.56-.129.989 1.103 1.128 2.172 2.287 3.255 3.435l-.251 1.569c-2.127-2.32-4.195-4.576-6.262-6.833-.377-.412-.749-.83-1.126-1.241-1.113-1.217-2.407-2.316-2.65-4.095.031-1.355-.406-2.655-.557-4.145 1.332.852 2.056 2.17 3.302 2.873.45.466.897.935 1.35 1.398 1.598 1.633 3.433 3.025 4.893 4.798zm77.614-8.168c0-2.528.044-5.058-.024-7.584-.024-.853.407-.791.955-.768.524.022 1.08-.199 1.07.762a765.19 765.19 0 0 0 .003 15.075c.01.992-.544.79-1.114.84-.647.054-.928-.072-.91-.835.055-2.495.02-4.993.02-7.49zm6.412.092c0 2.5-.033 4.999.02 7.497.016.797-.4.771-.925.722-.46-.043-1.063.27-1.056-.682.037-5.123.03-10.246.006-15.37-.005-1.006.695-.526 1.107-.594.451-.074.887-.139.87.65-.057 2.59-.022 5.184-.022 7.777zm2.677 2.254c0-1.715.051-3.431-.02-5.142-.042-1.03.642-.657 1.114-.707.509-.053.919-.095.907.71-.051 3.458-.048 6.92-.002 10.378.011.785-.374.776-.908.729-.498-.045-1.146.26-1.11-.732.065-1.743.019-3.49.019-5.236zm1.949-9.621c.231.88-.181.987-.958 1.03-.968.052-.976-.388-1.02-1.127-.05-.861.26-.978 1.038-1.013.955-.044 1.127.336.94 1.11zM2.515 5.407c1.582-.458 3-.86 4.41-1.282.39-.117.552.057.535.395-.05.998.146 1.977.186 2.965.027.679-.467.97-1.047.608-1.33-.83-2.624-1.72-4.084-2.686z" fill="#828E95"/><path d="M84.164 38v-6.768h2.424v-1.236h-6.252v1.236h2.424V38h1.404zm4.988.144c.924 0 1.776-.288 2.352-.84l-.576-.828c-.408.408-1.08.636-1.644.636-1.092 0-1.752-.72-1.848-1.596h4.476v-.3c0-1.824-1.116-3.156-2.856-3.156-1.716 0-2.94 1.356-2.94 3.036 0 1.836 1.296 3.048 3.036 3.048zm1.536-3.516h-3.264c.06-.708.552-1.536 1.632-1.536 1.14 0 1.608.852 1.632 1.536zm5.108 3.516c1.128 0 1.812-.48 2.22-1.032l-.828-.768c-.324.444-.768.684-1.332.684-1.056 0-1.752-.804-1.752-1.932s.696-1.92 1.752-1.92c.564 0 1.008.228 1.332.684l.828-.768c-.408-.552-1.092-1.032-2.22-1.032-1.764 0-3 1.284-3 3.036 0 1.764 1.236 3.048 3 3.048zm6.337-.144c2.496 0 4.188-1.644 4.188-3.996 0-2.352-1.692-4.008-4.188-4.008h-2.976V38h2.976zm0-1.236h-1.572v-5.532h1.572c1.788 0 2.748 1.224 2.748 2.772 0 1.512-1.008 2.76-2.748 2.76zm8.123 1.38c1.86 0 2.988-1.38 2.988-3.048 0-1.656-1.128-3.036-2.988-3.036-1.836 0-2.976 1.38-2.976 3.036 0 1.668 1.14 3.048 2.976 3.048zm0-1.116c-1.068 0-1.668-.9-1.668-1.932 0-1.02.6-1.92 1.668-1.92 1.08 0 1.68.9 1.68 1.92 0 1.032-.6 1.932-1.68 1.932zm6.903 1.116c1.128 0 1.812-.48 2.22-1.032l-.828-.768c-.324.444-.768.684-1.332.684-1.056 0-1.752-.804-1.752-1.932s.696-1.92 1.752-1.92c.564 0 1.008.228 1.332.684l.828-.768c-.408-.552-1.092-1.032-2.22-1.032-1.764 0-3 1.284-3 3.036 0 1.764 1.236 3.048 3 3.048zm7.031-6.648c.432 0 .78-.348.78-.78a.778.778 0 0 0-.78-.78c-.42 0-.78.348-.78.78 0 .432.36.78.78.78zm.636 6.504v-5.796h-1.26V38h1.26zm6.807 0v-4.08c0-1.188-.624-1.86-1.872-1.86-.912 0-1.656.48-2.04.936v-.792h-1.26V38h1.26v-4.044c.288-.396.84-.78 1.488-.78.708 0 1.164.3 1.164 1.2V38h1.26zm3.616.144c1.56 0 2.412-.78 2.412-1.8 0-2.304-3.504-1.536-3.504-2.568 0-.408.42-.708 1.08-.708.72 0 1.368.3 1.716.696l.528-.888c-.528-.468-1.272-.816-2.256-.816-1.464 0-2.28.816-2.28 1.764 0 2.22 3.504 1.404 3.504 2.544 0 .456-.384.78-1.14.78-.756 0-1.56-.396-1.968-.816l-.576.912c.6.588 1.5.9 2.484.9zm4.304-6.648c.432 0 .78-.348.78-.78a.778.778 0 0 0-.78-.78c-.42 0-.78.348-.78.78 0 .432.36.78.78.78zm.636 6.504v-5.796h-1.26V38h1.26zm6.975 0v-8.004h-1.26v3.012c-.468-.612-1.14-.948-1.86-.948-1.5 0-2.58 1.176-2.58 3.048 0 1.908 1.092 3.036 2.58 3.036.744 0 1.416-.36 1.86-.936V38h1.26zm-2.76-.972c-.996 0-1.632-.804-1.632-1.92 0-1.128.636-1.932 1.632-1.932.6 0 1.212.348 1.5.78v2.304c-.288.432-.9.768-1.5.768zm7.068 1.116c.924 0 1.776-.288 2.352-.84l-.576-.828c-.408.408-1.08.636-1.644.636-1.092 0-1.752-.72-1.848-1.596h4.476v-.3c0-1.824-1.116-3.156-2.856-3.156-1.716 0-2.94 1.356-2.94 3.036 0 1.836 1.296 3.048 3.036 3.048zm1.536-3.516h-3.264c.06-.708.552-1.536 1.632-1.536 1.14 0 1.608.852 1.632 1.536z" fill="#828E95"/></g><defs><clipPath id="clip0"><path fill="#fff" d="M0 0h155v42H0z"/></clipPath></defs></svg>