<svg xmlns="http://www.w3.org/2000/svg" width="211.8" height="40" style="enable-background:new 0 0 211.8 40" xml:space="preserve"><path d="M11.5 39.3V7.2H0V.7h30.7v6.5H19.3v32.1h-7.8zM33 20.2c0-3.9.6-7.2 1.8-9.9.9-2 2.1-3.8 3.6-5.3 1.4-1.5 3.1-2.7 5-3.5C46 .5 48.8-.1 51.7 0 57.4 0 62 1.8 65.4 5.3s5.1 8.4 5.1 14.7c0 6.2-1.7 11.1-5.1 14.6C62 38.2 57.5 40 51.8 40s-10.3-1.8-13.7-5.3S33 26.4 33 20.2zm8-.2c0 4.4 1 7.7 3 10 1.9 2.2 4.8 3.5 7.7 3.4 2.9.1 5.7-1.2 7.7-3.4s3-5.6 3-10.1c0-4.4-1-7.7-2.9-9.9S55 6.7 51.8 6.7 46 7.8 44 10s-3 5.5-3 10zm43.2 19.3V23L70 .7h9.2L88.3 16 97.2.7h9L92 23.1v16.2h-7.8zm21.6-19.1c0-3.9.6-7.2 1.8-9.9.9-2 2.1-3.8 3.6-5.3 1.4-1.5 3.1-2.7 5-3.5 2.6-1.1 5.5-1.6 8.3-1.5 5.7 0 10.2 1.8 13.7 5.3 3.4 3.5 5.1 8.5 5.1 14.8 0 6.2-1.7 11.1-5.1 14.6-3.4 3.5-7.9 5.3-13.6 5.3-5.8 0-10.3-1.8-13.7-5.3-3.4-3.5-5.1-8.3-5.1-14.5zm8.1-.2c0 4.4 1 7.7 3 10 3.9 4.2 10.5 4.5 14.7.7.2-.2.4-.4.7-.6 2-2.2 3-5.6 3-10.1 0-4.4-1-7.7-2.9-9.9s-4.5-3.3-7.8-3.3c-3.2 0-5.8 1.1-7.8 3.3s-3 5.4-2.9 9.9zm43 19.3V7.2h-11.5V.7h30.7v6.5h-11.4v32.1h-7.8zm54.8 0h-8.5l-3.4-8.8h-15.5l-3.2 8.8h-8.3L188 .7h8.3l15.4 38.6zM197.4 24 192 9.7 186.8 24h10.6z" style="fill:#132530"/></svg>