<svg width="72" height="32" viewBox="0 0 72 32" fill="none" xmlns="http://www.w3.org/2000/svg">
<path fill-rule="evenodd" clip-rule="evenodd" d="M35.4545 27.6364C35.6712 27.5332 41.3048 25.211 43.0923 23.8177C44.9341 22.3728 45.9091 20.3087 45.9091 17.8318V6.22108L45.7466 6.16947C41.2506 3.84733 35.6712 4.00214 35.4004 4.00214C35.1837 4.00214 29.6043 3.84733 25.1083 6.16947L25 6.22108V17.8834C25 20.3603 25.975 22.4245 27.8168 23.8693C29.6043 25.2626 35.2379 27.5848 35.4545 27.6364" fill="#C4D0D8"/>
<path fill-rule="evenodd" clip-rule="evenodd" d="M27.9349 23.8653C29.8177 25.2229 35.9091 27.6364 35.9091 27.6364C35.9091 27.6364 42.0005 25.2229 43.8832 23.815C45.8768 22.3066 46.8182 20.245 46.8182 17.8818V6.16634C42.0005 3.80313 35.9091 4.00426 35.9091 4.00426C35.9091 4.00426 29.8177 3.80313 25 6.16634V17.9321C25 20.2953 25.9414 22.3568 27.9349 23.8653ZM28.4887 23.2116C26.772 21.9546 25.886 20.1445 25.886 17.9321V11.1442C31.8666 6.11606 39.5085 5.81437 45.9322 6.36747V17.9321C45.9322 20.0942 45.0461 21.9546 43.3295 23.2116C41.8343 24.3178 37.1827 26.2285 35.9091 26.7313C34.6354 26.2285 30.0392 24.3681 28.4887 23.2116Z" fill="#F9FAFB"/>
<path fill-rule="evenodd" clip-rule="evenodd" d="M43.1275 17.2992C43.0726 16.7472 42.7431 16.4461 41.9194 15.9945C40.3819 15.1916 40.0524 14.4891 39.9975 13.5357C39.9975 12.1306 41.3154 11.3277 42.5784 11.2775C43.6218 11.2274 44.3356 11.5786 44.6651 11.8295V13.3349C44.2807 12.9837 43.6218 12.6324 42.9628 12.6324C42.4686 12.6324 41.8645 12.8833 41.8645 13.4855C41.8645 14.038 42.3268 14.2947 42.9544 14.6434C43.0109 14.6748 43.0686 14.7069 43.1275 14.74C44.72 15.5931 45.0495 16.3959 44.9946 17.3995C44.9946 18.5035 44.116 19.7078 42.2489 19.7078C41.4801 19.7078 40.7663 19.4569 40.1622 19.1559V17.5501C40.6564 17.9515 41.3703 18.2526 41.9744 18.2526C42.6882 18.2526 43.1275 17.9013 43.1275 17.2992ZM36.3183 19.7078C35.879 19.7078 35.6044 19.6577 35.4397 19.6075V23.2706H33.5727V11.9299C34.2865 11.5284 35.1102 11.3277 36.1536 11.3277C38.405 11.3277 39.668 12.8833 39.668 15.4425C39.668 17.9515 38.4599 19.7078 36.3183 19.7078ZM35.4397 12.783C35.4652 12.7752 35.4933 12.7662 35.5234 12.7566C35.6881 12.7041 35.913 12.6324 36.0987 12.6324C37.1969 12.6324 37.6362 13.4353 37.6362 15.3923C37.6362 17.2992 37.0871 18.2024 35.9888 18.2024C35.7143 18.2024 35.4946 18.1523 35.3848 18.1021V12.783H35.4397ZM32.5293 19.0053C31.8154 19.4569 30.827 19.7078 29.6738 19.7078C27.8068 19.7078 26.8184 18.7544 26.8184 16.8977V11.4281H28.7403V16.9981C28.7403 17.4497 28.8501 18.2024 29.7288 18.2024C30.1131 18.2024 30.3877 18.1523 30.6074 18.0017V11.4281H32.5293V19.0053ZM42.4686 26.4822V27.6363H42.6882V27.1847H42.7431L43.0726 27.6363H43.3472C43.3472 27.6363 43.0177 27.1847 42.9628 27.1345C43.1275 27.0844 43.2374 26.984 43.2374 26.8335C43.2374 26.6829 43.1275 26.4822 42.7981 26.4822H42.4686ZM43.0177 26.7833C43.0177 26.7331 42.9628 26.6327 42.7981 26.6327H42.6882V26.984H42.7431C42.9628 26.984 43.0177 26.8836 43.0177 26.7833Z" fill="#F9FAFB"/>
<path fill-rule="evenodd" clip-rule="evenodd" d="M42.2729 27.6364C42.2729 27.1101 42.7036 26.7273 43.182 26.7273C43.6605 26.7273 44.0911 27.1579 44.0911 27.6364C44.0911 28.1627 43.6605 28.5455 43.182 28.5455C42.6557 28.5455 42.2729 28.1149 42.2729 27.6364ZM43.182 28.3541C43.5648 28.3541 43.8997 28.0192 43.8997 27.6364C43.8997 27.2536 43.6127 26.9187 43.182 26.9187C42.7993 26.9187 42.4643 27.2536 42.4643 27.6364C42.4643 28.0192 42.7993 28.3541 43.182 28.3541Z" fill="#F9FAFB"/>
</svg>
