<svg width="73" height="32" fill="none" xmlns="http://www.w3.org/2000/svg"><path fill-rule="evenodd" clip-rule="evenodd" d="M45.382 10.548l-.454 2.697c-1.362-.771-4.461-.954-4.462.466 0 .564.702.952 1.547 1.42 1.282.71 2.895 1.601 2.895 3.57 0 3.144-3.277 4.299-5.448 4.299-2.171 0-3.592-.71-3.592-.71l.473-2.82c1.303 1.076 5.25 1.381 5.25-.323 0-.716-.776-1.139-1.678-1.628-1.243-.676-2.723-1.48-2.723-3.361 0-3.449 3.75-4.158 5.33-4.158 1.46 0 2.862.548 2.862.548zM56 22.783h-2.922l-.373-1.865H48.66l-.664 1.865H44.68l4.746-11.623s.288-.936 1.47-.936h2.557L56 22.784zM28.047 10.224l-3.034 8.639-.359-1.86-1.07-5.648s-.13-1.13-1.51-1.13H17.06l-.059.212s1.534.328 3.329 1.436l2.765 10.91h3.315l5.063-12.559h-3.425zm5.86 12.56h-3.182l1.989-12.56h3.182l-1.99 12.56zm15.67-4.443l1.671-4.7.94 4.7h-2.612z" fill="#C4D0D8"/><path fill-rule="evenodd" clip-rule="evenodd" d="M24.785 17.215l-1.119-5.833s-.135-1.168-1.577-1.168h-5.242l-.062.22s2.52.53 4.936 2.516c2.311 1.899 3.064 4.265 3.064 4.265z" fill="#C4D0D8"/></svg>