<svg width="106" height="24" fill="none" xmlns="http://www.w3.org/2000/svg"><g clip-path="url(#clip0)"><mask id="a" maskUnits="userSpaceOnUse" x="0" y="0" width="34" height="24"><path fill-rule="evenodd" clip-rule="evenodd" d="M0 0h33.794v24H0V0z" fill="#fff"/></mask><g mask="url(#a)"><path fill-rule="evenodd" clip-rule="evenodd" d="M33.087 3.747a4.264 4.264 0 0 0-2.989-3.03C27.462 0 16.888 0 16.888 0S6.317 0 3.678.716A4.265 4.265 0 0 0 .69 3.747C-.017 6.421-.017 12-.017 12s0 5.579.707 8.252a4.264 4.264 0 0 0 2.989 3.031C6.316 24 16.889 24 16.889 24s10.573 0 13.21-.717a4.264 4.264 0 0 0 2.988-3.03c.707-2.674.707-8.253.707-8.253s0-5.579-.706-8.253z" fill="#D9252A"/></g><path fill-rule="evenodd" clip-rule="evenodd" d="M13.508 17.143L22.292 12l-8.784-5.143v10.286z" fill="#fff"/><path fill-rule="evenodd" clip-rule="evenodd" d="M52.808 19.48c.185-.49.278-1.291.278-2.403v-4.683c0-1.079-.093-1.867-.278-2.366-.186-.498-.512-.748-.98-.748-.45 0-.77.25-.955.748-.185.499-.278 1.287-.278 2.366v4.683c0 1.112.089 1.913.266 2.403.177.49.5.735.968.735.467 0 .793-.245.979-.735zm-3.748 2.354c-.67-.457-1.145-1.169-1.427-2.133-.282-.965-.423-2.248-.423-3.85V13.67c0-1.618.161-2.918.484-3.898.322-.981.826-1.696 1.511-2.146.685-.45 1.584-.674 2.696-.674 1.096 0 1.974.23 2.635.687.661.457 1.145 1.172 1.451 2.145.306.973.46 2.268.46 3.886v2.182c0 1.602-.15 2.89-.448 3.862-.298.973-.782 1.684-1.45 2.133-.67.45-1.576.674-2.72.674-1.178 0-2.1-.229-2.769-.686zm51.778-12.273c-.169.213-.283.56-.339 1.042-.057.482-.084 1.214-.084 2.194v1.08h2.442v-1.08c0-.964-.033-1.695-.097-2.194-.065-.498-.181-.85-.35-1.054-.17-.204-.432-.307-.786-.307-.355 0-.617.107-.786.32zm-.423 6.326v.76c0 .965.027 1.688.084 2.17.056.482.173.834.351 1.054.177.221.451.331.822.331.499 0 .842-.196 1.027-.588.186-.392.286-1.046.302-1.962l2.878.172c.016.131.024.31.024.54 0 1.389-.374 2.427-1.124 3.113-.749.687-1.81 1.03-3.18 1.03-1.644 0-2.797-.523-3.457-1.57-.661-1.045-.992-2.663-.992-4.854V13.46c0-2.256.343-3.903 1.028-4.941.685-1.038 1.858-1.557 3.518-1.557 1.144 0 2.023.213 2.636.637.612.426 1.043 1.088 1.293 1.987s.375 2.141.375 3.726v2.575h-5.585zm-59.48-.282L37.139 1.704h3.312l1.33 6.302a60.39 60.39 0 0 1 .75 3.972h.096c.113-.785.363-2.1.75-3.948l1.378-6.326h3.313l-3.845 13.902v6.67h-3.288v-6.67zm26.285-8.36v15.03h-2.61l-.29-1.839h-.073c-.71 1.39-1.773 2.084-3.191 2.084-.984 0-1.71-.326-2.177-.98-.467-.654-.7-1.676-.7-3.065V7.245h3.336v11.034c0 .67.073 1.148.218 1.434.145.286.386.429.725.429.29 0 .568-.09.834-.27.266-.18.463-.408.593-.686V7.245h3.336zm17.115 0v15.03h-2.611l-.29-1.839h-.072c-.71 1.39-1.774 2.084-3.192 2.084-.984 0-1.709-.326-2.176-.98-.468-.654-.701-1.676-.701-3.065V7.245h3.336v11.034c0 .67.072 1.148.218 1.434.145.286.387.429.725.429.29 0 .568-.09.834-.27.266-.18.464-.408.593-.686V7.245h3.336z" fill="#132530"/><path fill-rule="evenodd" clip-rule="evenodd" d="M76.287 4.425h-3.313v17.85H69.71V4.425h-3.312V1.704h9.889v2.721zM92.32 15.778c0 1.096-.045 1.954-.133 2.575-.089.621-.238 1.063-.447 1.324-.21.262-.492.392-.846.392a1.467 1.467 0 0 1-1.33-.785v-8.532c.112-.408.306-.744.58-1.005.274-.261.572-.392.894-.392a.9.9 0 0 1 .786.404c.185.27.314.723.387 1.36.073.638.11 1.546.11 2.722v1.937zm3.059-6.13c-.202-.948-.529-1.635-.98-2.06-.451-.425-1.072-.637-1.861-.637a3.06 3.06 0 0 0-1.717.527 3.567 3.567 0 0 0-1.233 1.385h-.025V.943h-3.215v21.332h2.756l.339-1.422h.072a2.86 2.86 0 0 0 1.16 1.201 3.405 3.405 0 0 0 1.718.442c1.128 0 1.958-.528 2.49-1.582.532-1.055.798-2.701.798-4.94v-2.379c0-1.683-.101-2.999-.302-3.947z" fill="#132530"/></g><defs><clipPath id="clip0"><path fill="#fff" d="M0 0h106v24H0z"/></clipPath></defs></svg>