<svg width="32" height="32" fill="none" xmlns="http://www.w3.org/2000/svg"><path fill-rule="evenodd" clip-rule="evenodd" d="M27.29 19.25c.108-1.138.219-2.314.232-3.468.017-1.55-.16-3.18-.573-5.284-.144-.735-.503-1.292-1.092-1.701-.44-.306-.954-.455-1.571-.455-1.26-.004-2.521-.003-3.785-.001h-1.623l-3.228-.002c-2.69-.001-5.38-.001-8.07.002-1.345 0-2.357.793-2.64 2.066-.167.755-.28 1.43-.337 2.068l-.008.079v.006c-.113 1.218-.23 2.477-.245 3.714-.023 1.7.24 3.413.528 5.012.272 1.517 1.268 2.352 2.803 2.352h.004c1.177-.002 2.357-.002 3.536-.002h2.357l4.213.002c2.166.002 4.328.004 6.496-.002 1.347 0 2.359-.793 2.642-2.066.162-.726.276-1.422.338-2.068l.022-.235.001-.017zM24.267 6.667c2.227 0 4.015 1.519 4.364 3.723.25 1.57.478 3.106.544 4.662.062 1.48-.021 3.01-.254 4.678-.11.779-.222 1.54-.391 2.296a4.16 4.16 0 0 1-4.048 3.265c-2.164.012-4.33.014-6.5.01l-2.363-.002c-.808 0-1.614-.004-2.422-.008h-.004c-.185 0-.37 0-.555-.002-1.634-.005-3.31-.01-4.961.02h-.078c-1.848 0-3.981-1.175-4.376-3.791l-.057-.376-.005-.034c-.2-1.32-.406-2.683-.459-4.05a.34.34 0 0 0-.013-.072 1.323 1.323 0 0 1-.003-.014l-.015-.072-.005-1.785.001-.012c.012-.136.022-.272.032-.408l.01-.136c.028-.404.057-.808.112-1.21l.082-.622.002-.01c.12-.91.246-1.852.44-2.767.398-1.881 2.101-3.253 4.048-3.264 2.172-.012 4.345-.01 6.52-.008l2.444.001a90.697 90.697 0 0 1 1.752.002l.658.005a215.1 215.1 0 0 0 5.404-.019h.096zM13.961 18.394l4.142-2.405-4.142-2.399v4.804zm7.459-2.405l-9.133 5.295V10.693l9.133 5.296z" fill="#AABBC6"/></svg>